%TF.GenerationSoftware,KiCad,Pcbnew,10.0.3*%
%TF.CreationDate,2026-06-15T23:48:49+09:00*%
%TF.ProjectId,EEG_BLE,4545475f-424c-4452-9e6b-696361645f70,rev?*%
%TF.SameCoordinates,Original*%
%TF.FileFunction,Copper,L3,Inr*%
%TF.FilePolarity,Positive*%
%FSLAX46Y46*%
G04 Gerber Fmt 4.6, Leading zero omitted, Abs format (unit mm)*
G04 Created by KiCad (PCBNEW 10.0.3) date 2026-06-15 23:48:49*
%MOMM*%
%LPD*%
G01*
G04 APERTURE LIST*
%TA.AperFunction,HeatsinkPad*%
%ADD10C,0.600000*%
%TD*%
%TA.AperFunction,ComponentPad*%
%ADD11C,0.700000*%
%TD*%
%TA.AperFunction,ComponentPad*%
%ADD12O,2.400000X0.900000*%
%TD*%
%TA.AperFunction,ComponentPad*%
%ADD13O,1.700000X0.900000*%
%TD*%
%TA.AperFunction,ComponentPad*%
%ADD14R,1.700000X1.700000*%
%TD*%
%TA.AperFunction,ComponentPad*%
%ADD15C,1.700000*%
%TD*%
%TA.AperFunction,ViaPad*%
%ADD16C,0.685800*%
%TD*%
%TA.AperFunction,ViaPad*%
%ADD17C,0.889000*%
%TD*%
%TA.AperFunction,ViaPad*%
%ADD18C,0.600000*%
%TD*%
G04 APERTURE END LIST*
D10*
%TO.N,DGND*%
%TO.C,U4*%
X99750000Y-53510000D03*
X98650000Y-53510000D03*
X100300000Y-54060000D03*
X99200000Y-54060000D03*
X98100000Y-54060000D03*
X99750000Y-54610000D03*
X98650000Y-54610000D03*
X100300000Y-55160000D03*
X99200000Y-55160000D03*
X98100000Y-55160000D03*
X99750000Y-55710000D03*
X98650000Y-55710000D03*
%TD*%
D11*
%TO.N,N/C*%
%TO.C,J1*%
X17500000Y-40420000D03*
X17500000Y-41270000D03*
%TO.N,Net-(J1-CC1)*%
X17500000Y-42120000D03*
%TO.N,N/C*%
X17500000Y-42970000D03*
X17500000Y-43820000D03*
X17500000Y-44670000D03*
%TO.N,Net-(U_IP1-USB+)*%
X17500000Y-45520000D03*
%TO.N,Net-(U_IP1-USB_GND)*%
X17500000Y-46370000D03*
%TO.N,N/C*%
X16150000Y-46370000D03*
X16150000Y-45520000D03*
%TO.N,Net-(J1-CC2)*%
X16150000Y-44670000D03*
%TO.N,N/C*%
X16150000Y-43820000D03*
X16150000Y-42970000D03*
X16150000Y-42120000D03*
%TO.N,Net-(U_IP1-USB+)*%
X16150000Y-41270000D03*
%TO.N,Net-(U_IP1-USB_GND)*%
X16150000Y-40420000D03*
D12*
%TO.N,unconnected-(J1-SHIELD-PadSH)_3*%
X16520000Y-39070000D03*
D13*
%TO.N,unconnected-(J1-SHIELD-PadSH)_2*%
X13140000Y-39070000D03*
D12*
%TO.N,unconnected-(J1-SHIELD-PadSH)*%
X16520000Y-47720000D03*
D13*
%TO.N,unconnected-(J1-SHIELD-PadSH)_1*%
X13140000Y-47720000D03*
%TD*%
D14*
%TO.N,/BIAS_DRV*%
%TO.C,P3*%
X64800000Y-74960000D03*
D15*
%TO.N,/SRB_REF*%
X64800000Y-77500000D03*
%TO.N,Net-(P3-P3)*%
X64800000Y-80040000D03*
%TO.N,Net-(P3-P4)*%
X64800000Y-82580000D03*
%TO.N,Net-(P3-P5)*%
X64800000Y-85120000D03*
%TO.N,Net-(P3-P6)*%
X64800000Y-87660000D03*
%TO.N,Net-(P3-P7)*%
X64800000Y-90200000D03*
%TO.N,Net-(P3-P8)*%
X64800000Y-92740000D03*
%TO.N,Net-(P3-P9)*%
X64800000Y-95280000D03*
%TO.N,Net-(P3-P10)*%
X64800000Y-97820000D03*
%TD*%
D14*
%TO.N,/EEG_REF*%
%TO.C,J_REF1*%
X23900000Y-97500000D03*
%TD*%
%TO.N,/BIAS_DRV*%
%TO.C,P1*%
X15900000Y-74775000D03*
D15*
%TO.N,/SRB_REF*%
X15900000Y-77315000D03*
%TO.N,Net-(P1-P3)*%
X15900000Y-79855000D03*
%TO.N,Net-(P1-P4)*%
X15900000Y-82395000D03*
%TO.N,Net-(P1-P5)*%
X15900000Y-84935000D03*
%TO.N,Net-(P1-P6)*%
X15900000Y-87475000D03*
%TO.N,Net-(P1-P7)*%
X15900000Y-90015000D03*
%TO.N,Net-(P1-P8)*%
X15900000Y-92555000D03*
%TO.N,Net-(P1-P9)*%
X15900000Y-95095000D03*
%TO.N,Net-(P1-P10)*%
X15900000Y-97635000D03*
%TD*%
D14*
%TO.N,/BIAS_DRV*%
%TO.C,P2*%
X40280000Y-74885000D03*
D15*
%TO.N,/SRB_REF*%
X40280000Y-77425000D03*
%TO.N,Net-(P2-P3)*%
X40280000Y-79965000D03*
%TO.N,Net-(P2-P4)*%
X40280000Y-82505000D03*
%TO.N,Net-(P2-P5)*%
X40280000Y-85045000D03*
%TO.N,Net-(P2-P6)*%
X40280000Y-87585000D03*
%TO.N,Net-(P2-P7)*%
X40280000Y-90125000D03*
%TO.N,Net-(P2-P8)*%
X40280000Y-92665000D03*
%TO.N,Net-(P2-P9)*%
X40280000Y-95205000D03*
%TO.N,Net-(P2-P10)*%
X40280000Y-97745000D03*
%TD*%
D14*
%TO.N,/BIAS_DRV*%
%TO.C,J_BIAS1*%
X26100000Y-75660000D03*
%TD*%
D16*
%TO.N,AGND*%
X45800000Y-92700000D03*
X45820584Y-94035800D03*
X45897375Y-91391500D03*
X19425000Y-83876807D03*
X54700000Y-83300000D03*
X40400000Y-44100000D03*
X29100000Y-99780100D03*
X21200000Y-82200000D03*
X19287380Y-88795335D03*
X82074684Y-78592757D03*
X45860111Y-85880100D03*
X45826179Y-88719900D03*
X79400000Y-80200000D03*
X58400000Y-80300000D03*
X46100000Y-83200000D03*
X70500000Y-89400000D03*
X70342688Y-84163680D03*
X70242900Y-85519857D03*
X83133737Y-79527327D03*
X71400000Y-93500000D03*
X45829568Y-84485643D03*
X70400000Y-91300000D03*
X21200000Y-93600000D03*
X45950105Y-90055700D03*
X19535226Y-90551960D03*
D17*
X33685909Y-89990779D03*
X28305923Y-79865955D03*
X32000000Y-78500000D03*
D16*
X78800000Y-79100000D03*
X70500000Y-82300000D03*
X59594643Y-91273692D03*
X54700000Y-79600000D03*
X19540628Y-85780919D03*
X45900000Y-87308177D03*
X70472543Y-86824401D03*
X70425781Y-88164201D03*
X19274642Y-92175258D03*
D18*
%TO.N,AVDD*%
X32500000Y-41800000D03*
X56700000Y-83400000D03*
X30000000Y-41800000D03*
X39100000Y-40400000D03*
X55800000Y-83300000D03*
D17*
X28363929Y-82523655D03*
D18*
X78456696Y-82496798D03*
X53700000Y-83300000D03*
X53490616Y-94746886D03*
X52290664Y-94646903D03*
X76869037Y-93805218D03*
D17*
X29889802Y-82506526D03*
D18*
X80277000Y-82500000D03*
X21900000Y-41300000D03*
X26735500Y-91174497D03*
X78465043Y-91465138D03*
X78953864Y-93836134D03*
X54393550Y-94571925D03*
X81122467Y-82479891D03*
X28167789Y-91188702D03*
X29900000Y-97800000D03*
X77972510Y-93755101D03*
D16*
%TO.N,AVSS*%
X76100000Y-96100000D03*
X51700000Y-96600000D03*
X59600000Y-100200000D03*
X37100000Y-100000000D03*
D18*
%TO.N,DVDD*%
X41845405Y-68845405D03*
X86009456Y-83027757D03*
X59500000Y-77300000D03*
X32500000Y-83100000D03*
X34700000Y-82300000D03*
X87506909Y-89421771D03*
X52200000Y-73400000D03*
X91800000Y-82100000D03*
X60013992Y-83210751D03*
X84570916Y-79786243D03*
%TO.N,/RESET*%
X62003702Y-92085832D03*
X84096990Y-89707567D03*
X58599738Y-90000262D03*
X90614187Y-88751180D03*
X37125553Y-89608000D03*
X88263737Y-89034841D03*
%TO.N,/SPI_MISO*%
X36594919Y-85205402D03*
X38000000Y-83100000D03*
%TO.N,/CS*%
X59863020Y-88497603D03*
X62946424Y-88290137D03*
X36966337Y-87815104D03*
X82576727Y-87640030D03*
D16*
%TO.N,DGND*%
X93400000Y-46300000D03*
X33700000Y-85700000D03*
X57400000Y-86980100D03*
X37034578Y-84062965D03*
X58900000Y-86400000D03*
X60800000Y-81700000D03*
X62000000Y-80500000D03*
X57600000Y-83300000D03*
X31900000Y-85700000D03*
X79900000Y-72400000D03*
X98500000Y-52500000D03*
D18*
%TO.N,/START*%
X89810243Y-87530498D03*
X88008620Y-88151196D03*
X83902955Y-88353567D03*
X63121874Y-89148436D03*
%TO.N,/SCLK*%
X63080205Y-87497724D03*
X91000000Y-90300000D03*
X59400000Y-87700000D03*
X37040550Y-86915000D03*
X83900000Y-86951890D03*
%TO.N,/BIAS_DRV*%
X56700000Y-76000000D03*
%TO.N,/SRB_REF*%
X37515217Y-98613290D03*
%TO.N,/EEG_REF*%
X25887234Y-91287393D03*
X52100000Y-92000000D03*
X76400000Y-91300000D03*
%TO.N,/MASTER_CLK*%
X37828520Y-88867768D03*
X62428088Y-89550072D03*
X83420594Y-89053448D03*
X59644363Y-89319000D03*
%TO.N,/DAISY_U3*%
X84260519Y-85547890D03*
X62343269Y-86618173D03*
%TO.N,/DAISY_U2*%
X59818839Y-86258901D03*
X36682526Y-86160050D03*
%TD*%
%TA.AperFunction,Conductor*%
%TO.N,AVDD*%
G36*
X119342539Y-10932685D02*
G01*
X119388294Y-10985489D01*
X119399500Y-11037000D01*
X119399500Y-101975500D01*
X119379815Y-102042539D01*
X119327011Y-102088294D01*
X119275500Y-102099500D01*
X11824500Y-102099500D01*
X11757461Y-102079815D01*
X11711706Y-102027011D01*
X11700500Y-101975500D01*
X11700500Y-99697027D01*
X28256600Y-99697027D01*
X28256600Y-99863172D01*
X28289009Y-100026103D01*
X28289012Y-100026115D01*
X28352584Y-100179593D01*
X28352591Y-100179606D01*
X28444887Y-100317735D01*
X28444890Y-100317739D01*
X28562360Y-100435209D01*
X28562364Y-100435212D01*
X28700493Y-100527508D01*
X28700506Y-100527515D01*
X28853984Y-100591087D01*
X28853989Y-100591089D01*
X29016927Y-100623499D01*
X29016931Y-100623500D01*
X29016932Y-100623500D01*
X29183069Y-100623500D01*
X29183070Y-100623499D01*
X29346011Y-100591089D01*
X29499500Y-100527512D01*
X29637636Y-100435212D01*
X29755112Y-100317736D01*
X29847412Y-100179600D01*
X29910989Y-100026111D01*
X29932707Y-99916927D01*
X36256600Y-99916927D01*
X36256600Y-100083072D01*
X36289009Y-100246003D01*
X36289012Y-100246015D01*
X36352584Y-100399493D01*
X36352591Y-100399506D01*
X36444887Y-100537635D01*
X36444890Y-100537639D01*
X36562360Y-100655109D01*
X36562364Y-100655112D01*
X36700493Y-100747408D01*
X36700506Y-100747415D01*
X36853984Y-100810987D01*
X36853989Y-100810989D01*
X37016927Y-100843399D01*
X37016931Y-100843400D01*
X37016932Y-100843400D01*
X37183069Y-100843400D01*
X37183070Y-100843399D01*
X37346011Y-100810989D01*
X37499500Y-100747412D01*
X37637636Y-100655112D01*
X37755112Y-100537636D01*
X37847412Y-100399500D01*
X37910989Y-100246011D01*
X37936665Y-100116927D01*
X58756600Y-100116927D01*
X58756600Y-100283072D01*
X58789009Y-100446003D01*
X58789012Y-100446015D01*
X58852584Y-100599493D01*
X58852591Y-100599506D01*
X58944887Y-100737635D01*
X58944890Y-100737639D01*
X59062360Y-100855109D01*
X59062364Y-100855112D01*
X59200493Y-100947408D01*
X59200506Y-100947415D01*
X59353984Y-101010987D01*
X59353989Y-101010989D01*
X59516927Y-101043399D01*
X59516931Y-101043400D01*
X59516932Y-101043400D01*
X59683069Y-101043400D01*
X59683070Y-101043399D01*
X59846011Y-101010989D01*
X59999500Y-100947412D01*
X60137636Y-100855112D01*
X60255112Y-100737636D01*
X60347412Y-100599500D01*
X60410989Y-100446011D01*
X60443400Y-100283068D01*
X60443400Y-100116932D01*
X60410989Y-99953989D01*
X60395639Y-99916931D01*
X60347415Y-99800506D01*
X60347408Y-99800493D01*
X60255112Y-99662364D01*
X60255109Y-99662360D01*
X60137639Y-99544890D01*
X60137635Y-99544887D01*
X59999506Y-99452591D01*
X59999493Y-99452584D01*
X59846015Y-99389012D01*
X59846003Y-99389009D01*
X59683072Y-99356600D01*
X59683068Y-99356600D01*
X59516932Y-99356600D01*
X59516927Y-99356600D01*
X59353996Y-99389009D01*
X59353984Y-99389012D01*
X59200506Y-99452584D01*
X59200493Y-99452591D01*
X59062364Y-99544887D01*
X59062360Y-99544890D01*
X58944890Y-99662360D01*
X58944887Y-99662364D01*
X58852591Y-99800493D01*
X58852584Y-99800506D01*
X58789012Y-99953984D01*
X58789009Y-99953996D01*
X58756600Y-100116927D01*
X37936665Y-100116927D01*
X37943400Y-100083068D01*
X37943400Y-99916932D01*
X37910989Y-99753989D01*
X37887397Y-99697032D01*
X37847415Y-99600506D01*
X37847411Y-99600499D01*
X37810254Y-99544890D01*
X37796148Y-99523778D01*
X37775271Y-99457103D01*
X37793755Y-99389723D01*
X37845734Y-99343032D01*
X37851777Y-99340336D01*
X37894396Y-99322684D01*
X38025506Y-99235079D01*
X38137006Y-99123579D01*
X38224611Y-98992469D01*
X38284954Y-98846787D01*
X38315717Y-98692132D01*
X38315717Y-98534448D01*
X38315717Y-98534445D01*
X38315716Y-98534443D01*
X38311806Y-98514786D01*
X38284954Y-98379793D01*
X38284952Y-98379788D01*
X38224614Y-98234117D01*
X38224607Y-98234104D01*
X38137006Y-98103001D01*
X38137003Y-98102997D01*
X38025509Y-97991503D01*
X38025505Y-97991500D01*
X37894402Y-97903899D01*
X37894389Y-97903892D01*
X37748718Y-97843554D01*
X37748706Y-97843551D01*
X37594062Y-97812790D01*
X37594059Y-97812790D01*
X37436375Y-97812790D01*
X37436372Y-97812790D01*
X37281727Y-97843551D01*
X37281715Y-97843554D01*
X37136044Y-97903892D01*
X37136031Y-97903899D01*
X37004928Y-97991500D01*
X37004924Y-97991503D01*
X36893430Y-98102997D01*
X36893427Y-98103001D01*
X36805826Y-98234104D01*
X36805819Y-98234117D01*
X36745481Y-98379788D01*
X36745478Y-98379800D01*
X36714717Y-98534443D01*
X36714717Y-98692136D01*
X36745478Y-98846779D01*
X36745481Y-98846791D01*
X36805819Y-98992462D01*
X36805826Y-98992475D01*
X36835177Y-99036401D01*
X36856055Y-99103078D01*
X36837571Y-99170458D01*
X36785592Y-99217149D01*
X36779528Y-99219853D01*
X36700503Y-99252586D01*
X36700493Y-99252591D01*
X36562364Y-99344887D01*
X36562360Y-99344890D01*
X36444890Y-99462360D01*
X36444887Y-99462364D01*
X36352591Y-99600493D01*
X36352584Y-99600506D01*
X36289012Y-99753984D01*
X36289009Y-99753996D01*
X36256600Y-99916927D01*
X29932707Y-99916927D01*
X29943400Y-99863168D01*
X29943400Y-99697032D01*
X29910989Y-99534089D01*
X29881278Y-99462360D01*
X29847415Y-99380606D01*
X29847408Y-99380593D01*
X29755112Y-99242464D01*
X29755109Y-99242460D01*
X29637639Y-99124990D01*
X29637635Y-99124987D01*
X29499506Y-99032691D01*
X29499493Y-99032684D01*
X29346015Y-98969112D01*
X29346003Y-98969109D01*
X29183072Y-98936700D01*
X29183068Y-98936700D01*
X29016932Y-98936700D01*
X29016927Y-98936700D01*
X28853996Y-98969109D01*
X28853984Y-98969112D01*
X28700506Y-99032684D01*
X28700493Y-99032691D01*
X28562364Y-99124987D01*
X28562360Y-99124990D01*
X28444890Y-99242460D01*
X28444887Y-99242464D01*
X28352591Y-99380593D01*
X28352584Y-99380606D01*
X28289012Y-99534084D01*
X28289009Y-99534096D01*
X28256600Y-99697027D01*
X11700500Y-99697027D01*
X11700500Y-73877135D01*
X14549500Y-73877135D01*
X14549500Y-75672870D01*
X14549501Y-75672876D01*
X14555908Y-75732483D01*
X14606202Y-75867328D01*
X14606206Y-75867335D01*
X14692452Y-75982544D01*
X14692455Y-75982547D01*
X14807664Y-76068793D01*
X14807671Y-76068797D01*
X14939082Y-76117810D01*
X14995016Y-76159681D01*
X15019433Y-76225145D01*
X15004582Y-76293418D01*
X14983431Y-76321673D01*
X14869889Y-76435215D01*
X14744951Y-76607179D01*
X14648444Y-76796585D01*
X14582753Y-76998760D01*
X14565331Y-77108759D01*
X14549500Y-77208713D01*
X14549500Y-77421287D01*
X14582754Y-77631243D01*
X14642864Y-77816243D01*
X14648444Y-77833414D01*
X14744951Y-78022820D01*
X14869890Y-78194786D01*
X15020213Y-78345109D01*
X15192182Y-78470050D01*
X15200946Y-78474516D01*
X15251742Y-78522491D01*
X15268536Y-78590312D01*
X15245998Y-78656447D01*
X15200946Y-78695484D01*
X15192182Y-78699949D01*
X15020213Y-78824890D01*
X14869890Y-78975213D01*
X14744951Y-79147179D01*
X14648444Y-79336585D01*
X14648443Y-79336587D01*
X14648443Y-79336588D01*
X14645384Y-79346003D01*
X14582753Y-79538760D01*
X14549500Y-79748713D01*
X14549500Y-79961286D01*
X14577801Y-80139975D01*
X14582754Y-80171243D01*
X14647570Y-80370726D01*
X14648444Y-80373414D01*
X14744951Y-80562820D01*
X14869890Y-80734786D01*
X15020213Y-80885109D01*
X15192182Y-81010050D01*
X15200946Y-81014516D01*
X15251742Y-81062491D01*
X15268536Y-81130312D01*
X15245998Y-81196447D01*
X15200946Y-81235484D01*
X15192182Y-81239949D01*
X15020213Y-81364890D01*
X14869890Y-81515213D01*
X14744951Y-81687179D01*
X14648444Y-81876585D01*
X14648443Y-81876587D01*
X14648443Y-81876588D01*
X14615598Y-81977672D01*
X14582753Y-82078760D01*
X14560200Y-82221155D01*
X14549500Y-82288713D01*
X14549500Y-82501287D01*
X14549511Y-82501357D01*
X14581045Y-82700458D01*
X14582754Y-82711243D01*
X14644247Y-82900499D01*
X14648444Y-82913414D01*
X14744951Y-83102820D01*
X14869890Y-83274786D01*
X15020213Y-83425109D01*
X15192182Y-83550050D01*
X15200946Y-83554516D01*
X15251742Y-83602491D01*
X15268536Y-83670312D01*
X15245998Y-83736447D01*
X15200946Y-83775484D01*
X15192182Y-83779949D01*
X15020213Y-83904890D01*
X14869890Y-84055213D01*
X14744951Y-84227179D01*
X14648444Y-84416585D01*
X14582753Y-84618760D01*
X14549500Y-84828713D01*
X14549500Y-85041286D01*
X14581492Y-85243279D01*
X14582754Y-85251243D01*
X14643727Y-85438899D01*
X14648444Y-85453414D01*
X14744951Y-85642820D01*
X14869890Y-85814786D01*
X15020213Y-85965109D01*
X15192182Y-86090050D01*
X15200946Y-86094516D01*
X15251742Y-86142491D01*
X15268536Y-86210312D01*
X15245998Y-86276447D01*
X15200946Y-86315484D01*
X15192182Y-86319949D01*
X15020213Y-86444890D01*
X14869890Y-86595213D01*
X14744951Y-86767179D01*
X14648444Y-86956585D01*
X14582753Y-87158760D01*
X14549500Y-87368713D01*
X14549500Y-87581286D01*
X14582729Y-87791090D01*
X14582754Y-87791243D01*
X14647131Y-87989375D01*
X14648444Y-87993414D01*
X14744951Y-88182820D01*
X14869890Y-88354786D01*
X15020213Y-88505109D01*
X15192182Y-88630050D01*
X15200946Y-88634516D01*
X15251742Y-88682491D01*
X15268536Y-88750312D01*
X15245998Y-88816447D01*
X15200946Y-88855484D01*
X15192182Y-88859949D01*
X15020213Y-88984890D01*
X14869890Y-89135213D01*
X14744951Y-89307179D01*
X14648444Y-89496585D01*
X14582753Y-89698760D01*
X14549500Y-89908713D01*
X14549500Y-90121287D01*
X14553637Y-90147408D01*
X14582454Y-90329353D01*
X14582754Y-90331243D01*
X14647419Y-90530261D01*
X14648444Y-90533414D01*
X14744951Y-90722820D01*
X14869890Y-90894786D01*
X15020213Y-91045109D01*
X15192182Y-91170050D01*
X15200946Y-91174516D01*
X15251742Y-91222491D01*
X15268536Y-91290312D01*
X15245998Y-91356447D01*
X15200946Y-91395484D01*
X15192182Y-91399949D01*
X15020213Y-91524890D01*
X14869890Y-91675213D01*
X14744951Y-91847179D01*
X14648444Y-92036585D01*
X14582753Y-92238760D01*
X14549500Y-92448713D01*
X14549500Y-92661286D01*
X14580271Y-92855570D01*
X14582754Y-92871243D01*
X14644853Y-93062364D01*
X14648444Y-93073414D01*
X14744951Y-93262820D01*
X14869890Y-93434786D01*
X15020213Y-93585109D01*
X15192182Y-93710050D01*
X15200946Y-93714516D01*
X15251742Y-93762491D01*
X15268536Y-93830312D01*
X15245998Y-93896447D01*
X15200946Y-93935484D01*
X15192182Y-93939949D01*
X15020213Y-94064890D01*
X14869890Y-94215213D01*
X14744951Y-94387179D01*
X14648444Y-94576585D01*
X14582753Y-94778760D01*
X14565331Y-94888760D01*
X14549500Y-94988713D01*
X14549500Y-95201287D01*
X14582754Y-95411243D01*
X14642864Y-95596243D01*
X14648444Y-95613414D01*
X14744951Y-95802820D01*
X14869890Y-95974786D01*
X15020213Y-96125109D01*
X15192182Y-96250050D01*
X15200946Y-96254516D01*
X15251742Y-96302491D01*
X15268536Y-96370312D01*
X15245998Y-96436447D01*
X15200946Y-96475484D01*
X15192182Y-96479949D01*
X15020213Y-96604890D01*
X14869890Y-96755213D01*
X14744951Y-96927179D01*
X14648444Y-97116585D01*
X14582753Y-97318760D01*
X14563012Y-97443400D01*
X14549500Y-97528713D01*
X14549500Y-97741287D01*
X14582754Y-97951243D01*
X14642864Y-98136243D01*
X14648444Y-98153414D01*
X14744951Y-98342820D01*
X14869890Y-98514786D01*
X15020213Y-98665109D01*
X15192179Y-98790048D01*
X15192181Y-98790049D01*
X15192184Y-98790051D01*
X15381588Y-98886557D01*
X15583757Y-98952246D01*
X15793713Y-98985500D01*
X15793714Y-98985500D01*
X16006286Y-98985500D01*
X16006287Y-98985500D01*
X16216243Y-98952246D01*
X16418412Y-98886557D01*
X16607816Y-98790051D01*
X16721374Y-98707547D01*
X16779786Y-98665109D01*
X16779788Y-98665106D01*
X16779792Y-98665104D01*
X16930104Y-98514792D01*
X16930106Y-98514788D01*
X16930109Y-98514786D01*
X17055048Y-98342820D01*
X17055047Y-98342820D01*
X17055051Y-98342816D01*
X17151557Y-98153412D01*
X17217246Y-97951243D01*
X17250500Y-97741287D01*
X17250500Y-97528713D01*
X17217246Y-97318757D01*
X17151557Y-97116588D01*
X17055051Y-96927184D01*
X17055049Y-96927181D01*
X17055048Y-96927179D01*
X16930109Y-96755213D01*
X16779786Y-96604890D01*
X16775994Y-96602135D01*
X22549500Y-96602135D01*
X22549500Y-98397870D01*
X22549501Y-98397876D01*
X22555908Y-98457483D01*
X22606202Y-98592328D01*
X22606206Y-98592335D01*
X22692452Y-98707544D01*
X22692455Y-98707547D01*
X22807664Y-98793793D01*
X22807671Y-98793797D01*
X22942517Y-98844091D01*
X22942516Y-98844091D01*
X22949444Y-98844835D01*
X23002127Y-98850500D01*
X24797872Y-98850499D01*
X24857483Y-98844091D01*
X24992331Y-98793796D01*
X25107546Y-98707546D01*
X25193796Y-98592331D01*
X25244091Y-98457483D01*
X25250500Y-98397873D01*
X25250499Y-96602128D01*
X25244895Y-96550000D01*
X25244091Y-96542516D01*
X25193797Y-96407671D01*
X25193793Y-96407664D01*
X25107547Y-96292455D01*
X25107544Y-96292452D01*
X24992335Y-96206206D01*
X24992328Y-96206202D01*
X24857482Y-96155908D01*
X24857483Y-96155908D01*
X24797883Y-96149501D01*
X24797881Y-96149500D01*
X24797873Y-96149500D01*
X24797864Y-96149500D01*
X23002129Y-96149500D01*
X23002123Y-96149501D01*
X22942516Y-96155908D01*
X22807671Y-96206202D01*
X22807664Y-96206206D01*
X22692455Y-96292452D01*
X22692452Y-96292455D01*
X22606206Y-96407664D01*
X22606202Y-96407671D01*
X22555908Y-96542517D01*
X22552026Y-96578631D01*
X22549501Y-96602123D01*
X22549500Y-96602135D01*
X16775994Y-96602135D01*
X16607820Y-96479951D01*
X16605082Y-96478556D01*
X16599054Y-96475485D01*
X16548259Y-96427512D01*
X16531463Y-96359692D01*
X16553999Y-96293556D01*
X16599054Y-96254515D01*
X16607816Y-96250051D01*
X16668167Y-96206204D01*
X16779786Y-96125109D01*
X16779788Y-96125106D01*
X16779792Y-96125104D01*
X16930104Y-95974792D01*
X16930106Y-95974788D01*
X16930109Y-95974786D01*
X17055048Y-95802820D01*
X17055047Y-95802820D01*
X17055051Y-95802816D01*
X17151557Y-95613412D01*
X17217246Y-95411243D01*
X17250500Y-95201287D01*
X17250500Y-94988713D01*
X17217246Y-94778757D01*
X17151557Y-94576588D01*
X17055051Y-94387184D01*
X17055049Y-94387181D01*
X17055048Y-94387179D01*
X16930109Y-94215213D01*
X16779786Y-94064890D01*
X16607820Y-93939951D01*
X16605082Y-93938556D01*
X16599054Y-93935485D01*
X16548259Y-93887512D01*
X16531463Y-93819692D01*
X16553999Y-93753556D01*
X16599054Y-93714515D01*
X16607816Y-93710051D01*
X16709318Y-93636306D01*
X16779786Y-93585109D01*
X16779788Y-93585106D01*
X16779792Y-93585104D01*
X16847969Y-93516927D01*
X20356600Y-93516927D01*
X20356600Y-93683072D01*
X20389009Y-93846003D01*
X20389012Y-93846015D01*
X20452584Y-93999493D01*
X20452591Y-93999506D01*
X20544887Y-94137635D01*
X20544890Y-94137639D01*
X20662360Y-94255109D01*
X20662364Y-94255112D01*
X20800493Y-94347408D01*
X20800506Y-94347415D01*
X20896506Y-94387179D01*
X20953989Y-94410989D01*
X21116927Y-94443399D01*
X21116931Y-94443400D01*
X21116932Y-94443400D01*
X21283069Y-94443400D01*
X21283070Y-94443399D01*
X21446011Y-94410989D01*
X21599500Y-94347412D01*
X21737636Y-94255112D01*
X21855112Y-94137636D01*
X21947412Y-93999500D01*
X21948236Y-93997512D01*
X21981768Y-93916557D01*
X22010989Y-93846011D01*
X22043400Y-93683068D01*
X22043400Y-93516932D01*
X22010989Y-93353989D01*
X21969566Y-93253984D01*
X21947415Y-93200506D01*
X21947408Y-93200493D01*
X21855112Y-93062364D01*
X21855109Y-93062360D01*
X21737639Y-92944890D01*
X21737635Y-92944887D01*
X21599506Y-92852591D01*
X21599493Y-92852584D01*
X21446015Y-92789012D01*
X21446003Y-92789009D01*
X21283072Y-92756600D01*
X21283068Y-92756600D01*
X21116932Y-92756600D01*
X21116927Y-92756600D01*
X20953996Y-92789009D01*
X20953984Y-92789012D01*
X20800506Y-92852584D01*
X20800493Y-92852591D01*
X20662364Y-92944887D01*
X20662360Y-92944890D01*
X20544890Y-93062360D01*
X20544887Y-93062364D01*
X20452591Y-93200493D01*
X20452584Y-93200506D01*
X20389012Y-93353984D01*
X20389009Y-93353996D01*
X20356600Y-93516927D01*
X16847969Y-93516927D01*
X16930104Y-93434792D01*
X17055051Y-93262816D01*
X17151557Y-93073412D01*
X17217246Y-92871243D01*
X17250500Y-92661287D01*
X17250500Y-92448713D01*
X17217246Y-92238757D01*
X17169622Y-92092185D01*
X18431242Y-92092185D01*
X18431242Y-92258330D01*
X18463651Y-92421261D01*
X18463654Y-92421273D01*
X18527226Y-92574751D01*
X18527233Y-92574764D01*
X18619529Y-92712893D01*
X18619532Y-92712897D01*
X18737002Y-92830367D01*
X18737006Y-92830370D01*
X18875135Y-92922666D01*
X18875148Y-92922673D01*
X19016550Y-92981243D01*
X19028631Y-92986247D01*
X19191569Y-93018657D01*
X19191573Y-93018658D01*
X19191574Y-93018658D01*
X19357711Y-93018658D01*
X19357712Y-93018657D01*
X19520653Y-92986247D01*
X19674142Y-92922670D01*
X19812278Y-92830370D01*
X19929754Y-92712894D01*
X20022054Y-92574758D01*
X20085631Y-92421269D01*
X20118042Y-92258326D01*
X20118042Y-92092190D01*
X20085631Y-91929247D01*
X20085446Y-91928801D01*
X20022057Y-91775764D01*
X20022050Y-91775751D01*
X19929754Y-91637622D01*
X19929751Y-91637618D01*
X19823256Y-91531123D01*
X19789771Y-91469800D01*
X19794755Y-91400108D01*
X19836627Y-91344175D01*
X19863485Y-91328881D01*
X19934719Y-91299375D01*
X19934719Y-91299374D01*
X19934726Y-91299372D01*
X20070656Y-91208546D01*
X25086734Y-91208546D01*
X25086734Y-91366239D01*
X25117495Y-91520882D01*
X25117498Y-91520894D01*
X25177836Y-91666565D01*
X25177843Y-91666578D01*
X25265444Y-91797681D01*
X25265447Y-91797685D01*
X25376941Y-91909179D01*
X25376945Y-91909182D01*
X25508048Y-91996783D01*
X25508061Y-91996790D01*
X25630618Y-92047554D01*
X25653737Y-92057130D01*
X25793466Y-92084924D01*
X25808387Y-92087892D01*
X25808390Y-92087893D01*
X25808392Y-92087893D01*
X25966078Y-92087893D01*
X25966079Y-92087892D01*
X26120731Y-92057130D01*
X26241793Y-92006985D01*
X26266406Y-91996790D01*
X26266406Y-91996789D01*
X26266413Y-91996787D01*
X26397523Y-91909182D01*
X26509023Y-91797682D01*
X26596628Y-91666572D01*
X26656971Y-91520890D01*
X26687734Y-91366235D01*
X26687734Y-91208551D01*
X26687734Y-91208548D01*
X26687733Y-91208546D01*
X26680964Y-91174516D01*
X26656971Y-91053896D01*
X26653329Y-91045104D01*
X26596631Y-90908220D01*
X26596624Y-90908207D01*
X26509023Y-90777104D01*
X26509020Y-90777100D01*
X26397526Y-90665606D01*
X26397522Y-90665603D01*
X26266419Y-90578002D01*
X26266406Y-90577995D01*
X26120735Y-90517657D01*
X26120723Y-90517654D01*
X25966079Y-90486893D01*
X25966076Y-90486893D01*
X25808392Y-90486893D01*
X25808389Y-90486893D01*
X25653744Y-90517654D01*
X25653732Y-90517657D01*
X25508061Y-90577995D01*
X25508048Y-90578002D01*
X25376945Y-90665603D01*
X25376941Y-90665606D01*
X25265447Y-90777100D01*
X25265444Y-90777104D01*
X25177843Y-90908207D01*
X25177836Y-90908220D01*
X25117498Y-91053891D01*
X25117495Y-91053903D01*
X25086734Y-91208546D01*
X20070656Y-91208546D01*
X20072862Y-91207072D01*
X20109886Y-91170048D01*
X20165157Y-91114778D01*
X20190335Y-91089599D01*
X20190338Y-91089596D01*
X20282638Y-90951460D01*
X20346215Y-90797971D01*
X20378626Y-90635028D01*
X20378626Y-90468892D01*
X20346215Y-90305949D01*
X20329844Y-90266425D01*
X20282641Y-90152466D01*
X20282634Y-90152453D01*
X20190338Y-90014324D01*
X20190335Y-90014320D01*
X20073715Y-89897700D01*
X32740909Y-89897700D01*
X32740909Y-90083857D01*
X32777223Y-90266417D01*
X32777225Y-90266425D01*
X32848459Y-90438401D01*
X32848464Y-90438410D01*
X32951879Y-90593180D01*
X32951882Y-90593184D01*
X33083503Y-90724805D01*
X33083507Y-90724808D01*
X33238277Y-90828223D01*
X33238283Y-90828226D01*
X33238284Y-90828227D01*
X33410263Y-90899463D01*
X33592830Y-90935778D01*
X33592833Y-90935779D01*
X33592835Y-90935779D01*
X33778985Y-90935779D01*
X33778986Y-90935778D01*
X33961555Y-90899463D01*
X34133534Y-90828227D01*
X34288311Y-90724808D01*
X34419938Y-90593181D01*
X34523357Y-90438404D01*
X34594593Y-90266425D01*
X34630909Y-90083853D01*
X34630909Y-89897705D01*
X34630909Y-89897702D01*
X34630908Y-89897700D01*
X34620894Y-89847356D01*
X34594593Y-89715133D01*
X34524177Y-89545133D01*
X34523358Y-89543156D01*
X34523353Y-89543147D01*
X34419938Y-89388377D01*
X34419935Y-89388373D01*
X34288314Y-89256752D01*
X34288310Y-89256749D01*
X34133540Y-89153334D01*
X34133531Y-89153329D01*
X33961555Y-89082095D01*
X33961547Y-89082093D01*
X33778986Y-89045779D01*
X33778983Y-89045779D01*
X33592835Y-89045779D01*
X33592832Y-89045779D01*
X33410270Y-89082093D01*
X33410262Y-89082095D01*
X33238286Y-89153329D01*
X33238277Y-89153334D01*
X33083507Y-89256749D01*
X33083503Y-89256752D01*
X32951882Y-89388373D01*
X32951879Y-89388377D01*
X32848464Y-89543147D01*
X32848459Y-89543156D01*
X32777225Y-89715132D01*
X32777223Y-89715140D01*
X32740909Y-89897700D01*
X20073715Y-89897700D01*
X20072865Y-89896850D01*
X20072861Y-89896847D01*
X19934732Y-89804551D01*
X19934719Y-89804544D01*
X19781241Y-89740972D01*
X19781231Y-89740969D01*
X19773527Y-89739437D01*
X19711616Y-89707052D01*
X19677042Y-89646336D01*
X19680783Y-89576566D01*
X19721649Y-89519895D01*
X19728828Y-89514718D01*
X19766489Y-89489554D01*
X19825016Y-89450447D01*
X19942492Y-89332971D01*
X20034792Y-89194835D01*
X20098369Y-89041346D01*
X20130780Y-88878403D01*
X20130780Y-88712267D01*
X20098369Y-88549324D01*
X20088108Y-88524552D01*
X20034795Y-88395841D01*
X20034788Y-88395828D01*
X19942492Y-88257699D01*
X19942489Y-88257695D01*
X19825019Y-88140225D01*
X19825015Y-88140222D01*
X19686886Y-88047926D01*
X19686873Y-88047919D01*
X19533395Y-87984347D01*
X19533383Y-87984344D01*
X19370452Y-87951935D01*
X19370448Y-87951935D01*
X19204312Y-87951935D01*
X19204307Y-87951935D01*
X19041376Y-87984344D01*
X19041364Y-87984347D01*
X18887886Y-88047919D01*
X18887873Y-88047926D01*
X18749744Y-88140222D01*
X18749740Y-88140225D01*
X18632270Y-88257695D01*
X18632267Y-88257699D01*
X18539971Y-88395828D01*
X18539964Y-88395841D01*
X18476392Y-88549319D01*
X18476389Y-88549331D01*
X18443980Y-88712262D01*
X18443980Y-88878407D01*
X18476389Y-89041338D01*
X18476392Y-89041350D01*
X18539964Y-89194828D01*
X18539971Y-89194841D01*
X18632267Y-89332970D01*
X18632270Y-89332974D01*
X18749740Y-89450444D01*
X18749744Y-89450447D01*
X18887873Y-89542743D01*
X18887886Y-89542750D01*
X18970956Y-89577158D01*
X19041369Y-89606324D01*
X19049074Y-89607856D01*
X19110984Y-89640237D01*
X19145561Y-89700951D01*
X19141825Y-89770721D01*
X19100961Y-89827395D01*
X19093778Y-89832575D01*
X18997592Y-89896845D01*
X18997586Y-89896850D01*
X18880116Y-90014320D01*
X18880113Y-90014324D01*
X18787817Y-90152453D01*
X18787810Y-90152466D01*
X18724238Y-90305944D01*
X18724235Y-90305956D01*
X18691826Y-90468887D01*
X18691826Y-90635032D01*
X18724235Y-90797963D01*
X18724238Y-90797975D01*
X18787810Y-90951453D01*
X18787817Y-90951466D01*
X18880113Y-91089595D01*
X18880116Y-91089599D01*
X18986611Y-91196094D01*
X19020096Y-91257417D01*
X19015112Y-91327109D01*
X18973240Y-91383042D01*
X18946384Y-91398336D01*
X18875142Y-91427846D01*
X18875135Y-91427849D01*
X18737006Y-91520145D01*
X18737002Y-91520148D01*
X18619532Y-91637618D01*
X18619529Y-91637622D01*
X18527233Y-91775751D01*
X18527226Y-91775764D01*
X18463654Y-91929242D01*
X18463651Y-91929254D01*
X18431242Y-92092185D01*
X17169622Y-92092185D01*
X17151557Y-92036588D01*
X17055051Y-91847184D01*
X17055049Y-91847181D01*
X17055048Y-91847179D01*
X16930109Y-91675213D01*
X16779786Y-91524890D01*
X16607820Y-91399951D01*
X16604650Y-91398336D01*
X16599054Y-91395485D01*
X16548259Y-91347512D01*
X16531463Y-91279692D01*
X16553999Y-91213556D01*
X16599054Y-91174515D01*
X16607816Y-91170051D01*
X16641630Y-91145484D01*
X16779786Y-91045109D01*
X16779788Y-91045106D01*
X16779792Y-91045104D01*
X16930104Y-90894792D01*
X16930106Y-90894788D01*
X16930109Y-90894786D01*
X17039086Y-90744789D01*
X17055051Y-90722816D01*
X17151557Y-90533412D01*
X17217246Y-90331243D01*
X17250500Y-90121287D01*
X17250500Y-89908713D01*
X17217246Y-89698757D01*
X17151557Y-89496588D01*
X17055051Y-89307184D01*
X17055049Y-89307181D01*
X17055048Y-89307179D01*
X16930109Y-89135213D01*
X16779786Y-88984890D01*
X16607820Y-88859951D01*
X16605082Y-88858556D01*
X16599054Y-88855485D01*
X16548259Y-88807512D01*
X16531463Y-88739692D01*
X16553999Y-88673556D01*
X16599054Y-88634515D01*
X16607816Y-88630051D01*
X16637196Y-88608705D01*
X16779786Y-88505109D01*
X16779788Y-88505106D01*
X16779792Y-88505104D01*
X16930104Y-88354792D01*
X16930106Y-88354788D01*
X16930109Y-88354786D01*
X17055048Y-88182820D01*
X17055047Y-88182820D01*
X17055051Y-88182816D01*
X17151557Y-87993412D01*
X17217246Y-87791243D01*
X17250500Y-87581287D01*
X17250500Y-87368713D01*
X17217246Y-87158757D01*
X17151557Y-86956588D01*
X17055051Y-86767184D01*
X17055049Y-86767181D01*
X17055048Y-86767179D01*
X16930109Y-86595213D01*
X16779786Y-86444890D01*
X16607820Y-86319951D01*
X16605078Y-86318554D01*
X16599054Y-86315485D01*
X16548259Y-86267512D01*
X16531463Y-86199692D01*
X16553999Y-86133556D01*
X16599054Y-86094515D01*
X16607816Y-86090051D01*
X16651686Y-86058178D01*
X16779786Y-85965109D01*
X16779788Y-85965106D01*
X16779792Y-85965104D01*
X16930104Y-85814792D01*
X16930106Y-85814788D01*
X16930109Y-85814786D01*
X17055048Y-85642820D01*
X17055047Y-85642820D01*
X17055051Y-85642816D01*
X17151557Y-85453412D01*
X17217246Y-85251243D01*
X17250500Y-85041287D01*
X17250500Y-84828713D01*
X17217246Y-84618757D01*
X17151557Y-84416588D01*
X17055051Y-84227184D01*
X17055049Y-84227181D01*
X17055048Y-84227179D01*
X16930109Y-84055213D01*
X16779790Y-83904894D01*
X16757176Y-83888464D01*
X16757147Y-83888443D01*
X16626790Y-83793734D01*
X18581600Y-83793734D01*
X18581600Y-83959879D01*
X18614009Y-84122810D01*
X18614012Y-84122822D01*
X18677584Y-84276300D01*
X18677591Y-84276313D01*
X18769887Y-84414442D01*
X18769890Y-84414446D01*
X18887360Y-84531916D01*
X18887364Y-84531919D01*
X19025493Y-84624215D01*
X19025506Y-84624222D01*
X19178984Y-84687794D01*
X19178989Y-84687796D01*
X19334585Y-84718745D01*
X19396494Y-84751129D01*
X19431068Y-84811845D01*
X19427329Y-84881614D01*
X19386463Y-84938286D01*
X19334585Y-84961979D01*
X19294621Y-84969928D01*
X19294612Y-84969931D01*
X19141134Y-85033503D01*
X19141121Y-85033510D01*
X19002992Y-85125806D01*
X19002988Y-85125809D01*
X18885518Y-85243279D01*
X18885515Y-85243283D01*
X18793219Y-85381412D01*
X18793212Y-85381425D01*
X18729640Y-85534903D01*
X18729637Y-85534915D01*
X18697228Y-85697846D01*
X18697228Y-85863991D01*
X18729637Y-86026922D01*
X18729640Y-86026934D01*
X18793212Y-86180412D01*
X18793219Y-86180425D01*
X18885515Y-86318554D01*
X18885518Y-86318558D01*
X19002988Y-86436028D01*
X19002992Y-86436031D01*
X19141121Y-86528327D01*
X19141134Y-86528334D01*
X19261998Y-86578397D01*
X19294617Y-86591908D01*
X19457555Y-86624318D01*
X19457559Y-86624319D01*
X19457560Y-86624319D01*
X19623697Y-86624319D01*
X19623698Y-86624318D01*
X19786639Y-86591908D01*
X19922031Y-86535827D01*
X19940121Y-86528334D01*
X19940121Y-86528333D01*
X19940128Y-86528331D01*
X20078264Y-86436031D01*
X20195740Y-86318555D01*
X20288040Y-86180419D01*
X20290298Y-86174969D01*
X20318085Y-86107884D01*
X20351617Y-86026930D01*
X20384028Y-85863987D01*
X20384028Y-85697851D01*
X20380462Y-85679925D01*
X20371533Y-85635031D01*
X20367932Y-85616927D01*
X31056600Y-85616927D01*
X31056600Y-85783072D01*
X31089009Y-85946003D01*
X31089012Y-85946015D01*
X31152584Y-86099493D01*
X31152591Y-86099506D01*
X31244887Y-86237635D01*
X31244890Y-86237639D01*
X31362360Y-86355109D01*
X31362364Y-86355112D01*
X31500493Y-86447408D01*
X31500506Y-86447415D01*
X31628632Y-86500486D01*
X31653989Y-86510989D01*
X31796476Y-86539331D01*
X31816927Y-86543399D01*
X31816931Y-86543400D01*
X31816932Y-86543400D01*
X31983069Y-86543400D01*
X31983070Y-86543399D01*
X32146011Y-86510989D01*
X32266403Y-86461121D01*
X32299493Y-86447415D01*
X32299493Y-86447414D01*
X32299500Y-86447412D01*
X32437636Y-86355112D01*
X32555112Y-86237636D01*
X32647412Y-86099500D01*
X32647415Y-86099493D01*
X32685439Y-86007695D01*
X32729280Y-85953291D01*
X32795574Y-85931226D01*
X32863273Y-85948505D01*
X32910884Y-85999642D01*
X32914561Y-86007695D01*
X32952584Y-86099493D01*
X32952591Y-86099506D01*
X33044887Y-86237635D01*
X33044890Y-86237639D01*
X33162360Y-86355109D01*
X33162364Y-86355112D01*
X33300493Y-86447408D01*
X33300506Y-86447415D01*
X33428632Y-86500486D01*
X33453989Y-86510989D01*
X33596476Y-86539331D01*
X33616927Y-86543399D01*
X33616931Y-86543400D01*
X33616932Y-86543400D01*
X33783069Y-86543400D01*
X33783070Y-86543399D01*
X33946011Y-86510989D01*
X34066403Y-86461121D01*
X34099493Y-86447415D01*
X34099493Y-86447414D01*
X34099500Y-86447412D01*
X34237636Y-86355112D01*
X34355112Y-86237636D01*
X34447412Y-86099500D01*
X34447932Y-86098246D01*
X34477475Y-86026922D01*
X34510989Y-85946011D01*
X34543400Y-85783068D01*
X34543400Y-85616932D01*
X34510989Y-85453989D01*
X34503864Y-85436788D01*
X34447415Y-85300506D01*
X34447408Y-85300493D01*
X34373150Y-85189359D01*
X34355112Y-85162364D01*
X34355109Y-85162360D01*
X34319304Y-85126555D01*
X35794419Y-85126555D01*
X35794419Y-85284248D01*
X35825180Y-85438891D01*
X35825183Y-85438903D01*
X35885521Y-85584574D01*
X35885528Y-85584587D01*
X35952974Y-85685527D01*
X35973852Y-85752205D01*
X35964433Y-85801870D01*
X35912790Y-85926548D01*
X35912787Y-85926560D01*
X35882026Y-86081203D01*
X35882026Y-86238896D01*
X35912787Y-86393539D01*
X35912790Y-86393551D01*
X35973128Y-86539222D01*
X35973135Y-86539235D01*
X36060736Y-86670338D01*
X36060739Y-86670342D01*
X36172233Y-86781836D01*
X36172236Y-86781838D01*
X36172237Y-86781839D01*
X36184938Y-86790326D01*
X36229744Y-86843935D01*
X36240050Y-86893429D01*
X36240050Y-86993846D01*
X36270811Y-87148489D01*
X36270814Y-87148501D01*
X36313636Y-87251883D01*
X36321105Y-87321352D01*
X36302178Y-87368225D01*
X36256945Y-87435921D01*
X36256939Y-87435932D01*
X36196601Y-87581602D01*
X36196598Y-87581614D01*
X36165837Y-87736257D01*
X36165837Y-87893950D01*
X36196598Y-88048593D01*
X36196601Y-88048605D01*
X36256939Y-88194276D01*
X36256946Y-88194289D01*
X36344547Y-88325392D01*
X36344550Y-88325396D01*
X36456044Y-88436890D01*
X36456048Y-88436893D01*
X36587151Y-88524494D01*
X36587164Y-88524501D01*
X36726408Y-88582177D01*
X36732840Y-88584841D01*
X36798732Y-88597947D01*
X36852810Y-88608705D01*
X36914721Y-88641090D01*
X36949295Y-88701805D01*
X36945556Y-88771575D01*
X36904689Y-88828247D01*
X36876072Y-88844883D01*
X36746377Y-88898604D01*
X36746367Y-88898609D01*
X36615264Y-88986210D01*
X36615260Y-88986213D01*
X36503766Y-89097707D01*
X36503763Y-89097711D01*
X36416162Y-89228814D01*
X36416155Y-89228827D01*
X36355817Y-89374498D01*
X36355814Y-89374510D01*
X36325053Y-89529153D01*
X36325053Y-89686846D01*
X36355814Y-89841489D01*
X36355817Y-89841501D01*
X36416155Y-89987172D01*
X36416162Y-89987185D01*
X36503763Y-90118288D01*
X36503766Y-90118292D01*
X36615260Y-90229786D01*
X36615264Y-90229789D01*
X36746367Y-90317390D01*
X36746380Y-90317397D01*
X36826473Y-90350572D01*
X36892056Y-90377737D01*
X37020293Y-90403245D01*
X37046706Y-90408499D01*
X37046709Y-90408500D01*
X37046711Y-90408500D01*
X37204397Y-90408500D01*
X37204398Y-90408499D01*
X37359050Y-90377737D01*
X37498902Y-90319809D01*
X37504725Y-90317397D01*
X37504725Y-90317396D01*
X37504732Y-90317394D01*
X37635842Y-90229789D01*
X37747342Y-90118289D01*
X37834947Y-89987179D01*
X37838424Y-89978786D01*
X37856447Y-89935274D01*
X37895290Y-89841497D01*
X37914506Y-89744893D01*
X37946891Y-89682982D01*
X38007606Y-89648408D01*
X38011872Y-89647479D01*
X38062017Y-89637505D01*
X38207699Y-89577162D01*
X38338809Y-89489557D01*
X38450309Y-89378057D01*
X38537914Y-89246947D01*
X38545420Y-89228827D01*
X38554132Y-89207793D01*
X38598257Y-89101265D01*
X38629020Y-88946610D01*
X38629020Y-88788926D01*
X38629020Y-88788923D01*
X38629019Y-88788921D01*
X38620654Y-88746870D01*
X38598257Y-88634271D01*
X38578705Y-88587068D01*
X38537917Y-88488595D01*
X38537910Y-88488582D01*
X38450309Y-88357479D01*
X38450306Y-88357475D01*
X38338812Y-88245981D01*
X38338808Y-88245978D01*
X38207705Y-88158377D01*
X38207692Y-88158370D01*
X38062021Y-88098032D01*
X38062009Y-88098029D01*
X37907365Y-88067268D01*
X37907362Y-88067268D01*
X37883456Y-88067268D01*
X37816417Y-88047583D01*
X37770662Y-87994779D01*
X37760718Y-87925621D01*
X37761838Y-87919077D01*
X37762013Y-87918197D01*
X37766837Y-87893946D01*
X37766837Y-87736262D01*
X37766837Y-87736259D01*
X37766836Y-87736257D01*
X37765097Y-87727515D01*
X37736074Y-87581607D01*
X37736072Y-87581602D01*
X37693250Y-87478219D01*
X37685781Y-87408750D01*
X37704706Y-87361880D01*
X37749944Y-87294179D01*
X37757969Y-87274806D01*
X37767463Y-87251883D01*
X37810287Y-87148497D01*
X37841050Y-86993842D01*
X37841050Y-86836158D01*
X37841050Y-86836155D01*
X37841049Y-86836153D01*
X37831536Y-86788330D01*
X37810287Y-86681503D01*
X37788911Y-86629896D01*
X37749947Y-86535827D01*
X37749940Y-86535814D01*
X37662339Y-86404711D01*
X37662336Y-86404707D01*
X37550846Y-86293217D01*
X37550841Y-86293213D01*
X37550839Y-86293211D01*
X37546502Y-86290313D01*
X37538131Y-86284719D01*
X37493328Y-86231105D01*
X37483026Y-86181620D01*
X37483026Y-86081205D01*
X37483025Y-86081203D01*
X37478309Y-86057493D01*
X37452263Y-85926553D01*
X37449282Y-85919357D01*
X37391923Y-85780877D01*
X37391916Y-85780864D01*
X37324470Y-85679925D01*
X37303592Y-85613248D01*
X37313011Y-85563581D01*
X37364656Y-85438899D01*
X37395419Y-85284244D01*
X37395419Y-85126560D01*
X37395419Y-85126557D01*
X37395418Y-85126555D01*
X37364658Y-84971913D01*
X37362889Y-84966082D01*
X37364360Y-84965635D01*
X37357697Y-84903671D01*
X37388970Y-84841191D01*
X37428846Y-84813505D01*
X37428708Y-84813247D01*
X37430929Y-84812059D01*
X37432280Y-84811122D01*
X37434073Y-84810379D01*
X37434072Y-84810379D01*
X37434078Y-84810377D01*
X37572214Y-84718077D01*
X37689690Y-84600601D01*
X37781990Y-84462465D01*
X37845567Y-84308976D01*
X37877978Y-84146033D01*
X37877978Y-84024500D01*
X37897663Y-83957461D01*
X37950467Y-83911706D01*
X38001978Y-83900500D01*
X38078844Y-83900500D01*
X38078845Y-83900499D01*
X38233497Y-83869737D01*
X38360911Y-83816961D01*
X38379172Y-83809397D01*
X38379172Y-83809396D01*
X38379179Y-83809394D01*
X38510289Y-83721789D01*
X38621789Y-83610289D01*
X38709394Y-83479179D01*
X38769737Y-83333497D01*
X38800500Y-83178842D01*
X38800500Y-83092546D01*
X38820185Y-83025507D01*
X38872989Y-82979752D01*
X38942147Y-82969808D01*
X39005703Y-82998833D01*
X39034984Y-83036250D01*
X39083157Y-83130795D01*
X39124951Y-83212820D01*
X39249890Y-83384786D01*
X39400213Y-83535109D01*
X39572182Y-83660050D01*
X39580946Y-83664516D01*
X39631742Y-83712491D01*
X39648536Y-83780312D01*
X39625998Y-83846447D01*
X39580946Y-83885484D01*
X39572182Y-83889949D01*
X39400213Y-84014890D01*
X39249890Y-84165213D01*
X39124951Y-84337179D01*
X39028444Y-84526585D01*
X38962753Y-84728760D01*
X38941215Y-84864745D01*
X38929500Y-84938713D01*
X38929500Y-85151287D01*
X38939534Y-85214644D01*
X38959779Y-85342464D01*
X38962754Y-85361243D01*
X39019181Y-85534908D01*
X39028444Y-85563414D01*
X39124951Y-85752820D01*
X39249890Y-85924786D01*
X39400213Y-86075109D01*
X39572182Y-86200050D01*
X39580946Y-86204516D01*
X39631742Y-86252491D01*
X39648536Y-86320312D01*
X39625998Y-86386447D01*
X39580946Y-86425484D01*
X39572182Y-86429949D01*
X39400213Y-86554890D01*
X39249890Y-86705213D01*
X39124951Y-86877179D01*
X39028444Y-87066585D01*
X38962753Y-87268760D01*
X38929500Y-87478713D01*
X38929500Y-87691286D01*
X38960885Y-87889447D01*
X38962754Y-87901243D01*
X39021202Y-88081128D01*
X39028444Y-88103414D01*
X39124951Y-88292820D01*
X39249890Y-88464786D01*
X39400213Y-88615109D01*
X39572182Y-88740050D01*
X39580946Y-88744516D01*
X39631742Y-88792491D01*
X39648536Y-88860312D01*
X39625998Y-88926447D01*
X39580946Y-88965484D01*
X39572182Y-88969949D01*
X39400213Y-89094890D01*
X39249890Y-89245213D01*
X39124951Y-89417179D01*
X39028444Y-89606585D01*
X39028443Y-89606587D01*
X39028443Y-89606588D01*
X39023736Y-89621076D01*
X38962753Y-89808760D01*
X38929500Y-90018713D01*
X38929500Y-90231286D01*
X38961019Y-90430292D01*
X38962754Y-90441243D01*
X39025720Y-90635032D01*
X39028444Y-90643414D01*
X39124951Y-90832820D01*
X39249890Y-91004786D01*
X39400213Y-91155109D01*
X39572182Y-91280050D01*
X39580946Y-91284516D01*
X39631742Y-91332491D01*
X39648536Y-91400312D01*
X39625998Y-91466447D01*
X39580946Y-91505484D01*
X39572182Y-91509949D01*
X39400213Y-91634890D01*
X39249890Y-91785213D01*
X39124951Y-91957179D01*
X39028444Y-92146585D01*
X38962753Y-92348760D01*
X38929500Y-92558713D01*
X38929500Y-92771286D01*
X38957173Y-92946011D01*
X38962754Y-92981243D01*
X39001178Y-93099500D01*
X39028444Y-93183414D01*
X39124951Y-93372820D01*
X39249890Y-93544786D01*
X39400213Y-93695109D01*
X39572182Y-93820050D01*
X39580946Y-93824516D01*
X39631742Y-93872491D01*
X39648536Y-93940312D01*
X39625998Y-94006447D01*
X39580946Y-94045484D01*
X39572182Y-94049949D01*
X39400213Y-94174890D01*
X39249890Y-94325213D01*
X39124951Y-94497179D01*
X39028444Y-94686585D01*
X38962753Y-94888760D01*
X38946922Y-94988713D01*
X38929500Y-95098713D01*
X38929500Y-95311287D01*
X38936042Y-95352591D01*
X38945331Y-95411243D01*
X38962754Y-95521243D01*
X39021000Y-95700506D01*
X39028444Y-95723414D01*
X39124951Y-95912820D01*
X39249890Y-96084786D01*
X39400213Y-96235109D01*
X39572182Y-96360050D01*
X39580946Y-96364516D01*
X39631742Y-96412491D01*
X39648536Y-96480312D01*
X39625998Y-96546447D01*
X39580946Y-96585484D01*
X39572182Y-96589949D01*
X39400213Y-96714890D01*
X39249890Y-96865213D01*
X39124951Y-97037179D01*
X39028444Y-97226585D01*
X38962753Y-97428760D01*
X38929500Y-97638713D01*
X38929500Y-97851286D01*
X38945331Y-97951243D01*
X38962754Y-98061243D01*
X39018924Y-98234117D01*
X39028444Y-98263414D01*
X39124951Y-98452820D01*
X39249890Y-98624786D01*
X39400213Y-98775109D01*
X39572179Y-98900048D01*
X39572181Y-98900049D01*
X39572184Y-98900051D01*
X39761588Y-98996557D01*
X39963757Y-99062246D01*
X40173713Y-99095500D01*
X40173714Y-99095500D01*
X40386286Y-99095500D01*
X40386287Y-99095500D01*
X40596243Y-99062246D01*
X40798412Y-98996557D01*
X40987816Y-98900051D01*
X41056019Y-98850499D01*
X41159786Y-98775109D01*
X41159788Y-98775106D01*
X41159792Y-98775104D01*
X41310104Y-98624792D01*
X41310106Y-98624788D01*
X41310109Y-98624786D01*
X41435048Y-98452820D01*
X41435047Y-98452820D01*
X41435051Y-98452816D01*
X41531557Y-98263412D01*
X41597246Y-98061243D01*
X41630500Y-97851287D01*
X41630500Y-97638713D01*
X41597246Y-97428757D01*
X41531557Y-97226588D01*
X41435051Y-97037184D01*
X41435049Y-97037181D01*
X41435048Y-97037179D01*
X41310109Y-96865213D01*
X41159786Y-96714890D01*
X41019374Y-96612876D01*
X41019358Y-96612865D01*
X40987816Y-96589949D01*
X40972964Y-96582381D01*
X40967256Y-96578631D01*
X40948891Y-96556997D01*
X40928259Y-96537512D01*
X40926573Y-96530708D01*
X40922039Y-96525366D01*
X40920913Y-96516927D01*
X50856600Y-96516927D01*
X50856600Y-96683072D01*
X50889009Y-96846003D01*
X50889012Y-96846015D01*
X50952584Y-96999493D01*
X50952591Y-96999506D01*
X51044887Y-97137635D01*
X51044890Y-97137639D01*
X51162360Y-97255109D01*
X51162364Y-97255112D01*
X51300493Y-97347408D01*
X51300506Y-97347415D01*
X51453984Y-97410987D01*
X51453989Y-97410989D01*
X51616927Y-97443399D01*
X51616931Y-97443400D01*
X51616932Y-97443400D01*
X51783069Y-97443400D01*
X51783070Y-97443399D01*
X51946011Y-97410989D01*
X52099500Y-97347412D01*
X52237636Y-97255112D01*
X52355112Y-97137636D01*
X52447412Y-96999500D01*
X52510989Y-96846011D01*
X52543400Y-96683068D01*
X52543400Y-96516932D01*
X52510989Y-96353989D01*
X52507686Y-96346015D01*
X52447415Y-96200506D01*
X52447408Y-96200493D01*
X52355112Y-96062364D01*
X52355109Y-96062360D01*
X52237639Y-95944890D01*
X52237635Y-95944887D01*
X52099506Y-95852591D01*
X52099493Y-95852584D01*
X51946015Y-95789012D01*
X51946003Y-95789009D01*
X51783072Y-95756600D01*
X51783068Y-95756600D01*
X51616932Y-95756600D01*
X51616927Y-95756600D01*
X51453996Y-95789009D01*
X51453984Y-95789012D01*
X51300506Y-95852584D01*
X51300493Y-95852591D01*
X51162364Y-95944887D01*
X51162360Y-95944890D01*
X51044890Y-96062360D01*
X51044887Y-96062364D01*
X50952591Y-96200493D01*
X50952584Y-96200506D01*
X50889012Y-96353984D01*
X50889009Y-96353996D01*
X50856600Y-96516927D01*
X40920913Y-96516927D01*
X40918285Y-96497238D01*
X40911463Y-96469692D01*
X40913723Y-96463058D01*
X40912796Y-96456110D01*
X40924846Y-96430416D01*
X40933999Y-96403556D01*
X40939802Y-96398527D01*
X40942464Y-96392852D01*
X40956616Y-96383957D01*
X40979054Y-96364515D01*
X40987816Y-96360051D01*
X41067041Y-96302491D01*
X41159786Y-96235109D01*
X41159788Y-96235106D01*
X41159792Y-96235104D01*
X41310104Y-96084792D01*
X41310106Y-96084788D01*
X41310109Y-96084786D01*
X41435048Y-95912820D01*
X41435047Y-95912820D01*
X41435051Y-95912816D01*
X41531557Y-95723412D01*
X41597246Y-95521243D01*
X41630500Y-95311287D01*
X41630500Y-95098713D01*
X41597246Y-94888757D01*
X41531557Y-94686588D01*
X41435051Y-94497184D01*
X41435049Y-94497181D01*
X41435048Y-94497179D01*
X41310109Y-94325213D01*
X41159786Y-94174890D01*
X40987820Y-94049951D01*
X40987115Y-94049591D01*
X40979054Y-94045485D01*
X40928259Y-93997512D01*
X40911463Y-93929692D01*
X40933999Y-93863556D01*
X40979054Y-93824515D01*
X40987816Y-93820051D01*
X41067041Y-93762491D01*
X41159786Y-93695109D01*
X41159788Y-93695106D01*
X41159792Y-93695104D01*
X41310104Y-93544792D01*
X41310106Y-93544788D01*
X41310109Y-93544786D01*
X41435048Y-93372820D01*
X41435047Y-93372820D01*
X41435051Y-93372816D01*
X41531557Y-93183412D01*
X41597246Y-92981243D01*
X41630500Y-92771287D01*
X41630500Y-92616927D01*
X44956600Y-92616927D01*
X44956600Y-92783072D01*
X44989009Y-92946003D01*
X44989012Y-92946015D01*
X45052584Y-93099493D01*
X45052591Y-93099506D01*
X45144887Y-93237635D01*
X45144890Y-93237639D01*
X45197761Y-93290509D01*
X45231247Y-93351832D01*
X45226263Y-93421524D01*
X45197763Y-93465871D01*
X45165475Y-93498159D01*
X45165471Y-93498164D01*
X45073175Y-93636293D01*
X45073168Y-93636306D01*
X45009596Y-93789784D01*
X45009593Y-93789796D01*
X44977184Y-93952727D01*
X44977184Y-94118872D01*
X45009593Y-94281803D01*
X45009596Y-94281815D01*
X45073168Y-94435293D01*
X45073175Y-94435306D01*
X45165471Y-94573435D01*
X45165474Y-94573439D01*
X45282944Y-94690909D01*
X45282948Y-94690912D01*
X45421077Y-94783208D01*
X45421090Y-94783215D01*
X45574568Y-94846787D01*
X45574573Y-94846789D01*
X45737511Y-94879199D01*
X45737515Y-94879200D01*
X45737516Y-94879200D01*
X45903653Y-94879200D01*
X45903654Y-94879199D01*
X46066595Y-94846789D01*
X46220084Y-94783212D01*
X46358220Y-94690912D01*
X46475696Y-94573436D01*
X46567996Y-94435300D01*
X46578066Y-94410990D01*
X46606062Y-94343400D01*
X46631573Y-94281811D01*
X46663984Y-94118868D01*
X46663984Y-93952732D01*
X46631573Y-93789789D01*
X46613440Y-93746011D01*
X46567999Y-93636306D01*
X46567992Y-93636293D01*
X46475696Y-93498164D01*
X46475693Y-93498160D01*
X46422821Y-93445288D01*
X46389336Y-93383965D01*
X46394320Y-93314273D01*
X46422819Y-93269928D01*
X46455112Y-93237636D01*
X46546744Y-93100500D01*
X46547408Y-93099506D01*
X46547408Y-93099505D01*
X46547412Y-93099500D01*
X46610989Y-92946011D01*
X46643400Y-92783068D01*
X46643400Y-92616932D01*
X46610989Y-92453989D01*
X46597433Y-92421261D01*
X46547415Y-92300506D01*
X46547413Y-92300502D01*
X46547412Y-92300500D01*
X46457233Y-92165539D01*
X46449400Y-92140520D01*
X46438002Y-92116908D01*
X46439125Y-92107707D01*
X46436356Y-92098863D01*
X46443291Y-92073580D01*
X46446469Y-92047554D01*
X46453119Y-92037753D01*
X46454840Y-92031483D01*
X46464913Y-92017462D01*
X46468580Y-92013042D01*
X46552487Y-91929136D01*
X46557821Y-91921153D01*
X51299500Y-91921153D01*
X51299500Y-92078846D01*
X51330261Y-92233489D01*
X51330264Y-92233501D01*
X51390602Y-92379172D01*
X51390609Y-92379185D01*
X51478210Y-92510288D01*
X51478213Y-92510292D01*
X51589707Y-92621786D01*
X51589711Y-92621789D01*
X51720814Y-92709390D01*
X51720827Y-92709397D01*
X51834787Y-92756600D01*
X51866503Y-92769737D01*
X51994624Y-92795222D01*
X52021153Y-92800499D01*
X52021156Y-92800500D01*
X52021158Y-92800500D01*
X52178844Y-92800500D01*
X52178845Y-92800499D01*
X52333497Y-92769737D01*
X52479179Y-92709394D01*
X52610289Y-92621789D01*
X52721789Y-92510289D01*
X52809394Y-92379179D01*
X52869737Y-92233497D01*
X52900500Y-92078842D01*
X52900500Y-91921158D01*
X52900500Y-91921155D01*
X52900499Y-91921153D01*
X52888376Y-91860208D01*
X52869737Y-91766503D01*
X52846290Y-91709896D01*
X52809397Y-91620827D01*
X52809390Y-91620814D01*
X52721789Y-91489711D01*
X52721786Y-91489707D01*
X52610292Y-91378213D01*
X52610288Y-91378210D01*
X52479185Y-91290609D01*
X52479172Y-91290602D01*
X52333501Y-91230264D01*
X52333489Y-91230261D01*
X52178845Y-91199500D01*
X52178842Y-91199500D01*
X52021158Y-91199500D01*
X52021155Y-91199500D01*
X51866510Y-91230261D01*
X51866498Y-91230264D01*
X51720827Y-91290602D01*
X51720814Y-91290609D01*
X51589711Y-91378210D01*
X51589707Y-91378213D01*
X51478213Y-91489707D01*
X51478210Y-91489711D01*
X51390609Y-91620814D01*
X51390602Y-91620827D01*
X51330264Y-91766498D01*
X51330261Y-91766510D01*
X51299500Y-91921153D01*
X46557821Y-91921153D01*
X46644787Y-91791000D01*
X46708364Y-91637511D01*
X46740775Y-91474568D01*
X46740775Y-91308432D01*
X46708364Y-91145489D01*
X46685214Y-91089599D01*
X46644790Y-90992006D01*
X46644783Y-90991993D01*
X46552487Y-90853864D01*
X46552485Y-90853861D01*
X46536271Y-90837648D01*
X46502784Y-90776326D01*
X46507767Y-90706634D01*
X46536267Y-90662285D01*
X46605217Y-90593336D01*
X46697517Y-90455200D01*
X46761094Y-90301711D01*
X46793505Y-90138768D01*
X46793505Y-89972632D01*
X46761094Y-89809689D01*
X46751451Y-89786409D01*
X46697520Y-89656206D01*
X46697513Y-89656193D01*
X46605217Y-89518064D01*
X46605214Y-89518060D01*
X46498534Y-89411380D01*
X46465049Y-89350057D01*
X46470033Y-89280365D01*
X46483108Y-89254816D01*
X46573591Y-89119400D01*
X46637168Y-88965911D01*
X46669579Y-88802968D01*
X46669579Y-88636832D01*
X46637168Y-88473889D01*
X46633400Y-88464792D01*
X46573594Y-88320406D01*
X46573587Y-88320393D01*
X46481291Y-88182264D01*
X46481288Y-88182260D01*
X46437658Y-88138630D01*
X46404173Y-88077307D01*
X46409157Y-88007615D01*
X46437658Y-87963268D01*
X46555109Y-87845816D01*
X46555112Y-87845813D01*
X46647412Y-87707677D01*
X46710989Y-87554188D01*
X46743400Y-87391245D01*
X46743400Y-87225109D01*
X46710989Y-87062166D01*
X46708067Y-87055112D01*
X46659721Y-86938392D01*
X46647413Y-86908680D01*
X46647412Y-86908677D01*
X46647410Y-86908674D01*
X46647408Y-86908670D01*
X46639628Y-86897027D01*
X56556600Y-86897027D01*
X56556600Y-87063172D01*
X56589009Y-87226103D01*
X56589012Y-87226115D01*
X56652584Y-87379593D01*
X56652591Y-87379606D01*
X56744887Y-87517735D01*
X56744890Y-87517739D01*
X56862360Y-87635209D01*
X56862364Y-87635212D01*
X57000493Y-87727508D01*
X57000506Y-87727515D01*
X57147036Y-87788209D01*
X57153989Y-87791089D01*
X57316927Y-87823499D01*
X57316931Y-87823500D01*
X57316932Y-87823500D01*
X57483069Y-87823500D01*
X57483070Y-87823499D01*
X57646011Y-87791089D01*
X57799500Y-87727512D01*
X57937636Y-87635212D01*
X58055112Y-87517736D01*
X58147412Y-87379600D01*
X58210989Y-87226111D01*
X58222566Y-87167906D01*
X58234919Y-87144290D01*
X58243882Y-87119189D01*
X58250863Y-87113808D01*
X58254949Y-87105997D01*
X58278110Y-87092807D01*
X58299222Y-87076536D01*
X58308005Y-87075783D01*
X58315665Y-87071422D01*
X58342280Y-87072848D01*
X58368837Y-87070574D01*
X58379027Y-87074817D01*
X58385434Y-87075161D01*
X58402076Y-87082442D01*
X58407746Y-87085435D01*
X58500500Y-87147412D01*
X58614857Y-87194780D01*
X58619954Y-87197471D01*
X58641025Y-87217959D01*
X58663917Y-87236406D01*
X58665792Y-87242040D01*
X58670048Y-87246178D01*
X58676697Y-87274806D01*
X58685982Y-87302700D01*
X58684755Y-87309495D01*
X58685857Y-87314236D01*
X58681902Y-87325310D01*
X58676622Y-87354579D01*
X58630264Y-87466498D01*
X58630261Y-87466510D01*
X58599500Y-87621153D01*
X58599500Y-87778846D01*
X58630261Y-87933489D01*
X58630264Y-87933501D01*
X58690602Y-88079172D01*
X58690609Y-88079185D01*
X58778210Y-88210288D01*
X58778213Y-88210292D01*
X58889707Y-88321786D01*
X58889711Y-88321789D01*
X59007411Y-88400434D01*
X59008008Y-88401148D01*
X59008893Y-88401440D01*
X59030367Y-88427902D01*
X59052216Y-88454046D01*
X59052525Y-88455208D01*
X59052919Y-88455693D01*
X59053722Y-88459696D01*
X59061764Y-88489861D01*
X59062520Y-88496674D01*
X59062520Y-88576445D01*
X59082536Y-88677076D01*
X59083124Y-88682367D01*
X59077927Y-88711738D01*
X59075270Y-88741442D01*
X59071712Y-88746870D01*
X59070952Y-88751169D01*
X59063893Y-88758802D01*
X59047563Y-88783722D01*
X59022571Y-88808714D01*
X58934972Y-88939814D01*
X58934965Y-88939827D01*
X58874627Y-89085498D01*
X58874625Y-89085505D01*
X58869492Y-89111310D01*
X58837105Y-89173220D01*
X58776389Y-89207793D01*
X58723684Y-89208733D01*
X58678584Y-89199762D01*
X58678580Y-89199762D01*
X58520896Y-89199762D01*
X58520893Y-89199762D01*
X58366248Y-89230523D01*
X58366236Y-89230526D01*
X58220565Y-89290864D01*
X58220552Y-89290871D01*
X58089449Y-89378472D01*
X58089445Y-89378475D01*
X57977951Y-89489969D01*
X57977948Y-89489973D01*
X57890347Y-89621076D01*
X57890340Y-89621089D01*
X57830002Y-89766760D01*
X57829999Y-89766772D01*
X57799238Y-89921415D01*
X57799238Y-90079108D01*
X57829999Y-90233751D01*
X57830002Y-90233763D01*
X57890340Y-90379434D01*
X57890347Y-90379447D01*
X57977948Y-90510550D01*
X57977951Y-90510554D01*
X58089445Y-90622048D01*
X58089449Y-90622051D01*
X58220552Y-90709652D01*
X58220565Y-90709659D01*
X58347808Y-90762364D01*
X58366241Y-90769999D01*
X58506825Y-90797963D01*
X58520891Y-90800761D01*
X58520894Y-90800762D01*
X58520896Y-90800762D01*
X58678575Y-90800762D01*
X58678580Y-90800762D01*
X58678584Y-90800761D01*
X58680218Y-90800600D01*
X58681073Y-90800762D01*
X58684672Y-90800762D01*
X58684672Y-90801444D01*
X58748865Y-90813613D01*
X58799579Y-90861674D01*
X58816259Y-90929524D01*
X58806944Y-90971453D01*
X58783654Y-91027681D01*
X58783653Y-91027684D01*
X58783653Y-91027685D01*
X58783652Y-91027688D01*
X58751243Y-91190619D01*
X58751243Y-91356764D01*
X58783652Y-91519695D01*
X58783655Y-91519707D01*
X58847227Y-91673185D01*
X58847234Y-91673198D01*
X58939530Y-91811327D01*
X58939533Y-91811331D01*
X59057003Y-91928801D01*
X59057007Y-91928804D01*
X59195136Y-92021100D01*
X59195149Y-92021107D01*
X59334535Y-92078842D01*
X59348632Y-92084681D01*
X59464393Y-92107707D01*
X59511570Y-92117091D01*
X59511574Y-92117092D01*
X59511575Y-92117092D01*
X59677712Y-92117092D01*
X59677713Y-92117091D01*
X59840654Y-92084681D01*
X59967393Y-92032184D01*
X59994136Y-92021107D01*
X59994136Y-92021106D01*
X59994143Y-92021104D01*
X60015273Y-92006985D01*
X61203202Y-92006985D01*
X61203202Y-92164678D01*
X61233963Y-92319321D01*
X61233966Y-92319333D01*
X61294304Y-92465004D01*
X61294311Y-92465017D01*
X61381912Y-92596120D01*
X61381915Y-92596124D01*
X61493409Y-92707618D01*
X61493413Y-92707621D01*
X61624516Y-92795222D01*
X61624529Y-92795229D01*
X61763008Y-92852588D01*
X61770205Y-92855569D01*
X61924855Y-92886331D01*
X61924858Y-92886332D01*
X61924860Y-92886332D01*
X62082546Y-92886332D01*
X62082547Y-92886331D01*
X62237199Y-92855569D01*
X62382881Y-92795226D01*
X62513991Y-92707621D01*
X62625491Y-92596121D01*
X62713096Y-92465011D01*
X62717664Y-92453984D01*
X62748646Y-92379185D01*
X62773439Y-92319329D01*
X62804202Y-92164674D01*
X62804202Y-92006990D01*
X62804202Y-92006987D01*
X62804201Y-92006985D01*
X62785549Y-91913217D01*
X62773439Y-91852335D01*
X62756455Y-91811331D01*
X62713099Y-91706659D01*
X62713092Y-91706646D01*
X62625491Y-91575543D01*
X62625488Y-91575539D01*
X62513994Y-91464045D01*
X62513990Y-91464042D01*
X62382887Y-91376441D01*
X62382874Y-91376434D01*
X62237203Y-91316096D01*
X62237191Y-91316093D01*
X62082547Y-91285332D01*
X62082544Y-91285332D01*
X61924860Y-91285332D01*
X61924857Y-91285332D01*
X61770212Y-91316093D01*
X61770200Y-91316096D01*
X61624529Y-91376434D01*
X61624516Y-91376441D01*
X61493413Y-91464042D01*
X61493409Y-91464045D01*
X61381915Y-91575539D01*
X61381912Y-91575543D01*
X61294311Y-91706646D01*
X61294304Y-91706659D01*
X61233966Y-91852330D01*
X61233963Y-91852342D01*
X61203202Y-92006985D01*
X60015273Y-92006985D01*
X60132279Y-91928804D01*
X60139930Y-91921153D01*
X60147867Y-91913217D01*
X60249752Y-91811331D01*
X60249755Y-91811328D01*
X60342055Y-91673192D01*
X60405632Y-91519703D01*
X60438043Y-91356760D01*
X60438043Y-91190624D01*
X60405632Y-91027681D01*
X60390855Y-90992006D01*
X60342058Y-90874198D01*
X60342051Y-90874185D01*
X60249755Y-90736056D01*
X60249752Y-90736052D01*
X60132282Y-90618582D01*
X60132278Y-90618579D01*
X59994149Y-90526283D01*
X59994136Y-90526276D01*
X59840658Y-90462704D01*
X59840646Y-90462701D01*
X59677715Y-90430292D01*
X59677711Y-90430292D01*
X59511575Y-90430292D01*
X59495528Y-90433484D01*
X59491034Y-90433081D01*
X59486899Y-90434886D01*
X59456548Y-90429995D01*
X59425936Y-90427255D01*
X59422374Y-90424487D01*
X59417919Y-90423770D01*
X59395029Y-90403245D01*
X59370760Y-90384392D01*
X59369259Y-90380138D01*
X59365899Y-90377125D01*
X59357739Y-90347482D01*
X59347516Y-90318502D01*
X59348218Y-90312892D01*
X59347356Y-90309761D01*
X59350510Y-90294578D01*
X59352971Y-90274916D01*
X59354634Y-90269588D01*
X59369475Y-90233759D01*
X59375896Y-90201475D01*
X59377857Y-90195195D01*
X59393729Y-90171396D01*
X59406988Y-90146046D01*
X59412869Y-90142696D01*
X59416624Y-90137067D01*
X59442845Y-90125625D01*
X59467703Y-90111470D01*
X59475612Y-90111328D01*
X59480663Y-90109125D01*
X59492468Y-90111027D01*
X59520416Y-90110528D01*
X59565519Y-90119500D01*
X59565521Y-90119500D01*
X59723207Y-90119500D01*
X59723208Y-90119499D01*
X59877860Y-90088737D01*
X60023542Y-90028394D01*
X60154652Y-89940789D01*
X60266152Y-89829289D01*
X60353757Y-89698179D01*
X60414100Y-89552497D01*
X60444863Y-89397842D01*
X60444863Y-89240158D01*
X60444863Y-89240155D01*
X60427724Y-89153996D01*
X60425885Y-89144750D01*
X60432112Y-89075161D01*
X60459818Y-89032881D01*
X60484809Y-89007892D01*
X60572414Y-88876782D01*
X60575355Y-88869683D01*
X60602988Y-88802969D01*
X60632757Y-88731100D01*
X60663520Y-88576445D01*
X60663520Y-88418761D01*
X60663520Y-88418758D01*
X60663519Y-88418756D01*
X60660075Y-88401440D01*
X60632757Y-88264106D01*
X60631810Y-88261819D01*
X60572417Y-88118430D01*
X60572410Y-88118417D01*
X60484809Y-87987314D01*
X60484806Y-87987310D01*
X60373312Y-87875816D01*
X60373308Y-87875813D01*
X60255609Y-87797169D01*
X60210804Y-87743557D01*
X60200500Y-87694067D01*
X60200500Y-87621155D01*
X60200499Y-87621153D01*
X60197866Y-87607917D01*
X60169737Y-87466503D01*
X60150012Y-87418882D01*
X60109397Y-87320827D01*
X60109395Y-87320823D01*
X60109394Y-87320821D01*
X60028058Y-87199094D01*
X60007181Y-87132418D01*
X60025665Y-87065038D01*
X60077644Y-87018347D01*
X60083709Y-87015643D01*
X60198011Y-86968298D01*
X60198011Y-86968297D01*
X60198018Y-86968295D01*
X60329128Y-86880690D01*
X60440628Y-86769190D01*
X60528233Y-86638080D01*
X60569138Y-86539326D01*
X61542769Y-86539326D01*
X61542769Y-86697019D01*
X61573530Y-86851662D01*
X61573533Y-86851674D01*
X61633871Y-86997345D01*
X61633878Y-86997358D01*
X61721479Y-87128461D01*
X61721482Y-87128465D01*
X61832976Y-87239959D01*
X61832980Y-87239962D01*
X61964083Y-87327563D01*
X61964096Y-87327570D01*
X62089724Y-87379606D01*
X62109772Y-87387910D01*
X62145636Y-87395043D01*
X62179896Y-87401859D01*
X62241807Y-87434244D01*
X62276381Y-87494959D01*
X62278444Y-87505836D01*
X62279705Y-87514609D01*
X62279705Y-87576566D01*
X62310468Y-87731221D01*
X62311032Y-87732585D01*
X62312272Y-87741206D01*
X62307751Y-87772635D01*
X62304923Y-87804246D01*
X62302553Y-87808776D01*
X62302325Y-87810364D01*
X62300805Y-87812116D01*
X62292636Y-87827736D01*
X62237032Y-87910953D01*
X62237026Y-87910964D01*
X62176688Y-88056635D01*
X62176685Y-88056647D01*
X62145924Y-88211290D01*
X62145924Y-88368983D01*
X62176685Y-88523626D01*
X62176688Y-88523638D01*
X62222613Y-88634511D01*
X62230082Y-88703980D01*
X62198807Y-88766459D01*
X62155505Y-88796524D01*
X62048912Y-88840676D01*
X62048902Y-88840681D01*
X61917799Y-88928282D01*
X61917795Y-88928285D01*
X61806301Y-89039779D01*
X61806298Y-89039783D01*
X61718697Y-89170886D01*
X61718690Y-89170899D01*
X61658352Y-89316570D01*
X61658349Y-89316582D01*
X61627588Y-89471225D01*
X61627588Y-89628918D01*
X61658349Y-89783561D01*
X61658352Y-89783573D01*
X61718690Y-89929244D01*
X61718697Y-89929257D01*
X61806298Y-90060360D01*
X61806301Y-90060364D01*
X61917795Y-90171858D01*
X61917799Y-90171861D01*
X62048902Y-90259462D01*
X62048915Y-90259469D01*
X62191892Y-90318691D01*
X62194591Y-90319809D01*
X62333712Y-90347482D01*
X62349241Y-90350571D01*
X62349244Y-90350572D01*
X62349246Y-90350572D01*
X62506932Y-90350572D01*
X62506933Y-90350571D01*
X62661585Y-90319809D01*
X62807267Y-90259466D01*
X62938377Y-90171861D01*
X63049877Y-90060361D01*
X63087506Y-90004044D01*
X63141117Y-89959240D01*
X63170149Y-89950635D01*
X63180306Y-89948936D01*
X63200716Y-89948936D01*
X63308654Y-89927465D01*
X63310505Y-89927156D01*
X63343397Y-89931117D01*
X63376364Y-89934067D01*
X63377918Y-89935274D01*
X63379874Y-89935510D01*
X63405399Y-89956622D01*
X63431541Y-89976930D01*
X63432195Y-89978786D01*
X63433714Y-89980042D01*
X63443770Y-90011595D01*
X63454786Y-90042819D01*
X63454637Y-90045690D01*
X63454931Y-90046612D01*
X63454508Y-90048184D01*
X63453438Y-90068847D01*
X63449500Y-90093713D01*
X63449500Y-90306287D01*
X63450546Y-90312892D01*
X63478440Y-90489009D01*
X63482754Y-90516243D01*
X63544092Y-90705022D01*
X63548444Y-90718414D01*
X63644951Y-90907820D01*
X63769890Y-91079786D01*
X63920213Y-91230109D01*
X64092182Y-91355050D01*
X64100946Y-91359516D01*
X64151742Y-91407491D01*
X64168536Y-91475312D01*
X64145998Y-91541447D01*
X64100946Y-91580484D01*
X64092182Y-91584949D01*
X63920213Y-91709890D01*
X63769890Y-91860213D01*
X63644951Y-92032179D01*
X63548444Y-92221585D01*
X63482753Y-92423760D01*
X63452159Y-92616927D01*
X63449500Y-92633713D01*
X63449500Y-92846287D01*
X63450970Y-92855567D01*
X63471667Y-92986247D01*
X63482754Y-93056243D01*
X63547004Y-93253984D01*
X63548444Y-93258414D01*
X63644951Y-93447820D01*
X63769890Y-93619786D01*
X63920213Y-93770109D01*
X64092182Y-93895050D01*
X64100946Y-93899516D01*
X64151742Y-93947491D01*
X64168536Y-94015312D01*
X64145998Y-94081447D01*
X64100946Y-94120484D01*
X64092182Y-94124949D01*
X63920213Y-94249890D01*
X63769890Y-94400213D01*
X63644951Y-94572179D01*
X63548444Y-94761585D01*
X63482753Y-94963760D01*
X63478801Y-94988713D01*
X63449500Y-95173713D01*
X63449500Y-95386287D01*
X63482754Y-95596243D01*
X63545388Y-95789011D01*
X63548444Y-95798414D01*
X63644951Y-95987820D01*
X63769890Y-96159786D01*
X63920213Y-96310109D01*
X64092182Y-96435050D01*
X64100946Y-96439516D01*
X64151742Y-96487491D01*
X64168536Y-96555312D01*
X64145998Y-96621447D01*
X64100946Y-96660484D01*
X64092182Y-96664949D01*
X63920213Y-96789890D01*
X63769890Y-96940213D01*
X63644951Y-97112179D01*
X63548444Y-97301585D01*
X63482753Y-97503760D01*
X63478801Y-97528713D01*
X63449500Y-97713713D01*
X63449500Y-97926287D01*
X63482754Y-98136243D01*
X63514555Y-98234117D01*
X63548444Y-98338414D01*
X63644951Y-98527820D01*
X63769890Y-98699786D01*
X63920213Y-98850109D01*
X64092179Y-98975048D01*
X64092181Y-98975049D01*
X64092184Y-98975051D01*
X64281588Y-99071557D01*
X64483757Y-99137246D01*
X64693713Y-99170500D01*
X64693714Y-99170500D01*
X64906286Y-99170500D01*
X64906287Y-99170500D01*
X65116243Y-99137246D01*
X65318412Y-99071557D01*
X65507816Y-98975051D01*
X65560602Y-98936700D01*
X65679786Y-98850109D01*
X65679788Y-98850106D01*
X65679792Y-98850104D01*
X65830104Y-98699792D01*
X65830106Y-98699788D01*
X65830109Y-98699786D01*
X65955048Y-98527820D01*
X65955047Y-98527820D01*
X65955051Y-98527816D01*
X66051557Y-98338412D01*
X66117246Y-98136243D01*
X66150500Y-97926287D01*
X66150500Y-97713713D01*
X66117246Y-97503757D01*
X66051557Y-97301588D01*
X65955051Y-97112184D01*
X65955049Y-97112181D01*
X65955048Y-97112179D01*
X65830109Y-96940213D01*
X65679786Y-96789890D01*
X65507820Y-96664951D01*
X65507115Y-96664591D01*
X65499054Y-96660485D01*
X65448259Y-96612512D01*
X65431463Y-96544692D01*
X65453999Y-96478556D01*
X65499054Y-96439515D01*
X65507816Y-96435051D01*
X65545511Y-96407664D01*
X65679786Y-96310109D01*
X65679788Y-96310106D01*
X65679792Y-96310104D01*
X65830104Y-96159792D01*
X65830106Y-96159788D01*
X65830109Y-96159786D01*
X65933901Y-96016927D01*
X75256600Y-96016927D01*
X75256600Y-96183072D01*
X75289009Y-96346003D01*
X75289012Y-96346015D01*
X75352584Y-96499493D01*
X75352591Y-96499506D01*
X75444887Y-96637635D01*
X75444890Y-96637639D01*
X75562360Y-96755109D01*
X75562364Y-96755112D01*
X75700493Y-96847408D01*
X75700506Y-96847415D01*
X75853984Y-96910987D01*
X75853989Y-96910989D01*
X76000885Y-96940208D01*
X76016927Y-96943399D01*
X76016931Y-96943400D01*
X76016932Y-96943400D01*
X76183069Y-96943400D01*
X76183070Y-96943399D01*
X76346011Y-96910989D01*
X76499500Y-96847412D01*
X76637636Y-96755112D01*
X76755112Y-96637636D01*
X76847412Y-96499500D01*
X76910989Y-96346011D01*
X76943400Y-96183068D01*
X76943400Y-96016932D01*
X76910989Y-95853989D01*
X76887969Y-95798414D01*
X76847415Y-95700506D01*
X76847408Y-95700493D01*
X76755112Y-95562364D01*
X76755109Y-95562360D01*
X76637639Y-95444890D01*
X76637635Y-95444887D01*
X76499506Y-95352591D01*
X76499493Y-95352584D01*
X76346015Y-95289012D01*
X76346003Y-95289009D01*
X76183072Y-95256600D01*
X76183068Y-95256600D01*
X76016932Y-95256600D01*
X76016927Y-95256600D01*
X75853996Y-95289009D01*
X75853984Y-95289012D01*
X75700506Y-95352584D01*
X75700493Y-95352591D01*
X75562364Y-95444887D01*
X75562360Y-95444890D01*
X75444890Y-95562360D01*
X75444887Y-95562364D01*
X75352591Y-95700493D01*
X75352584Y-95700506D01*
X75289012Y-95853984D01*
X75289009Y-95853996D01*
X75256600Y-96016927D01*
X65933901Y-96016927D01*
X65955050Y-95987817D01*
X65972003Y-95954546D01*
X65972003Y-95954545D01*
X66051557Y-95798412D01*
X66117246Y-95596243D01*
X66150500Y-95386287D01*
X66150500Y-95173713D01*
X66117246Y-94963757D01*
X66051557Y-94761588D01*
X65955051Y-94572184D01*
X65955049Y-94572181D01*
X65955048Y-94572179D01*
X65830109Y-94400213D01*
X65679786Y-94249890D01*
X65507820Y-94124951D01*
X65507115Y-94124591D01*
X65499054Y-94120485D01*
X65448259Y-94072512D01*
X65431463Y-94004692D01*
X65453999Y-93938556D01*
X65499054Y-93899515D01*
X65507816Y-93895051D01*
X65538867Y-93872491D01*
X65679786Y-93770109D01*
X65679788Y-93770106D01*
X65679792Y-93770104D01*
X65830104Y-93619792D01*
X65830106Y-93619788D01*
X65830109Y-93619786D01*
X65884899Y-93544371D01*
X65955051Y-93447816D01*
X65970790Y-93416927D01*
X70556600Y-93416927D01*
X70556600Y-93583072D01*
X70589009Y-93746003D01*
X70589012Y-93746015D01*
X70652584Y-93899493D01*
X70652591Y-93899506D01*
X70744887Y-94037635D01*
X70744890Y-94037639D01*
X70862360Y-94155109D01*
X70862364Y-94155112D01*
X71000493Y-94247408D01*
X71000506Y-94247415D01*
X71083556Y-94281815D01*
X71153989Y-94310989D01*
X71316927Y-94343399D01*
X71316931Y-94343400D01*
X71316932Y-94343400D01*
X71483069Y-94343400D01*
X71483070Y-94343399D01*
X71646011Y-94310989D01*
X71764721Y-94261817D01*
X71799493Y-94247415D01*
X71799493Y-94247414D01*
X71799500Y-94247412D01*
X71937636Y-94155112D01*
X72055112Y-94037636D01*
X72147412Y-93899500D01*
X72210989Y-93746011D01*
X72243400Y-93583068D01*
X72243400Y-93416932D01*
X72210989Y-93253989D01*
X72204217Y-93237639D01*
X72147415Y-93100506D01*
X72147408Y-93100493D01*
X72055112Y-92962364D01*
X72055109Y-92962360D01*
X71937639Y-92844890D01*
X71937635Y-92844887D01*
X71799506Y-92752591D01*
X71799493Y-92752584D01*
X71646015Y-92689012D01*
X71646003Y-92689009D01*
X71483072Y-92656600D01*
X71483068Y-92656600D01*
X71316932Y-92656600D01*
X71316927Y-92656600D01*
X71153996Y-92689009D01*
X71153984Y-92689012D01*
X71000506Y-92752584D01*
X71000493Y-92752591D01*
X70862364Y-92844887D01*
X70862360Y-92844890D01*
X70744890Y-92962360D01*
X70744887Y-92962364D01*
X70652591Y-93100493D01*
X70652584Y-93100506D01*
X70589012Y-93253984D01*
X70589009Y-93253996D01*
X70556600Y-93416927D01*
X65970790Y-93416927D01*
X66051557Y-93258412D01*
X66117246Y-93056243D01*
X66150500Y-92846287D01*
X66150500Y-92633713D01*
X66117246Y-92423757D01*
X66051557Y-92221588D01*
X65955051Y-92032184D01*
X65955049Y-92032181D01*
X65955048Y-92032179D01*
X65830109Y-91860213D01*
X65679786Y-91709890D01*
X65507820Y-91584951D01*
X65507115Y-91584591D01*
X65499054Y-91580485D01*
X65448259Y-91532512D01*
X65431463Y-91464692D01*
X65453999Y-91398556D01*
X65499054Y-91359515D01*
X65507816Y-91355051D01*
X65546275Y-91327109D01*
X65679786Y-91230109D01*
X65679788Y-91230106D01*
X65679792Y-91230104D01*
X65830104Y-91079792D01*
X65830106Y-91079788D01*
X65830109Y-91079786D01*
X65955048Y-90907820D01*
X65955047Y-90907820D01*
X65955051Y-90907816D01*
X66051557Y-90718412D01*
X66117246Y-90516243D01*
X66150500Y-90306287D01*
X66150500Y-90093713D01*
X66117246Y-89883757D01*
X66051557Y-89681588D01*
X65955051Y-89492184D01*
X65955049Y-89492181D01*
X65955048Y-89492179D01*
X65830109Y-89320213D01*
X65679786Y-89169890D01*
X65507820Y-89044951D01*
X65507115Y-89044591D01*
X65499054Y-89040485D01*
X65448259Y-88992512D01*
X65431463Y-88924692D01*
X65453999Y-88858556D01*
X65499054Y-88819515D01*
X65507816Y-88815051D01*
X65550937Y-88783722D01*
X65679786Y-88690109D01*
X65679788Y-88690106D01*
X65679792Y-88690104D01*
X65830104Y-88539792D01*
X65830106Y-88539788D01*
X65830109Y-88539786D01*
X65952010Y-88372001D01*
X65955051Y-88367816D01*
X66051557Y-88178412D01*
X66117246Y-87976243D01*
X66150500Y-87766287D01*
X66150500Y-87553713D01*
X66117246Y-87343757D01*
X66051557Y-87141588D01*
X65955051Y-86952184D01*
X65955049Y-86952181D01*
X65955048Y-86952179D01*
X65830109Y-86780213D01*
X65679786Y-86629890D01*
X65507820Y-86504951D01*
X65507115Y-86504591D01*
X65499054Y-86500485D01*
X65448259Y-86452512D01*
X65431463Y-86384692D01*
X65453999Y-86318556D01*
X65499054Y-86279515D01*
X65507816Y-86275051D01*
X65547788Y-86246010D01*
X65679786Y-86150109D01*
X65679788Y-86150106D01*
X65679792Y-86150104D01*
X65830104Y-85999792D01*
X65830106Y-85999788D01*
X65830109Y-85999786D01*
X65955048Y-85827820D01*
X65955047Y-85827820D01*
X65955051Y-85827816D01*
X66051557Y-85638412D01*
X66117070Y-85436784D01*
X69399500Y-85436784D01*
X69399500Y-85602929D01*
X69431909Y-85765860D01*
X69431912Y-85765872D01*
X69495484Y-85919350D01*
X69495491Y-85919363D01*
X69587787Y-86057492D01*
X69587790Y-86057496D01*
X69705261Y-86174967D01*
X69705264Y-86174969D01*
X69731350Y-86192399D01*
X69776154Y-86246010D01*
X69784863Y-86315335D01*
X69765561Y-86364392D01*
X69725134Y-86424894D01*
X69725127Y-86424907D01*
X69661555Y-86578385D01*
X69661552Y-86578397D01*
X69629143Y-86741328D01*
X69629143Y-86907473D01*
X69661552Y-87070404D01*
X69661555Y-87070416D01*
X69725127Y-87223894D01*
X69725134Y-87223907D01*
X69817429Y-87362035D01*
X69817430Y-87362036D01*
X69817431Y-87362037D01*
X69838632Y-87383238D01*
X69872117Y-87444559D01*
X69867134Y-87514250D01*
X69838633Y-87558600D01*
X69770668Y-87626565D01*
X69678372Y-87764694D01*
X69678365Y-87764707D01*
X69614793Y-87918185D01*
X69614790Y-87918197D01*
X69582381Y-88081128D01*
X69582381Y-88247273D01*
X69614790Y-88410204D01*
X69614793Y-88410216D01*
X69678365Y-88563694D01*
X69678372Y-88563707D01*
X69770668Y-88701836D01*
X69770671Y-88701840D01*
X69807499Y-88738668D01*
X69840984Y-88799991D01*
X69836000Y-88869683D01*
X69822920Y-88895240D01*
X69752591Y-89000493D01*
X69752584Y-89000506D01*
X69689012Y-89153984D01*
X69689009Y-89153996D01*
X69656600Y-89316927D01*
X69656600Y-89483072D01*
X69689009Y-89646003D01*
X69689012Y-89646015D01*
X69752584Y-89799493D01*
X69752591Y-89799506D01*
X69844887Y-89937635D01*
X69844890Y-89937639D01*
X69962360Y-90055109D01*
X69962364Y-90055112D01*
X70100493Y-90147408D01*
X70100506Y-90147415D01*
X70253984Y-90210987D01*
X70253989Y-90210989D01*
X70291434Y-90218437D01*
X70353343Y-90250821D01*
X70387918Y-90311536D01*
X70384179Y-90381305D01*
X70343314Y-90437978D01*
X70291433Y-90461671D01*
X70153996Y-90489009D01*
X70153984Y-90489012D01*
X70000506Y-90552584D01*
X70000493Y-90552591D01*
X69862364Y-90644887D01*
X69862360Y-90644890D01*
X69744890Y-90762360D01*
X69744887Y-90762364D01*
X69652591Y-90900493D01*
X69652584Y-90900506D01*
X69589012Y-91053984D01*
X69589009Y-91053996D01*
X69556600Y-91216927D01*
X69556600Y-91383072D01*
X69589009Y-91546003D01*
X69589012Y-91546015D01*
X69652584Y-91699493D01*
X69652591Y-91699506D01*
X69744887Y-91837635D01*
X69744890Y-91837639D01*
X69862360Y-91955109D01*
X69862364Y-91955112D01*
X70000493Y-92047408D01*
X70000506Y-92047415D01*
X70153984Y-92110987D01*
X70153989Y-92110989D01*
X70302453Y-92140520D01*
X70316927Y-92143399D01*
X70316931Y-92143400D01*
X70316932Y-92143400D01*
X70483069Y-92143400D01*
X70483070Y-92143399D01*
X70646011Y-92110989D01*
X70799500Y-92047412D01*
X70937636Y-91955112D01*
X71055112Y-91837636D01*
X71147412Y-91699500D01*
X71210989Y-91546011D01*
X71243400Y-91383068D01*
X71243400Y-91221153D01*
X75599500Y-91221153D01*
X75599500Y-91378846D01*
X75630261Y-91533489D01*
X75630264Y-91533501D01*
X75690602Y-91679172D01*
X75690609Y-91679185D01*
X75778210Y-91810288D01*
X75778213Y-91810292D01*
X75889707Y-91921786D01*
X75889711Y-91921789D01*
X76020814Y-92009390D01*
X76020827Y-92009397D01*
X76136069Y-92057131D01*
X76166503Y-92069737D01*
X76312928Y-92098863D01*
X76321153Y-92100499D01*
X76321156Y-92100500D01*
X76321158Y-92100500D01*
X76478844Y-92100500D01*
X76478845Y-92100499D01*
X76633497Y-92069737D01*
X76779179Y-92009394D01*
X76910289Y-91921789D01*
X77021789Y-91810289D01*
X77109394Y-91679179D01*
X77114614Y-91666578D01*
X77148425Y-91584949D01*
X77169737Y-91533497D01*
X77200500Y-91378842D01*
X77200500Y-91221158D01*
X77200500Y-91221155D01*
X77200499Y-91221153D01*
X77197698Y-91207072D01*
X77169737Y-91066503D01*
X77169735Y-91066498D01*
X77109397Y-90920827D01*
X77109390Y-90920814D01*
X77021789Y-90789711D01*
X77021786Y-90789707D01*
X76910292Y-90678213D01*
X76910288Y-90678210D01*
X76779185Y-90590609D01*
X76779172Y-90590602D01*
X76633501Y-90530264D01*
X76633489Y-90530261D01*
X76478845Y-90499500D01*
X76478842Y-90499500D01*
X76321158Y-90499500D01*
X76321155Y-90499500D01*
X76166510Y-90530261D01*
X76166498Y-90530264D01*
X76020827Y-90590602D01*
X76020814Y-90590609D01*
X75889711Y-90678210D01*
X75889707Y-90678213D01*
X75778213Y-90789707D01*
X75778210Y-90789711D01*
X75690609Y-90920814D01*
X75690602Y-90920827D01*
X75630264Y-91066498D01*
X75630261Y-91066510D01*
X75599500Y-91221153D01*
X71243400Y-91221153D01*
X71243400Y-91216932D01*
X71210989Y-91053989D01*
X71210953Y-91053903D01*
X71147415Y-90900506D01*
X71147408Y-90900493D01*
X71055112Y-90762364D01*
X71055109Y-90762360D01*
X70937639Y-90644890D01*
X70937635Y-90644887D01*
X70799506Y-90552591D01*
X70799493Y-90552584D01*
X70646015Y-90489012D01*
X70646005Y-90489009D01*
X70608565Y-90481562D01*
X70546654Y-90449177D01*
X70512080Y-90388461D01*
X70515820Y-90318691D01*
X70556687Y-90262020D01*
X70608563Y-90238328D01*
X70746011Y-90210989D01*
X70899500Y-90147412D01*
X71037636Y-90055112D01*
X71155112Y-89937636D01*
X71247412Y-89799500D01*
X71252835Y-89786409D01*
X71272291Y-89739437D01*
X71310989Y-89646011D01*
X71343400Y-89483068D01*
X71343400Y-89316932D01*
X71310989Y-89153989D01*
X71310718Y-89153334D01*
X71247415Y-89000506D01*
X71247408Y-89000493D01*
X71155112Y-88862364D01*
X71155109Y-88862360D01*
X71118281Y-88825532D01*
X71084796Y-88764209D01*
X71089780Y-88694517D01*
X71102861Y-88668959D01*
X71123450Y-88638147D01*
X71157588Y-88587056D01*
X71173188Y-88563709D01*
X71173189Y-88563706D01*
X71173193Y-88563701D01*
X71236770Y-88410212D01*
X71269181Y-88247269D01*
X71269181Y-88081133D01*
X71236770Y-87918190D01*
X71233777Y-87910964D01*
X71173196Y-87764707D01*
X71173189Y-87764694D01*
X71084750Y-87632337D01*
X71084749Y-87632336D01*
X71080893Y-87626565D01*
X71058168Y-87603840D01*
X71056697Y-87602263D01*
X71041951Y-87572875D01*
X71035567Y-87561183D01*
X81776227Y-87561183D01*
X81776227Y-87718876D01*
X81806988Y-87873519D01*
X81806991Y-87873531D01*
X81867329Y-88019202D01*
X81867336Y-88019215D01*
X81954937Y-88150318D01*
X81954940Y-88150322D01*
X82066434Y-88261816D01*
X82066438Y-88261819D01*
X82197541Y-88349420D01*
X82197554Y-88349427D01*
X82341791Y-88409171D01*
X82343230Y-88409767D01*
X82479586Y-88436890D01*
X82497880Y-88440529D01*
X82497883Y-88440530D01*
X82635391Y-88440530D01*
X82702430Y-88460215D01*
X82748185Y-88513019D01*
X82758129Y-88582177D01*
X82738493Y-88633421D01*
X82711203Y-88674262D01*
X82711196Y-88674275D01*
X82650858Y-88819946D01*
X82650855Y-88819958D01*
X82620094Y-88974601D01*
X82620094Y-89132294D01*
X82650855Y-89286937D01*
X82650858Y-89286949D01*
X82711196Y-89432620D01*
X82711203Y-89432633D01*
X82798804Y-89563736D01*
X82798807Y-89563740D01*
X82910301Y-89675234D01*
X82910305Y-89675237D01*
X83041408Y-89762838D01*
X83041421Y-89762845D01*
X83091464Y-89783573D01*
X83187097Y-89823185D01*
X83227350Y-89831191D01*
X83289261Y-89863576D01*
X83323835Y-89924292D01*
X83324775Y-89928612D01*
X83327250Y-89941055D01*
X83327254Y-89941068D01*
X83387592Y-90086739D01*
X83387599Y-90086752D01*
X83475200Y-90217855D01*
X83475203Y-90217859D01*
X83586697Y-90329353D01*
X83586701Y-90329356D01*
X83717804Y-90416957D01*
X83717817Y-90416964D01*
X83828245Y-90462704D01*
X83863493Y-90477304D01*
X84018143Y-90508066D01*
X84018146Y-90508067D01*
X84018148Y-90508067D01*
X84175834Y-90508067D01*
X84175835Y-90508066D01*
X84330487Y-90477304D01*
X84451317Y-90427255D01*
X84476162Y-90416964D01*
X84476162Y-90416963D01*
X84476169Y-90416961D01*
X84607279Y-90329356D01*
X84718779Y-90217856D01*
X84806384Y-90086746D01*
X84807582Y-90083855D01*
X84836382Y-90014324D01*
X84866727Y-89941064D01*
X84897490Y-89786409D01*
X84897490Y-89628725D01*
X84897490Y-89628722D01*
X84897489Y-89628720D01*
X84895970Y-89621083D01*
X84866727Y-89474070D01*
X84850500Y-89434894D01*
X84829539Y-89384289D01*
X84812406Y-89342924D01*
X86706409Y-89342924D01*
X86706409Y-89500617D01*
X86737170Y-89655260D01*
X86737173Y-89655272D01*
X86797511Y-89800943D01*
X86797518Y-89800956D01*
X86885119Y-89932059D01*
X86885122Y-89932063D01*
X86996616Y-90043557D01*
X86996620Y-90043560D01*
X87127723Y-90131161D01*
X87127736Y-90131168D01*
X87273407Y-90191506D01*
X87273412Y-90191508D01*
X87422457Y-90221155D01*
X87428062Y-90222270D01*
X87428065Y-90222271D01*
X87428067Y-90222271D01*
X87585753Y-90222271D01*
X87585754Y-90222270D01*
X87740406Y-90191508D01*
X87853075Y-90144838D01*
X87886081Y-90131168D01*
X87886081Y-90131167D01*
X87886088Y-90131165D01*
X88017198Y-90043560D01*
X88128698Y-89932060D01*
X88144298Y-89908713D01*
X88156501Y-89890451D01*
X88210113Y-89845645D01*
X88259603Y-89835341D01*
X88342581Y-89835341D01*
X88342582Y-89835340D01*
X88497234Y-89804578D01*
X88609903Y-89757908D01*
X88642909Y-89744238D01*
X88642909Y-89744237D01*
X88642916Y-89744235D01*
X88774026Y-89656630D01*
X88885526Y-89545130D01*
X88973131Y-89414020D01*
X89033474Y-89268338D01*
X89064237Y-89113683D01*
X89064237Y-88955999D01*
X89064237Y-88955996D01*
X89064236Y-88955994D01*
X89056581Y-88917512D01*
X89033474Y-88801344D01*
X89032910Y-88799982D01*
X88973134Y-88655668D01*
X88973127Y-88655655D01*
X88885526Y-88524552D01*
X88885523Y-88524548D01*
X88819800Y-88458825D01*
X88786315Y-88397502D01*
X88785864Y-88346952D01*
X88786441Y-88344054D01*
X88802342Y-88264113D01*
X88809120Y-88230040D01*
X88809120Y-88072351D01*
X88809119Y-88072349D01*
X88804260Y-88047923D01*
X88778357Y-87917699D01*
X88768518Y-87893946D01*
X88718017Y-87772023D01*
X88718010Y-87772010D01*
X88630409Y-87640907D01*
X88630406Y-87640903D01*
X88518912Y-87529409D01*
X88518908Y-87529406D01*
X88402540Y-87451651D01*
X89009743Y-87451651D01*
X89009743Y-87609344D01*
X89040504Y-87763987D01*
X89040507Y-87763999D01*
X89100845Y-87909670D01*
X89100852Y-87909683D01*
X89188453Y-88040786D01*
X89188456Y-88040790D01*
X89299950Y-88152284D01*
X89299954Y-88152287D01*
X89431057Y-88239888D01*
X89431070Y-88239895D01*
X89558835Y-88292816D01*
X89576746Y-88300235D01*
X89685105Y-88321789D01*
X89731396Y-88330997D01*
X89731399Y-88330998D01*
X89736198Y-88330998D01*
X89803237Y-88350683D01*
X89848992Y-88403487D01*
X89858936Y-88472645D01*
X89850760Y-88502448D01*
X89844451Y-88517679D01*
X89844448Y-88517690D01*
X89813687Y-88672333D01*
X89813687Y-88830026D01*
X89844448Y-88984669D01*
X89844451Y-88984681D01*
X89904789Y-89130352D01*
X89904796Y-89130365D01*
X89992397Y-89261468D01*
X89992400Y-89261472D01*
X90103894Y-89372966D01*
X90103898Y-89372969D01*
X90235001Y-89460570D01*
X90235014Y-89460577D01*
X90380386Y-89520791D01*
X90380690Y-89520917D01*
X90380694Y-89520917D01*
X90386522Y-89522686D01*
X90385725Y-89525310D01*
X90437174Y-89552202D01*
X90471766Y-89612908D01*
X90468047Y-89682678D01*
X90438780Y-89729141D01*
X90378210Y-89789711D01*
X90290609Y-89920814D01*
X90290602Y-89920827D01*
X90230264Y-90066498D01*
X90230261Y-90066510D01*
X90199500Y-90221153D01*
X90199500Y-90378846D01*
X90230261Y-90533489D01*
X90230264Y-90533501D01*
X90290602Y-90679172D01*
X90290609Y-90679185D01*
X90378210Y-90810288D01*
X90378213Y-90810292D01*
X90489707Y-90921786D01*
X90489711Y-90921789D01*
X90620814Y-91009390D01*
X90620827Y-91009397D01*
X90758683Y-91066498D01*
X90766503Y-91069737D01*
X90921153Y-91100499D01*
X90921156Y-91100500D01*
X90921158Y-91100500D01*
X91078844Y-91100500D01*
X91078845Y-91100499D01*
X91233497Y-91069737D01*
X91379179Y-91009394D01*
X91510289Y-90921789D01*
X91621789Y-90810289D01*
X91709394Y-90679179D01*
X91716393Y-90662283D01*
X91745016Y-90593180D01*
X91769737Y-90533497D01*
X91800500Y-90378842D01*
X91800500Y-90221158D01*
X91800500Y-90221155D01*
X91800499Y-90221153D01*
X91790694Y-90171861D01*
X91769737Y-90066503D01*
X91765019Y-90055112D01*
X91709397Y-89920827D01*
X91709390Y-89920814D01*
X91621789Y-89789711D01*
X91621786Y-89789707D01*
X91510292Y-89678213D01*
X91510288Y-89678210D01*
X91379185Y-89590609D01*
X91379172Y-89590602D01*
X91233501Y-89530264D01*
X91227665Y-89528494D01*
X91228451Y-89525900D01*
X91176892Y-89498861D01*
X91142382Y-89438109D01*
X91146194Y-89368344D01*
X91175405Y-89322039D01*
X91235976Y-89261469D01*
X91323581Y-89130359D01*
X91383924Y-88984677D01*
X91414687Y-88830022D01*
X91414687Y-88672338D01*
X91414687Y-88672335D01*
X91414686Y-88672333D01*
X91411370Y-88655662D01*
X91383924Y-88517683D01*
X91372400Y-88489861D01*
X91323584Y-88372007D01*
X91323577Y-88371994D01*
X91235976Y-88240891D01*
X91235973Y-88240887D01*
X91124479Y-88129393D01*
X91124475Y-88129390D01*
X90993372Y-88041789D01*
X90993359Y-88041782D01*
X90847688Y-87981444D01*
X90847676Y-87981441D01*
X90693032Y-87950680D01*
X90693029Y-87950680D01*
X90688232Y-87950680D01*
X90621193Y-87930995D01*
X90575438Y-87878191D01*
X90565494Y-87809033D01*
X90573670Y-87779230D01*
X90577105Y-87770936D01*
X90579980Y-87763995D01*
X90610743Y-87609340D01*
X90610743Y-87451656D01*
X90610743Y-87451653D01*
X90610742Y-87451651D01*
X90609331Y-87444559D01*
X90579980Y-87297001D01*
X90565006Y-87260851D01*
X90519640Y-87151325D01*
X90519633Y-87151312D01*
X90432032Y-87020209D01*
X90432029Y-87020205D01*
X90320535Y-86908711D01*
X90320531Y-86908708D01*
X90189428Y-86821107D01*
X90189415Y-86821100D01*
X90043744Y-86760762D01*
X90043732Y-86760759D01*
X89889088Y-86729998D01*
X89889085Y-86729998D01*
X89731401Y-86729998D01*
X89731398Y-86729998D01*
X89576753Y-86760759D01*
X89576741Y-86760762D01*
X89431070Y-86821100D01*
X89431057Y-86821107D01*
X89299954Y-86908708D01*
X89299950Y-86908711D01*
X89188456Y-87020205D01*
X89188453Y-87020209D01*
X89100852Y-87151312D01*
X89100845Y-87151325D01*
X89040507Y-87296996D01*
X89040504Y-87297008D01*
X89009743Y-87451651D01*
X88402540Y-87451651D01*
X88387805Y-87441805D01*
X88387792Y-87441798D01*
X88242121Y-87381460D01*
X88242109Y-87381457D01*
X88087465Y-87350696D01*
X88087462Y-87350696D01*
X87929778Y-87350696D01*
X87929775Y-87350696D01*
X87775130Y-87381457D01*
X87775118Y-87381460D01*
X87629447Y-87441798D01*
X87629434Y-87441805D01*
X87498331Y-87529406D01*
X87498327Y-87529409D01*
X87386833Y-87640903D01*
X87386830Y-87640907D01*
X87299229Y-87772010D01*
X87299222Y-87772023D01*
X87238884Y-87917694D01*
X87238881Y-87917706D01*
X87208120Y-88072349D01*
X87208120Y-88230042D01*
X87238881Y-88384685D01*
X87238884Y-88384697D01*
X87291005Y-88510530D01*
X87298474Y-88580000D01*
X87267198Y-88642479D01*
X87223897Y-88672543D01*
X87127733Y-88712375D01*
X87127723Y-88712380D01*
X86996620Y-88799981D01*
X86996616Y-88799984D01*
X86885122Y-88911478D01*
X86885119Y-88911482D01*
X86797518Y-89042585D01*
X86797511Y-89042598D01*
X86737173Y-89188269D01*
X86737170Y-89188281D01*
X86706409Y-89342924D01*
X84812406Y-89342924D01*
X84806387Y-89328393D01*
X84806380Y-89328381D01*
X84718779Y-89197278D01*
X84718776Y-89197274D01*
X84607282Y-89085780D01*
X84607278Y-89085777D01*
X84550104Y-89047574D01*
X84505299Y-88993961D01*
X84496592Y-88924636D01*
X84521652Y-88869116D01*
X84521360Y-88868921D01*
X84522532Y-88867166D01*
X84523151Y-88865796D01*
X84524738Y-88863861D01*
X84524744Y-88863856D01*
X84612349Y-88732746D01*
X84672692Y-88587064D01*
X84703455Y-88432409D01*
X84703455Y-88274725D01*
X84703455Y-88274722D01*
X84703454Y-88274720D01*
X84694567Y-88230042D01*
X84672692Y-88120070D01*
X84663563Y-88098031D01*
X84612352Y-87974394D01*
X84612345Y-87974381D01*
X84524744Y-87843278D01*
X84524741Y-87843274D01*
X84420399Y-87738932D01*
X84386914Y-87677609D01*
X84391898Y-87607917D01*
X84420399Y-87563570D01*
X84521786Y-87462182D01*
X84521789Y-87462179D01*
X84609394Y-87331069D01*
X84611780Y-87325310D01*
X84635204Y-87268757D01*
X84669737Y-87185387D01*
X84700500Y-87030732D01*
X84700500Y-86873048D01*
X84700500Y-86873045D01*
X84700499Y-86873043D01*
X84691717Y-86828894D01*
X84669737Y-86718393D01*
X84644480Y-86657417D01*
X84609397Y-86572717D01*
X84609390Y-86572704D01*
X84534832Y-86461121D01*
X84513954Y-86394444D01*
X84532438Y-86327064D01*
X84584417Y-86280373D01*
X84590453Y-86277681D01*
X84639698Y-86257284D01*
X84770808Y-86169679D01*
X84882308Y-86058179D01*
X84969913Y-85927069D01*
X84973105Y-85919364D01*
X84989525Y-85879722D01*
X85030256Y-85781387D01*
X85061019Y-85626732D01*
X85061019Y-85469048D01*
X85061019Y-85469045D01*
X85061018Y-85469043D01*
X85045754Y-85392305D01*
X85030256Y-85314393D01*
X85024501Y-85300500D01*
X84969916Y-85168717D01*
X84969909Y-85168704D01*
X84882308Y-85037601D01*
X84882305Y-85037597D01*
X84770811Y-84926103D01*
X84770807Y-84926100D01*
X84639704Y-84838499D01*
X84639691Y-84838492D01*
X84494020Y-84778154D01*
X84494008Y-84778151D01*
X84339364Y-84747390D01*
X84339361Y-84747390D01*
X84181677Y-84747390D01*
X84181674Y-84747390D01*
X84027029Y-84778151D01*
X84027017Y-84778154D01*
X83881346Y-84838492D01*
X83881333Y-84838499D01*
X83750230Y-84926100D01*
X83750226Y-84926103D01*
X83638732Y-85037597D01*
X83638729Y-85037601D01*
X83551128Y-85168704D01*
X83551121Y-85168717D01*
X83490783Y-85314388D01*
X83490780Y-85314400D01*
X83460019Y-85469043D01*
X83460019Y-85626736D01*
X83490780Y-85781379D01*
X83490783Y-85781391D01*
X83551121Y-85927062D01*
X83551128Y-85927075D01*
X83625686Y-86038658D01*
X83646564Y-86105336D01*
X83628080Y-86172716D01*
X83576101Y-86219406D01*
X83570037Y-86222110D01*
X83520823Y-86242494D01*
X83520814Y-86242499D01*
X83389711Y-86330100D01*
X83389707Y-86330103D01*
X83278213Y-86441597D01*
X83278210Y-86441601D01*
X83190609Y-86572704D01*
X83190602Y-86572717D01*
X83130264Y-86718388D01*
X83130261Y-86718398D01*
X83107463Y-86833012D01*
X83075078Y-86894923D01*
X83014362Y-86929497D01*
X82944593Y-86925757D01*
X82938394Y-86923382D01*
X82899975Y-86907469D01*
X82810224Y-86870293D01*
X82810219Y-86870292D01*
X82810216Y-86870291D01*
X82655572Y-86839530D01*
X82655569Y-86839530D01*
X82497885Y-86839530D01*
X82497882Y-86839530D01*
X82343237Y-86870291D01*
X82343225Y-86870294D01*
X82197554Y-86930632D01*
X82197541Y-86930639D01*
X82066438Y-87018240D01*
X82066434Y-87018243D01*
X81954940Y-87129737D01*
X81954937Y-87129741D01*
X81867336Y-87260844D01*
X81867329Y-87260857D01*
X81806991Y-87406528D01*
X81806988Y-87406540D01*
X81776227Y-87561183D01*
X71035567Y-87561183D01*
X71026206Y-87544039D01*
X71026365Y-87541810D01*
X71025363Y-87539813D01*
X71028845Y-87507129D01*
X71031190Y-87474347D01*
X71032567Y-87472204D01*
X71032766Y-87470337D01*
X71037749Y-87464141D01*
X71059690Y-87430001D01*
X71127655Y-87362037D01*
X71219955Y-87223901D01*
X71283532Y-87070412D01*
X71315943Y-86907469D01*
X71315943Y-86741333D01*
X71283532Y-86578390D01*
X71265902Y-86535827D01*
X71219958Y-86424907D01*
X71219951Y-86424894D01*
X71127655Y-86286765D01*
X71127652Y-86286761D01*
X71010182Y-86169291D01*
X71010174Y-86169285D01*
X70984093Y-86151858D01*
X70939287Y-86098246D01*
X70930580Y-86028921D01*
X70949882Y-85979864D01*
X70959741Y-85965109D01*
X70990312Y-85919357D01*
X71053889Y-85765868D01*
X71086300Y-85602925D01*
X71086300Y-85436789D01*
X71053889Y-85273846D01*
X71044525Y-85251239D01*
X70990315Y-85120363D01*
X70990308Y-85120350D01*
X70898012Y-84982221D01*
X70898009Y-84982217D01*
X70895135Y-84979343D01*
X70861650Y-84918020D01*
X70866634Y-84848328D01*
X70895133Y-84803982D01*
X70997800Y-84701316D01*
X71090100Y-84563180D01*
X71153677Y-84409691D01*
X71186088Y-84246748D01*
X71186088Y-84080612D01*
X71153677Y-83917669D01*
X71148386Y-83904896D01*
X71090103Y-83764186D01*
X71090096Y-83764173D01*
X70997800Y-83626044D01*
X70997797Y-83626040D01*
X70880327Y-83508570D01*
X70880323Y-83508567D01*
X70742194Y-83416271D01*
X70742181Y-83416264D01*
X70623179Y-83366973D01*
X70568775Y-83323133D01*
X70546710Y-83256838D01*
X70563989Y-83189139D01*
X70615126Y-83141528D01*
X70646440Y-83130795D01*
X70681934Y-83123734D01*
X70746011Y-83110989D01*
X70899500Y-83047412D01*
X71037636Y-82955112D01*
X71043838Y-82948910D01*
X85208956Y-82948910D01*
X85208956Y-83106603D01*
X85239717Y-83261246D01*
X85239720Y-83261258D01*
X85300058Y-83406929D01*
X85300065Y-83406942D01*
X85387666Y-83538045D01*
X85387669Y-83538049D01*
X85499163Y-83649543D01*
X85499167Y-83649546D01*
X85630270Y-83737147D01*
X85630283Y-83737154D01*
X85775954Y-83797492D01*
X85775959Y-83797494D01*
X85873826Y-83816961D01*
X85930609Y-83828256D01*
X85930612Y-83828257D01*
X85930614Y-83828257D01*
X86088300Y-83828257D01*
X86088301Y-83828256D01*
X86242953Y-83797494D01*
X86368090Y-83745661D01*
X86388628Y-83737154D01*
X86388628Y-83737153D01*
X86388635Y-83737151D01*
X86519745Y-83649546D01*
X86631245Y-83538046D01*
X86718850Y-83406936D01*
X86779193Y-83261254D01*
X86809956Y-83106599D01*
X86809956Y-82948915D01*
X86809956Y-82948912D01*
X86809955Y-82948910D01*
X86800327Y-82900506D01*
X86779193Y-82794260D01*
X86769885Y-82771788D01*
X86718853Y-82648584D01*
X86718846Y-82648571D01*
X86631245Y-82517468D01*
X86631242Y-82517464D01*
X86519748Y-82405970D01*
X86519744Y-82405967D01*
X86388641Y-82318366D01*
X86388628Y-82318359D01*
X86242957Y-82258021D01*
X86242945Y-82258018D01*
X86088301Y-82227257D01*
X86088298Y-82227257D01*
X85930614Y-82227257D01*
X85930611Y-82227257D01*
X85775966Y-82258018D01*
X85775954Y-82258021D01*
X85630283Y-82318359D01*
X85630270Y-82318366D01*
X85499167Y-82405967D01*
X85499163Y-82405970D01*
X85387669Y-82517464D01*
X85387666Y-82517468D01*
X85300065Y-82648571D01*
X85300058Y-82648584D01*
X85239720Y-82794255D01*
X85239717Y-82794267D01*
X85208956Y-82948910D01*
X71043838Y-82948910D01*
X71080784Y-82911964D01*
X71137607Y-82855142D01*
X71155109Y-82837639D01*
X71155112Y-82837636D01*
X71247412Y-82699500D01*
X71310989Y-82546011D01*
X71343400Y-82383068D01*
X71343400Y-82216932D01*
X71312500Y-82061585D01*
X71310990Y-82053993D01*
X71310988Y-82053986D01*
X71297388Y-82021153D01*
X90999500Y-82021153D01*
X90999500Y-82178846D01*
X91030261Y-82333489D01*
X91030264Y-82333501D01*
X91090602Y-82479172D01*
X91090609Y-82479185D01*
X91178210Y-82610288D01*
X91178213Y-82610292D01*
X91289707Y-82721786D01*
X91289711Y-82721789D01*
X91420814Y-82809390D01*
X91420827Y-82809397D01*
X91531267Y-82855142D01*
X91566503Y-82869737D01*
X91699737Y-82896239D01*
X91721153Y-82900499D01*
X91721156Y-82900500D01*
X91721158Y-82900500D01*
X91878844Y-82900500D01*
X91878845Y-82900499D01*
X92033497Y-82869737D01*
X92179179Y-82809394D01*
X92310289Y-82721789D01*
X92421789Y-82610289D01*
X92509394Y-82479179D01*
X92569737Y-82333497D01*
X92600500Y-82178842D01*
X92600500Y-82021158D01*
X92600500Y-82021155D01*
X92600499Y-82021153D01*
X92569737Y-81866503D01*
X92569735Y-81866498D01*
X92509397Y-81720827D01*
X92509390Y-81720814D01*
X92421789Y-81589711D01*
X92421786Y-81589707D01*
X92310292Y-81478213D01*
X92310288Y-81478210D01*
X92179185Y-81390609D01*
X92179172Y-81390602D01*
X92033501Y-81330264D01*
X92033489Y-81330261D01*
X91878845Y-81299500D01*
X91878842Y-81299500D01*
X91721158Y-81299500D01*
X91721155Y-81299500D01*
X91566510Y-81330261D01*
X91566498Y-81330264D01*
X91420827Y-81390602D01*
X91420814Y-81390609D01*
X91289711Y-81478210D01*
X91289707Y-81478213D01*
X91178213Y-81589707D01*
X91178210Y-81589711D01*
X91090609Y-81720814D01*
X91090602Y-81720827D01*
X91030264Y-81866498D01*
X91030261Y-81866510D01*
X90999500Y-82021153D01*
X71297388Y-82021153D01*
X71247415Y-81900506D01*
X71247408Y-81900493D01*
X71155112Y-81762364D01*
X71155109Y-81762360D01*
X71037639Y-81644890D01*
X71037635Y-81644887D01*
X70899506Y-81552591D01*
X70899493Y-81552584D01*
X70746015Y-81489012D01*
X70746003Y-81489009D01*
X70583072Y-81456600D01*
X70583068Y-81456600D01*
X70416932Y-81456600D01*
X70416927Y-81456600D01*
X70253996Y-81489009D01*
X70253984Y-81489012D01*
X70100506Y-81552584D01*
X70100493Y-81552591D01*
X69962364Y-81644887D01*
X69962360Y-81644890D01*
X69844890Y-81762360D01*
X69844887Y-81762364D01*
X69752591Y-81900493D01*
X69752584Y-81900506D01*
X69689012Y-82053984D01*
X69689009Y-82053996D01*
X69656600Y-82216927D01*
X69656600Y-82383072D01*
X69689009Y-82546003D01*
X69689012Y-82546015D01*
X69752584Y-82699493D01*
X69752591Y-82699506D01*
X69844887Y-82837635D01*
X69844890Y-82837639D01*
X69962360Y-82955109D01*
X69962364Y-82955112D01*
X70100493Y-83047408D01*
X70100497Y-83047410D01*
X70100500Y-83047412D01*
X70219509Y-83096707D01*
X70273912Y-83140546D01*
X70295977Y-83206840D01*
X70278698Y-83274540D01*
X70227562Y-83322150D01*
X70196248Y-83332884D01*
X70096682Y-83352689D01*
X70096672Y-83352692D01*
X69943194Y-83416264D01*
X69943181Y-83416271D01*
X69805052Y-83508567D01*
X69805048Y-83508570D01*
X69687578Y-83626040D01*
X69687575Y-83626044D01*
X69595279Y-83764173D01*
X69595272Y-83764186D01*
X69531700Y-83917664D01*
X69531697Y-83917676D01*
X69499288Y-84080607D01*
X69499288Y-84246752D01*
X69531697Y-84409683D01*
X69531700Y-84409695D01*
X69595272Y-84563173D01*
X69595279Y-84563186D01*
X69687575Y-84701315D01*
X69687578Y-84701319D01*
X69690452Y-84704193D01*
X69723937Y-84765516D01*
X69718953Y-84835208D01*
X69690453Y-84879555D01*
X69587787Y-84982221D01*
X69495491Y-85120350D01*
X69495484Y-85120363D01*
X69431912Y-85273841D01*
X69431909Y-85273853D01*
X69399500Y-85436784D01*
X66117070Y-85436784D01*
X66117246Y-85436243D01*
X66125929Y-85381425D01*
X66150500Y-85226286D01*
X66150500Y-85013713D01*
X66143877Y-84971900D01*
X66117246Y-84803757D01*
X66051557Y-84601588D01*
X65955051Y-84412184D01*
X65955049Y-84412181D01*
X65955048Y-84412179D01*
X65830109Y-84240213D01*
X65679786Y-84089890D01*
X65507820Y-83964951D01*
X65507115Y-83964591D01*
X65499054Y-83960485D01*
X65448259Y-83912512D01*
X65431463Y-83844692D01*
X65453999Y-83778556D01*
X65499054Y-83739515D01*
X65507816Y-83735051D01*
X65540028Y-83711648D01*
X65679786Y-83610109D01*
X65679788Y-83610106D01*
X65679792Y-83610104D01*
X65830104Y-83459792D01*
X65830106Y-83459788D01*
X65830109Y-83459786D01*
X65955048Y-83287820D01*
X65955047Y-83287820D01*
X65955051Y-83287816D01*
X66051557Y-83098412D01*
X66117246Y-82896243D01*
X66150500Y-82686287D01*
X66150500Y-82473713D01*
X66117246Y-82263757D01*
X66051557Y-82061588D01*
X65955051Y-81872184D01*
X65955049Y-81872181D01*
X65955048Y-81872179D01*
X65830109Y-81700213D01*
X65679786Y-81549890D01*
X65507820Y-81424951D01*
X65507115Y-81424591D01*
X65499054Y-81420485D01*
X65448259Y-81372512D01*
X65431463Y-81304692D01*
X65453999Y-81238556D01*
X65499054Y-81199515D01*
X65507816Y-81195051D01*
X65538867Y-81172491D01*
X65679786Y-81070109D01*
X65679788Y-81070106D01*
X65679792Y-81070104D01*
X65830104Y-80919792D01*
X65830106Y-80919788D01*
X65830109Y-80919786D01*
X65955048Y-80747820D01*
X65955047Y-80747820D01*
X65955051Y-80747816D01*
X66051557Y-80558412D01*
X66117246Y-80356243D01*
X66150500Y-80146287D01*
X66150500Y-79933713D01*
X66117246Y-79723757D01*
X66051557Y-79521588D01*
X65955051Y-79332184D01*
X65955049Y-79332181D01*
X65955048Y-79332179D01*
X65830109Y-79160213D01*
X65686823Y-79016927D01*
X77956600Y-79016927D01*
X77956600Y-79183072D01*
X77989009Y-79346003D01*
X77989012Y-79346015D01*
X78052584Y-79499493D01*
X78052591Y-79499506D01*
X78144887Y-79637635D01*
X78144890Y-79637639D01*
X78262360Y-79755109D01*
X78262364Y-79755112D01*
X78400493Y-79847408D01*
X78400506Y-79847415D01*
X78500228Y-79888721D01*
X78554632Y-79932562D01*
X78576697Y-79998856D01*
X78574394Y-80027472D01*
X78565679Y-80071286D01*
X78559869Y-80100500D01*
X78556600Y-80116933D01*
X78556600Y-80283072D01*
X78589009Y-80446003D01*
X78589012Y-80446015D01*
X78652584Y-80599493D01*
X78652591Y-80599506D01*
X78744887Y-80737635D01*
X78744890Y-80737639D01*
X78862360Y-80855109D01*
X78862364Y-80855112D01*
X79000493Y-80947408D01*
X79000506Y-80947415D01*
X79115639Y-80995104D01*
X79153989Y-81010989D01*
X79316927Y-81043399D01*
X79316931Y-81043400D01*
X79316932Y-81043400D01*
X79483069Y-81043400D01*
X79483070Y-81043399D01*
X79646011Y-81010989D01*
X79764721Y-80961817D01*
X79799493Y-80947415D01*
X79799493Y-80947414D01*
X79799500Y-80947412D01*
X79937636Y-80855112D01*
X80055112Y-80737636D01*
X80147412Y-80599500D01*
X80210989Y-80446011D01*
X80243400Y-80283068D01*
X80243400Y-80116932D01*
X80210989Y-79953989D01*
X80210987Y-79953984D01*
X80147415Y-79800506D01*
X80147408Y-79800493D01*
X80055112Y-79662364D01*
X80055109Y-79662360D01*
X79937639Y-79544890D01*
X79937635Y-79544887D01*
X79799506Y-79452591D01*
X79799496Y-79452586D01*
X79699770Y-79411278D01*
X79645367Y-79367437D01*
X79623302Y-79301143D01*
X79625606Y-79272526D01*
X79639931Y-79200506D01*
X79643400Y-79183068D01*
X79643400Y-79016932D01*
X79610989Y-78853989D01*
X79592747Y-78809949D01*
X79547415Y-78700506D01*
X79547408Y-78700493D01*
X79461877Y-78572488D01*
X79455112Y-78562364D01*
X79455109Y-78562360D01*
X79402433Y-78509684D01*
X81231284Y-78509684D01*
X81231284Y-78675829D01*
X81263693Y-78838760D01*
X81263696Y-78838772D01*
X81327268Y-78992250D01*
X81327275Y-78992263D01*
X81419571Y-79130392D01*
X81419574Y-79130396D01*
X81537044Y-79247866D01*
X81537048Y-79247869D01*
X81675177Y-79340165D01*
X81675190Y-79340172D01*
X81769657Y-79379301D01*
X81828673Y-79403746D01*
X81991611Y-79436156D01*
X81991615Y-79436157D01*
X82163844Y-79436157D01*
X82163844Y-79438344D01*
X82222809Y-79449517D01*
X82273528Y-79497572D01*
X82290337Y-79559911D01*
X82290337Y-79610399D01*
X82322746Y-79773330D01*
X82322749Y-79773342D01*
X82386321Y-79926820D01*
X82386328Y-79926833D01*
X82478624Y-80064962D01*
X82478627Y-80064966D01*
X82596097Y-80182436D01*
X82596101Y-80182439D01*
X82734230Y-80274735D01*
X82734243Y-80274742D01*
X82828022Y-80313586D01*
X82887726Y-80338316D01*
X83050664Y-80370726D01*
X83050668Y-80370727D01*
X83050669Y-80370727D01*
X83216806Y-80370727D01*
X83216807Y-80370726D01*
X83379748Y-80338316D01*
X83533237Y-80274739D01*
X83671373Y-80182439D01*
X83685334Y-80168477D01*
X83746655Y-80134993D01*
X83816346Y-80139975D01*
X83872281Y-80181845D01*
X83876118Y-80187267D01*
X83949126Y-80296531D01*
X83949129Y-80296535D01*
X84060623Y-80408029D01*
X84060627Y-80408032D01*
X84191730Y-80495633D01*
X84191743Y-80495640D01*
X84313361Y-80546015D01*
X84337419Y-80555980D01*
X84473599Y-80583068D01*
X84492069Y-80586742D01*
X84492072Y-80586743D01*
X84492074Y-80586743D01*
X84649760Y-80586743D01*
X84649761Y-80586742D01*
X84804413Y-80555980D01*
X84950095Y-80495637D01*
X85081205Y-80408032D01*
X85192705Y-80296532D01*
X85280310Y-80165422D01*
X85340653Y-80019740D01*
X85371416Y-79865085D01*
X85371416Y-79707401D01*
X85371416Y-79707398D01*
X85371415Y-79707396D01*
X85366576Y-79683068D01*
X85340653Y-79552746D01*
X85327746Y-79521585D01*
X85280313Y-79407070D01*
X85280306Y-79407057D01*
X85192705Y-79275954D01*
X85192702Y-79275950D01*
X85081208Y-79164456D01*
X85081204Y-79164453D01*
X84950101Y-79076852D01*
X84950088Y-79076845D01*
X84804417Y-79016507D01*
X84804405Y-79016504D01*
X84649761Y-78985743D01*
X84649758Y-78985743D01*
X84492074Y-78985743D01*
X84492071Y-78985743D01*
X84337426Y-79016504D01*
X84337414Y-79016507D01*
X84191743Y-79076845D01*
X84191730Y-79076852D01*
X84056562Y-79167169D01*
X83989884Y-79188047D01*
X83922504Y-79169562D01*
X83886770Y-79131397D01*
X83884534Y-79132892D01*
X83788849Y-78989691D01*
X83788846Y-78989687D01*
X83671376Y-78872217D01*
X83671372Y-78872214D01*
X83533243Y-78779918D01*
X83533230Y-78779911D01*
X83379752Y-78716339D01*
X83379740Y-78716336D01*
X83216809Y-78683927D01*
X83216805Y-78683927D01*
X83050669Y-78683927D01*
X83044577Y-78683927D01*
X83044577Y-78681748D01*
X82985568Y-78670544D01*
X82934868Y-78622468D01*
X82918084Y-78560172D01*
X82918084Y-78509688D01*
X82918083Y-78509684D01*
X82892245Y-78379786D01*
X82885673Y-78346746D01*
X82884993Y-78345104D01*
X82822099Y-78193263D01*
X82822092Y-78193250D01*
X82729796Y-78055121D01*
X82729793Y-78055117D01*
X82612323Y-77937647D01*
X82612319Y-77937644D01*
X82474190Y-77845348D01*
X82474177Y-77845341D01*
X82320699Y-77781769D01*
X82320687Y-77781766D01*
X82157756Y-77749357D01*
X82157752Y-77749357D01*
X81991616Y-77749357D01*
X81991611Y-77749357D01*
X81828680Y-77781766D01*
X81828668Y-77781769D01*
X81675190Y-77845341D01*
X81675177Y-77845348D01*
X81537048Y-77937644D01*
X81537044Y-77937647D01*
X81419574Y-78055117D01*
X81419571Y-78055121D01*
X81327275Y-78193250D01*
X81327268Y-78193263D01*
X81263696Y-78346741D01*
X81263693Y-78346753D01*
X81231284Y-78509684D01*
X79402433Y-78509684D01*
X79337639Y-78444890D01*
X79337635Y-78444887D01*
X79199506Y-78352591D01*
X79199493Y-78352584D01*
X79046015Y-78289012D01*
X79046003Y-78289009D01*
X78883072Y-78256600D01*
X78883068Y-78256600D01*
X78716932Y-78256600D01*
X78716927Y-78256600D01*
X78553996Y-78289009D01*
X78553984Y-78289012D01*
X78400506Y-78352584D01*
X78400493Y-78352591D01*
X78262364Y-78444887D01*
X78262360Y-78444890D01*
X78144890Y-78562360D01*
X78144887Y-78562364D01*
X78052591Y-78700493D01*
X78052584Y-78700506D01*
X77989012Y-78853984D01*
X77989009Y-78853996D01*
X77956600Y-79016927D01*
X65686823Y-79016927D01*
X65679786Y-79009890D01*
X65507820Y-78884951D01*
X65507115Y-78884591D01*
X65499054Y-78880485D01*
X65448259Y-78832512D01*
X65431463Y-78764692D01*
X65453999Y-78698556D01*
X65499054Y-78659515D01*
X65507816Y-78655051D01*
X65538867Y-78632491D01*
X65679786Y-78530109D01*
X65679788Y-78530106D01*
X65679792Y-78530104D01*
X65830104Y-78379792D01*
X65830106Y-78379788D01*
X65830109Y-78379786D01*
X65955048Y-78207820D01*
X65955047Y-78207820D01*
X65955051Y-78207816D01*
X66051557Y-78018412D01*
X66117246Y-77816243D01*
X66150500Y-77606287D01*
X66150500Y-77393713D01*
X66117246Y-77183757D01*
X66051557Y-76981588D01*
X65955051Y-76792184D01*
X65955049Y-76792181D01*
X65955048Y-76792179D01*
X65830109Y-76620213D01*
X65716569Y-76506673D01*
X65683084Y-76445350D01*
X65688068Y-76375658D01*
X65729940Y-76319725D01*
X65760915Y-76302810D01*
X65892331Y-76253796D01*
X66007546Y-76167546D01*
X66093796Y-76052331D01*
X66144091Y-75917483D01*
X66150500Y-75857873D01*
X66150499Y-74062128D01*
X66144091Y-74002517D01*
X66138351Y-73987128D01*
X66093797Y-73867671D01*
X66093793Y-73867664D01*
X66007547Y-73752455D01*
X66007544Y-73752452D01*
X65892335Y-73666206D01*
X65892328Y-73666202D01*
X65757482Y-73615908D01*
X65757483Y-73615908D01*
X65697883Y-73609501D01*
X65697881Y-73609500D01*
X65697873Y-73609500D01*
X65697864Y-73609500D01*
X63902129Y-73609500D01*
X63902123Y-73609501D01*
X63842516Y-73615908D01*
X63707671Y-73666202D01*
X63707664Y-73666206D01*
X63592455Y-73752452D01*
X63592452Y-73752455D01*
X63506206Y-73867664D01*
X63506202Y-73867671D01*
X63455908Y-74002517D01*
X63449501Y-74062116D01*
X63449501Y-74062123D01*
X63449500Y-74062135D01*
X63449500Y-75857870D01*
X63449501Y-75857876D01*
X63455908Y-75917483D01*
X63506202Y-76052328D01*
X63506206Y-76052335D01*
X63592452Y-76167544D01*
X63592455Y-76167547D01*
X63707664Y-76253793D01*
X63707671Y-76253797D01*
X63839082Y-76302810D01*
X63895016Y-76344681D01*
X63919433Y-76410145D01*
X63904582Y-76478418D01*
X63883431Y-76506673D01*
X63769889Y-76620215D01*
X63644951Y-76792179D01*
X63548444Y-76981585D01*
X63482753Y-77183760D01*
X63449500Y-77393713D01*
X63449500Y-77606286D01*
X63481810Y-77810288D01*
X63482754Y-77816243D01*
X63488333Y-77833414D01*
X63548444Y-78018414D01*
X63644951Y-78207820D01*
X63769890Y-78379786D01*
X63920213Y-78530109D01*
X64092182Y-78655050D01*
X64100946Y-78659516D01*
X64151742Y-78707491D01*
X64168536Y-78775312D01*
X64145998Y-78841447D01*
X64100946Y-78880484D01*
X64092182Y-78884949D01*
X63920213Y-79009890D01*
X63769890Y-79160213D01*
X63644951Y-79332179D01*
X63548444Y-79521585D01*
X63482753Y-79723760D01*
X63453099Y-79910989D01*
X63449500Y-79933713D01*
X63449500Y-80146287D01*
X63455226Y-80182439D01*
X63481355Y-80347415D01*
X63482754Y-80356243D01*
X63519183Y-80468360D01*
X63548444Y-80558414D01*
X63644951Y-80747820D01*
X63769890Y-80919786D01*
X63920213Y-81070109D01*
X64092182Y-81195050D01*
X64100946Y-81199516D01*
X64151742Y-81247491D01*
X64168536Y-81315312D01*
X64145998Y-81381447D01*
X64100946Y-81420484D01*
X64092182Y-81424949D01*
X63920213Y-81549890D01*
X63769890Y-81700213D01*
X63644951Y-81872179D01*
X63548444Y-82061585D01*
X63482753Y-82263760D01*
X63452846Y-82452588D01*
X63449500Y-82473713D01*
X63449500Y-82686287D01*
X63451745Y-82700462D01*
X63478555Y-82869735D01*
X63482754Y-82896243D01*
X63539126Y-83069738D01*
X63548444Y-83098414D01*
X63644951Y-83287820D01*
X63769890Y-83459786D01*
X63920213Y-83610109D01*
X64092182Y-83735050D01*
X64100946Y-83739516D01*
X64151742Y-83787491D01*
X64168536Y-83855312D01*
X64145998Y-83921447D01*
X64100946Y-83960484D01*
X64092182Y-83964949D01*
X63920213Y-84089890D01*
X63769890Y-84240213D01*
X63644951Y-84412179D01*
X63548444Y-84601585D01*
X63482753Y-84803760D01*
X63449500Y-85013713D01*
X63449500Y-85226286D01*
X63474071Y-85381425D01*
X63482754Y-85436243D01*
X63548021Y-85637114D01*
X63548444Y-85638414D01*
X63644951Y-85827820D01*
X63769890Y-85999786D01*
X63920213Y-86150109D01*
X64092182Y-86275050D01*
X64100946Y-86279516D01*
X64151742Y-86327491D01*
X64168536Y-86395312D01*
X64145998Y-86461447D01*
X64100946Y-86500484D01*
X64092182Y-86504949D01*
X63920213Y-86629890D01*
X63769894Y-86780209D01*
X63734523Y-86828894D01*
X63679193Y-86871559D01*
X63609579Y-86877538D01*
X63565314Y-86859110D01*
X63459390Y-86788333D01*
X63459377Y-86788326D01*
X63313706Y-86727988D01*
X63313697Y-86727985D01*
X63243576Y-86714037D01*
X63181666Y-86681651D01*
X63147092Y-86620935D01*
X63143769Y-86592420D01*
X63143769Y-86539328D01*
X63143768Y-86539326D01*
X63128212Y-86461121D01*
X63113006Y-86384676D01*
X63093566Y-86337743D01*
X63052666Y-86239000D01*
X63052659Y-86238987D01*
X62965058Y-86107884D01*
X62965055Y-86107880D01*
X62853561Y-85996386D01*
X62853557Y-85996383D01*
X62722454Y-85908782D01*
X62722441Y-85908775D01*
X62576770Y-85848437D01*
X62576758Y-85848434D01*
X62422114Y-85817673D01*
X62422111Y-85817673D01*
X62264427Y-85817673D01*
X62264424Y-85817673D01*
X62109779Y-85848434D01*
X62109767Y-85848437D01*
X61964096Y-85908775D01*
X61964083Y-85908782D01*
X61832980Y-85996383D01*
X61832976Y-85996386D01*
X61721482Y-86107880D01*
X61721479Y-86107884D01*
X61633878Y-86238987D01*
X61633871Y-86239000D01*
X61573533Y-86384671D01*
X61573530Y-86384683D01*
X61542769Y-86539326D01*
X60569138Y-86539326D01*
X60588576Y-86492398D01*
X60619339Y-86337743D01*
X60619339Y-86180059D01*
X60619339Y-86180056D01*
X60619338Y-86180054D01*
X60613729Y-86151858D01*
X60588576Y-86025404D01*
X60577905Y-85999642D01*
X60528236Y-85879728D01*
X60528229Y-85879715D01*
X60440628Y-85748612D01*
X60440625Y-85748608D01*
X60329131Y-85637114D01*
X60329127Y-85637111D01*
X60198024Y-85549510D01*
X60198011Y-85549503D01*
X60052340Y-85489165D01*
X60052328Y-85489162D01*
X59897684Y-85458401D01*
X59897681Y-85458401D01*
X59739997Y-85458401D01*
X59739994Y-85458401D01*
X59585349Y-85489162D01*
X59585337Y-85489165D01*
X59439666Y-85549503D01*
X59439653Y-85549510D01*
X59345898Y-85612156D01*
X59279220Y-85633034D01*
X59229556Y-85623616D01*
X59213419Y-85616932D01*
X59146011Y-85589011D01*
X59146004Y-85589009D01*
X59146002Y-85589009D01*
X58983072Y-85556600D01*
X58983068Y-85556600D01*
X58816932Y-85556600D01*
X58816927Y-85556600D01*
X58653996Y-85589009D01*
X58653984Y-85589012D01*
X58500506Y-85652584D01*
X58500493Y-85652591D01*
X58362364Y-85744887D01*
X58362360Y-85744890D01*
X58244890Y-85862360D01*
X58244887Y-85862364D01*
X58152591Y-86000493D01*
X58152584Y-86000506D01*
X58089012Y-86153984D01*
X58089009Y-86153994D01*
X58077433Y-86212193D01*
X58045048Y-86274104D01*
X57984332Y-86308678D01*
X57914563Y-86304938D01*
X57886925Y-86291103D01*
X57799506Y-86232691D01*
X57799493Y-86232684D01*
X57646015Y-86169112D01*
X57646003Y-86169109D01*
X57483072Y-86136700D01*
X57483068Y-86136700D01*
X57316932Y-86136700D01*
X57316927Y-86136700D01*
X57153996Y-86169109D01*
X57153984Y-86169112D01*
X57000506Y-86232684D01*
X57000493Y-86232691D01*
X56862364Y-86324987D01*
X56862360Y-86324990D01*
X56744890Y-86442460D01*
X56744887Y-86442464D01*
X56652591Y-86580593D01*
X56652584Y-86580606D01*
X56589012Y-86734084D01*
X56589009Y-86734096D01*
X56556600Y-86897027D01*
X46639628Y-86897027D01*
X46555112Y-86770541D01*
X46555109Y-86770537D01*
X46446447Y-86661875D01*
X46412962Y-86600552D01*
X46417946Y-86530860D01*
X46446447Y-86486513D01*
X46515220Y-86417739D01*
X46515223Y-86417736D01*
X46606279Y-86281460D01*
X46607519Y-86279606D01*
X46607519Y-86279605D01*
X46607523Y-86279600D01*
X46609409Y-86275048D01*
X46626953Y-86232691D01*
X46671100Y-86126111D01*
X46703511Y-85963168D01*
X46703511Y-85797032D01*
X46671100Y-85634089D01*
X46668054Y-85626736D01*
X46607526Y-85480606D01*
X46607519Y-85480593D01*
X46515223Y-85342464D01*
X46515220Y-85342460D01*
X46428041Y-85255281D01*
X46394556Y-85193958D01*
X46399540Y-85124266D01*
X46428041Y-85079919D01*
X46484677Y-85023282D01*
X46484680Y-85023279D01*
X46576980Y-84885143D01*
X46640557Y-84731654D01*
X46672968Y-84568711D01*
X46672968Y-84402575D01*
X46640557Y-84239632D01*
X46601788Y-84146034D01*
X46576983Y-84086149D01*
X46576977Y-84086138D01*
X46557870Y-84057542D01*
X46536993Y-83990865D01*
X46555478Y-83923485D01*
X46592081Y-83885550D01*
X46637636Y-83855112D01*
X46755112Y-83737636D01*
X46847412Y-83599500D01*
X46910989Y-83446011D01*
X46943400Y-83283068D01*
X46943400Y-83216927D01*
X53856600Y-83216927D01*
X53856600Y-83383072D01*
X53889009Y-83546003D01*
X53889012Y-83546015D01*
X53952584Y-83699493D01*
X53952591Y-83699506D01*
X54044887Y-83837635D01*
X54044890Y-83837639D01*
X54162360Y-83955109D01*
X54162364Y-83955112D01*
X54300493Y-84047408D01*
X54300506Y-84047415D01*
X54453984Y-84110987D01*
X54453989Y-84110989D01*
X54616927Y-84143399D01*
X54616931Y-84143400D01*
X54616932Y-84143400D01*
X54783069Y-84143400D01*
X54783070Y-84143399D01*
X54946011Y-84110989D01*
X55099500Y-84047412D01*
X55237636Y-83955112D01*
X55355112Y-83837636D01*
X55447412Y-83699500D01*
X55510989Y-83546011D01*
X55543400Y-83383068D01*
X55543400Y-83216932D01*
X55543399Y-83216927D01*
X56756600Y-83216927D01*
X56756600Y-83383072D01*
X56789009Y-83546003D01*
X56789012Y-83546015D01*
X56852584Y-83699493D01*
X56852591Y-83699506D01*
X56944887Y-83837635D01*
X56944890Y-83837639D01*
X57062360Y-83955109D01*
X57062364Y-83955112D01*
X57200493Y-84047408D01*
X57200506Y-84047415D01*
X57353984Y-84110987D01*
X57353989Y-84110989D01*
X57516927Y-84143399D01*
X57516931Y-84143400D01*
X57516932Y-84143400D01*
X57683069Y-84143400D01*
X57683070Y-84143399D01*
X57846011Y-84110989D01*
X57999500Y-84047412D01*
X58137636Y-83955112D01*
X58255112Y-83837636D01*
X58347412Y-83699500D01*
X58410989Y-83546011D01*
X58443400Y-83383068D01*
X58443400Y-83216932D01*
X58430088Y-83150007D01*
X58430088Y-83150004D01*
X58426488Y-83131904D01*
X59213492Y-83131904D01*
X59213492Y-83289597D01*
X59244253Y-83444240D01*
X59244256Y-83444252D01*
X59304594Y-83589923D01*
X59304601Y-83589936D01*
X59392202Y-83721039D01*
X59392205Y-83721043D01*
X59503699Y-83832537D01*
X59503703Y-83832540D01*
X59634806Y-83920141D01*
X59634819Y-83920148D01*
X59742980Y-83964949D01*
X59780495Y-83980488D01*
X59935145Y-84011250D01*
X59935148Y-84011251D01*
X59935150Y-84011251D01*
X60092836Y-84011251D01*
X60092837Y-84011250D01*
X60247489Y-83980488D01*
X60360158Y-83933818D01*
X60393164Y-83920148D01*
X60393164Y-83920147D01*
X60393171Y-83920145D01*
X60524281Y-83832540D01*
X60635781Y-83721040D01*
X60723386Y-83589930D01*
X60783729Y-83444248D01*
X60814492Y-83289593D01*
X60814492Y-83131909D01*
X60814492Y-83131906D01*
X60814491Y-83131904D01*
X60801346Y-83065819D01*
X60783729Y-82977254D01*
X60774095Y-82953996D01*
X60723389Y-82831578D01*
X60723382Y-82831565D01*
X60659722Y-82736291D01*
X60638844Y-82669613D01*
X60657329Y-82602233D01*
X60709308Y-82555543D01*
X60762824Y-82543400D01*
X60883069Y-82543400D01*
X60883070Y-82543399D01*
X61046011Y-82510989D01*
X61199500Y-82447412D01*
X61337636Y-82355112D01*
X61455112Y-82237636D01*
X61547412Y-82099500D01*
X61610989Y-81946011D01*
X61643400Y-81783068D01*
X61643400Y-81616932D01*
X61611686Y-81457493D01*
X61617913Y-81387903D01*
X61660776Y-81332725D01*
X61726666Y-81309481D01*
X61757492Y-81311685D01*
X61916929Y-81343399D01*
X61916931Y-81343400D01*
X61916932Y-81343400D01*
X62083069Y-81343400D01*
X62083070Y-81343399D01*
X62246011Y-81310989D01*
X62384940Y-81253443D01*
X62399493Y-81247415D01*
X62399493Y-81247414D01*
X62399500Y-81247412D01*
X62537636Y-81155112D01*
X62655112Y-81037636D01*
X62747412Y-80899500D01*
X62751133Y-80890518D01*
X62770075Y-80844786D01*
X62810989Y-80746011D01*
X62843400Y-80583068D01*
X62843400Y-80416932D01*
X62810989Y-80253989D01*
X62795639Y-80216931D01*
X62747415Y-80100506D01*
X62747408Y-80100493D01*
X62655112Y-79962364D01*
X62655109Y-79962360D01*
X62537639Y-79844890D01*
X62537635Y-79844887D01*
X62399506Y-79752591D01*
X62399493Y-79752584D01*
X62246015Y-79689012D01*
X62246003Y-79689009D01*
X62083072Y-79656600D01*
X62083068Y-79656600D01*
X61916932Y-79656600D01*
X61916927Y-79656600D01*
X61753996Y-79689009D01*
X61753984Y-79689012D01*
X61600506Y-79752584D01*
X61600493Y-79752591D01*
X61462364Y-79844887D01*
X61462360Y-79844890D01*
X61344890Y-79962360D01*
X61344887Y-79962364D01*
X61252591Y-80100493D01*
X61252584Y-80100506D01*
X61189012Y-80253984D01*
X61189009Y-80253996D01*
X61156600Y-80416927D01*
X61156600Y-80583072D01*
X61188313Y-80742505D01*
X61182086Y-80812097D01*
X61139222Y-80867274D01*
X61073333Y-80890518D01*
X61042505Y-80888313D01*
X60883072Y-80856600D01*
X60883068Y-80856600D01*
X60716932Y-80856600D01*
X60716927Y-80856600D01*
X60553996Y-80889009D01*
X60553984Y-80889012D01*
X60400506Y-80952584D01*
X60400493Y-80952591D01*
X60262364Y-81044887D01*
X60262360Y-81044890D01*
X60144890Y-81162360D01*
X60144887Y-81162364D01*
X60052591Y-81300493D01*
X60052584Y-81300506D01*
X59989012Y-81453984D01*
X59989009Y-81453996D01*
X59956600Y-81616927D01*
X59956600Y-81783072D01*
X59989009Y-81946003D01*
X59989012Y-81946015D01*
X60052584Y-82099493D01*
X60052591Y-82099505D01*
X60131340Y-82217360D01*
X60152218Y-82284037D01*
X60133734Y-82351417D01*
X60081755Y-82398108D01*
X60028238Y-82410251D01*
X59935147Y-82410251D01*
X59780502Y-82441012D01*
X59780490Y-82441015D01*
X59634819Y-82501353D01*
X59634806Y-82501360D01*
X59503703Y-82588961D01*
X59503699Y-82588964D01*
X59392205Y-82700458D01*
X59392202Y-82700462D01*
X59304601Y-82831565D01*
X59304594Y-82831578D01*
X59244256Y-82977249D01*
X59244253Y-82977261D01*
X59213492Y-83131904D01*
X58426488Y-83131904D01*
X58418167Y-83090076D01*
X58410989Y-83053989D01*
X58406603Y-83043400D01*
X58347415Y-82900506D01*
X58347408Y-82900493D01*
X58255112Y-82762364D01*
X58255109Y-82762360D01*
X58137639Y-82644890D01*
X58137635Y-82644887D01*
X57999506Y-82552591D01*
X57999493Y-82552584D01*
X57846015Y-82489012D01*
X57846003Y-82489009D01*
X57683072Y-82456600D01*
X57683068Y-82456600D01*
X57516932Y-82456600D01*
X57516927Y-82456600D01*
X57353996Y-82489009D01*
X57353984Y-82489012D01*
X57200506Y-82552584D01*
X57200493Y-82552591D01*
X57062364Y-82644887D01*
X57062360Y-82644890D01*
X56944890Y-82762360D01*
X56944887Y-82762364D01*
X56852591Y-82900493D01*
X56852584Y-82900506D01*
X56789012Y-83053984D01*
X56789009Y-83053996D01*
X56756600Y-83216927D01*
X55543399Y-83216927D01*
X55510989Y-83053989D01*
X55506603Y-83043400D01*
X55447415Y-82900506D01*
X55447408Y-82900493D01*
X55355112Y-82762364D01*
X55355109Y-82762360D01*
X55237639Y-82644890D01*
X55237635Y-82644887D01*
X55099506Y-82552591D01*
X55099493Y-82552584D01*
X54946015Y-82489012D01*
X54946003Y-82489009D01*
X54783072Y-82456600D01*
X54783068Y-82456600D01*
X54616932Y-82456600D01*
X54616927Y-82456600D01*
X54453996Y-82489009D01*
X54453984Y-82489012D01*
X54300506Y-82552584D01*
X54300493Y-82552591D01*
X54162364Y-82644887D01*
X54162360Y-82644890D01*
X54044890Y-82762360D01*
X54044887Y-82762364D01*
X53952591Y-82900493D01*
X53952584Y-82900506D01*
X53889012Y-83053984D01*
X53889009Y-83053996D01*
X53856600Y-83216927D01*
X46943400Y-83216927D01*
X46943400Y-83116932D01*
X46910989Y-82953989D01*
X46908263Y-82947408D01*
X46847415Y-82800506D01*
X46847408Y-82800493D01*
X46755112Y-82662364D01*
X46755109Y-82662360D01*
X46637639Y-82544890D01*
X46637635Y-82544887D01*
X46499506Y-82452591D01*
X46499493Y-82452584D01*
X46346015Y-82389012D01*
X46346003Y-82389009D01*
X46183072Y-82356600D01*
X46183068Y-82356600D01*
X46016932Y-82356600D01*
X46016927Y-82356600D01*
X45853996Y-82389009D01*
X45853984Y-82389012D01*
X45700506Y-82452584D01*
X45700493Y-82452591D01*
X45562364Y-82544887D01*
X45562360Y-82544890D01*
X45444890Y-82662360D01*
X45444887Y-82662364D01*
X45352591Y-82800493D01*
X45352584Y-82800506D01*
X45289012Y-82953984D01*
X45289009Y-82953996D01*
X45256600Y-83116927D01*
X45256600Y-83283072D01*
X45289009Y-83446003D01*
X45289012Y-83446015D01*
X45352585Y-83599496D01*
X45359673Y-83610104D01*
X45370321Y-83626040D01*
X45371698Y-83628100D01*
X45392575Y-83694777D01*
X45374090Y-83762157D01*
X45337486Y-83800092D01*
X45291932Y-83830530D01*
X45291928Y-83830533D01*
X45174458Y-83948003D01*
X45174455Y-83948007D01*
X45082159Y-84086136D01*
X45082152Y-84086149D01*
X45018580Y-84239627D01*
X45018577Y-84239639D01*
X44986168Y-84402570D01*
X44986168Y-84568715D01*
X45018577Y-84731646D01*
X45018580Y-84731658D01*
X45082152Y-84885136D01*
X45082159Y-84885149D01*
X45174455Y-85023278D01*
X45174458Y-85023282D01*
X45261638Y-85110462D01*
X45295123Y-85171785D01*
X45290139Y-85241477D01*
X45261638Y-85285824D01*
X45205001Y-85342460D01*
X45204998Y-85342464D01*
X45112702Y-85480593D01*
X45112695Y-85480606D01*
X45049123Y-85634084D01*
X45049120Y-85634096D01*
X45016711Y-85797027D01*
X45016711Y-85963172D01*
X45049120Y-86126103D01*
X45049123Y-86126115D01*
X45112695Y-86279593D01*
X45112702Y-86279606D01*
X45204998Y-86417735D01*
X45205001Y-86417739D01*
X45313664Y-86526402D01*
X45347149Y-86587725D01*
X45342165Y-86657417D01*
X45313664Y-86701764D01*
X45244890Y-86770537D01*
X45244887Y-86770541D01*
X45152591Y-86908670D01*
X45152584Y-86908683D01*
X45089012Y-87062161D01*
X45089009Y-87062173D01*
X45056600Y-87225104D01*
X45056600Y-87391249D01*
X45089009Y-87554180D01*
X45089012Y-87554192D01*
X45152584Y-87707670D01*
X45152591Y-87707683D01*
X45244887Y-87845812D01*
X45244890Y-87845816D01*
X45288521Y-87889447D01*
X45322006Y-87950770D01*
X45317022Y-88020462D01*
X45288521Y-88064809D01*
X45171069Y-88182260D01*
X45171066Y-88182264D01*
X45078770Y-88320393D01*
X45078763Y-88320406D01*
X45015191Y-88473884D01*
X45015188Y-88473896D01*
X44982779Y-88636827D01*
X44982779Y-88802972D01*
X45015188Y-88965903D01*
X45015191Y-88965915D01*
X45078763Y-89119393D01*
X45078770Y-89119406D01*
X45171066Y-89257535D01*
X45171069Y-89257539D01*
X45277749Y-89364219D01*
X45311234Y-89425542D01*
X45306250Y-89495234D01*
X45293170Y-89520791D01*
X45202696Y-89656193D01*
X45202689Y-89656206D01*
X45139117Y-89809684D01*
X45139114Y-89809696D01*
X45106705Y-89972627D01*
X45106705Y-90138772D01*
X45139114Y-90301703D01*
X45139117Y-90301715D01*
X45202689Y-90455193D01*
X45202696Y-90455206D01*
X45294992Y-90593335D01*
X45294995Y-90593339D01*
X45311210Y-90609554D01*
X45344695Y-90670877D01*
X45339711Y-90740569D01*
X45311210Y-90784916D01*
X45242265Y-90853860D01*
X45242262Y-90853864D01*
X45149966Y-90991993D01*
X45149959Y-90992006D01*
X45086387Y-91145484D01*
X45086384Y-91145496D01*
X45053975Y-91308427D01*
X45053975Y-91474572D01*
X45086384Y-91637503D01*
X45086387Y-91637515D01*
X45149959Y-91790993D01*
X45149966Y-91791006D01*
X45240140Y-91925960D01*
X45261018Y-91992638D01*
X45242534Y-92060018D01*
X45224719Y-92082532D01*
X45144890Y-92162360D01*
X45144887Y-92162364D01*
X45052591Y-92300493D01*
X45052584Y-92300506D01*
X44989012Y-92453984D01*
X44989009Y-92453996D01*
X44956600Y-92616927D01*
X41630500Y-92616927D01*
X41630500Y-92558713D01*
X41597246Y-92348757D01*
X41531557Y-92146588D01*
X41435051Y-91957184D01*
X41435049Y-91957181D01*
X41435048Y-91957179D01*
X41310109Y-91785213D01*
X41159786Y-91634890D01*
X40987820Y-91509951D01*
X40987115Y-91509591D01*
X40979054Y-91505485D01*
X40928259Y-91457512D01*
X40911463Y-91389692D01*
X40933999Y-91323556D01*
X40979054Y-91284515D01*
X40987816Y-91280051D01*
X41018969Y-91257417D01*
X41159786Y-91155109D01*
X41159788Y-91155106D01*
X41159792Y-91155104D01*
X41310104Y-91004792D01*
X41310106Y-91004788D01*
X41310109Y-91004786D01*
X41435048Y-90832820D01*
X41435047Y-90832820D01*
X41435051Y-90832816D01*
X41531557Y-90643412D01*
X41597246Y-90441243D01*
X41630500Y-90231287D01*
X41630500Y-90018713D01*
X41597246Y-89808757D01*
X41531557Y-89606588D01*
X41435051Y-89417184D01*
X41435049Y-89417181D01*
X41435048Y-89417179D01*
X41310109Y-89245213D01*
X41159786Y-89094890D01*
X40987820Y-88969951D01*
X40987115Y-88969591D01*
X40979054Y-88965485D01*
X40928259Y-88917512D01*
X40911463Y-88849692D01*
X40933999Y-88783556D01*
X40979054Y-88744515D01*
X40987816Y-88740051D01*
X41040409Y-88701840D01*
X41159786Y-88615109D01*
X41159788Y-88615106D01*
X41159792Y-88615104D01*
X41310104Y-88464792D01*
X41310106Y-88464788D01*
X41310109Y-88464786D01*
X41435048Y-88292820D01*
X41435047Y-88292820D01*
X41435051Y-88292816D01*
X41531557Y-88103412D01*
X41597246Y-87901243D01*
X41630500Y-87691287D01*
X41630500Y-87478713D01*
X41597246Y-87268757D01*
X41531557Y-87066588D01*
X41435051Y-86877184D01*
X41435049Y-86877181D01*
X41435048Y-86877179D01*
X41310109Y-86705213D01*
X41159786Y-86554890D01*
X40987820Y-86429951D01*
X40987115Y-86429591D01*
X40979054Y-86425485D01*
X40928259Y-86377512D01*
X40911463Y-86309692D01*
X40933999Y-86243556D01*
X40979054Y-86204515D01*
X40987816Y-86200051D01*
X41034419Y-86166192D01*
X41159786Y-86075109D01*
X41159788Y-86075106D01*
X41159792Y-86075104D01*
X41310104Y-85924792D01*
X41310106Y-85924788D01*
X41310109Y-85924786D01*
X41435048Y-85752820D01*
X41435047Y-85752820D01*
X41435051Y-85752816D01*
X41531557Y-85563412D01*
X41597246Y-85361243D01*
X41630500Y-85151287D01*
X41630500Y-84938713D01*
X41597246Y-84728757D01*
X41531557Y-84526588D01*
X41435051Y-84337184D01*
X41435049Y-84337181D01*
X41435048Y-84337179D01*
X41310109Y-84165213D01*
X41159786Y-84014890D01*
X40987820Y-83889951D01*
X40987115Y-83889591D01*
X40979054Y-83885485D01*
X40928259Y-83837512D01*
X40911463Y-83769692D01*
X40933999Y-83703556D01*
X40979054Y-83664515D01*
X40987816Y-83660051D01*
X41034623Y-83626044D01*
X41159786Y-83535109D01*
X41159788Y-83535106D01*
X41159792Y-83535104D01*
X41310104Y-83384792D01*
X41310106Y-83384788D01*
X41310109Y-83384786D01*
X41432060Y-83216933D01*
X41435051Y-83212816D01*
X41531557Y-83023412D01*
X41597246Y-82821243D01*
X41630500Y-82611287D01*
X41630500Y-82398713D01*
X41597246Y-82188757D01*
X41531557Y-81986588D01*
X41435051Y-81797184D01*
X41435049Y-81797181D01*
X41435048Y-81797179D01*
X41310109Y-81625213D01*
X41159786Y-81474890D01*
X40987820Y-81349951D01*
X40987115Y-81349591D01*
X40979054Y-81345485D01*
X40928259Y-81297512D01*
X40911463Y-81229692D01*
X40933999Y-81163556D01*
X40979054Y-81124515D01*
X40987816Y-81120051D01*
X41067041Y-81062491D01*
X41159786Y-80995109D01*
X41159788Y-80995106D01*
X41159792Y-80995104D01*
X41310104Y-80844792D01*
X41310106Y-80844788D01*
X41310109Y-80844786D01*
X41435048Y-80672820D01*
X41435047Y-80672820D01*
X41435051Y-80672816D01*
X41531557Y-80483412D01*
X41597246Y-80281243D01*
X41630500Y-80071287D01*
X41630500Y-79858713D01*
X41597246Y-79648757D01*
X41554412Y-79516927D01*
X53856600Y-79516927D01*
X53856600Y-79683072D01*
X53889009Y-79846003D01*
X53889012Y-79846015D01*
X53952584Y-79999493D01*
X53952591Y-79999506D01*
X54044887Y-80137635D01*
X54044890Y-80137639D01*
X54162360Y-80255109D01*
X54162364Y-80255112D01*
X54300493Y-80347408D01*
X54300506Y-80347415D01*
X54386591Y-80383072D01*
X54453989Y-80410989D01*
X54616927Y-80443399D01*
X54616931Y-80443400D01*
X54616932Y-80443400D01*
X54783069Y-80443400D01*
X54783070Y-80443399D01*
X54946011Y-80410989D01*
X55099500Y-80347412D01*
X55237636Y-80255112D01*
X55275821Y-80216927D01*
X57556600Y-80216927D01*
X57556600Y-80383072D01*
X57589009Y-80546003D01*
X57589012Y-80546015D01*
X57652584Y-80699493D01*
X57652591Y-80699506D01*
X57744887Y-80837635D01*
X57744890Y-80837639D01*
X57862360Y-80955109D01*
X57862364Y-80955112D01*
X58000493Y-81047408D01*
X58000506Y-81047415D01*
X58143289Y-81106557D01*
X58153989Y-81110989D01*
X58316927Y-81143399D01*
X58316931Y-81143400D01*
X58316932Y-81143400D01*
X58483069Y-81143400D01*
X58483070Y-81143399D01*
X58646011Y-81110989D01*
X58799500Y-81047412D01*
X58937636Y-80955112D01*
X59055112Y-80837636D01*
X59147412Y-80699500D01*
X59210989Y-80546011D01*
X59243400Y-80383068D01*
X59243400Y-80216932D01*
X59210989Y-80053989D01*
X59196803Y-80019740D01*
X59147415Y-79900506D01*
X59147408Y-79900493D01*
X59055112Y-79762364D01*
X59055109Y-79762360D01*
X58937639Y-79644890D01*
X58937635Y-79644887D01*
X58799506Y-79552591D01*
X58799493Y-79552584D01*
X58646015Y-79489012D01*
X58646003Y-79489009D01*
X58483072Y-79456600D01*
X58483068Y-79456600D01*
X58316932Y-79456600D01*
X58316927Y-79456600D01*
X58153996Y-79489009D01*
X58153984Y-79489012D01*
X58000506Y-79552584D01*
X58000493Y-79552591D01*
X57862364Y-79644887D01*
X57862360Y-79644890D01*
X57744890Y-79762360D01*
X57744887Y-79762364D01*
X57652591Y-79900493D01*
X57652584Y-79900506D01*
X57589012Y-80053984D01*
X57589009Y-80053996D01*
X57556600Y-80216927D01*
X55275821Y-80216927D01*
X55355112Y-80137636D01*
X55447412Y-79999500D01*
X55510989Y-79846011D01*
X55543400Y-79683068D01*
X55543400Y-79516932D01*
X55510989Y-79353989D01*
X55510987Y-79353983D01*
X55447415Y-79200506D01*
X55447408Y-79200493D01*
X55355112Y-79062364D01*
X55355109Y-79062360D01*
X55237639Y-78944890D01*
X55237635Y-78944887D01*
X55099506Y-78852591D01*
X55099493Y-78852584D01*
X54946015Y-78789012D01*
X54946003Y-78789009D01*
X54783072Y-78756600D01*
X54783068Y-78756600D01*
X54616932Y-78756600D01*
X54616927Y-78756600D01*
X54453996Y-78789009D01*
X54453984Y-78789012D01*
X54300506Y-78852584D01*
X54300493Y-78852591D01*
X54162364Y-78944887D01*
X54162360Y-78944890D01*
X54044890Y-79062360D01*
X54044887Y-79062364D01*
X53952591Y-79200493D01*
X53952584Y-79200506D01*
X53889013Y-79353983D01*
X53889009Y-79353996D01*
X53856600Y-79516927D01*
X41554412Y-79516927D01*
X41531557Y-79446588D01*
X41435051Y-79257184D01*
X41435049Y-79257181D01*
X41435048Y-79257179D01*
X41310109Y-79085213D01*
X41159786Y-78934890D01*
X40987820Y-78809951D01*
X40987115Y-78809591D01*
X40979054Y-78805485D01*
X40928259Y-78757512D01*
X40911463Y-78689692D01*
X40933999Y-78623556D01*
X40979054Y-78584515D01*
X40987816Y-78580051D01*
X41067041Y-78522491D01*
X41159786Y-78455109D01*
X41159788Y-78455106D01*
X41159792Y-78455104D01*
X41310104Y-78304792D01*
X41310106Y-78304788D01*
X41310109Y-78304786D01*
X41435048Y-78132820D01*
X41435047Y-78132820D01*
X41435051Y-78132816D01*
X41531557Y-77943412D01*
X41597246Y-77741243D01*
X41630500Y-77531287D01*
X41630500Y-77318713D01*
X41615048Y-77221153D01*
X58699500Y-77221153D01*
X58699500Y-77378846D01*
X58730261Y-77533489D01*
X58730264Y-77533501D01*
X58790602Y-77679172D01*
X58790609Y-77679185D01*
X58878210Y-77810288D01*
X58878213Y-77810292D01*
X58989707Y-77921786D01*
X58989711Y-77921789D01*
X59120814Y-78009390D01*
X59120827Y-78009397D01*
X59266498Y-78069735D01*
X59266503Y-78069737D01*
X59421153Y-78100499D01*
X59421156Y-78100500D01*
X59421158Y-78100500D01*
X59578844Y-78100500D01*
X59578845Y-78100499D01*
X59733497Y-78069737D01*
X59857403Y-78018414D01*
X59879172Y-78009397D01*
X59879172Y-78009396D01*
X59879179Y-78009394D01*
X60010289Y-77921789D01*
X60121789Y-77810289D01*
X60209394Y-77679179D01*
X60269737Y-77533497D01*
X60300500Y-77378842D01*
X60300500Y-77221158D01*
X60300500Y-77221155D01*
X60300499Y-77221153D01*
X60269737Y-77066503D01*
X60246539Y-77010498D01*
X60209397Y-76920827D01*
X60209390Y-76920814D01*
X60121789Y-76789711D01*
X60121786Y-76789707D01*
X60010292Y-76678213D01*
X60010288Y-76678210D01*
X59879185Y-76590609D01*
X59879172Y-76590602D01*
X59733501Y-76530264D01*
X59733489Y-76530261D01*
X59578845Y-76499500D01*
X59578842Y-76499500D01*
X59421158Y-76499500D01*
X59421155Y-76499500D01*
X59266510Y-76530261D01*
X59266498Y-76530264D01*
X59120827Y-76590602D01*
X59120814Y-76590609D01*
X58989711Y-76678210D01*
X58989707Y-76678213D01*
X58878213Y-76789707D01*
X58878210Y-76789711D01*
X58790609Y-76920814D01*
X58790602Y-76920827D01*
X58730264Y-77066498D01*
X58730261Y-77066510D01*
X58699500Y-77221153D01*
X41615048Y-77221153D01*
X41597246Y-77108757D01*
X41531557Y-76906588D01*
X41435051Y-76717184D01*
X41435049Y-76717181D01*
X41435048Y-76717179D01*
X41310109Y-76545213D01*
X41196569Y-76431673D01*
X41163084Y-76370350D01*
X41168068Y-76300658D01*
X41209940Y-76244725D01*
X41240915Y-76227810D01*
X41372331Y-76178796D01*
X41487546Y-76092546D01*
X41573796Y-75977331D01*
X41594749Y-75921153D01*
X55899500Y-75921153D01*
X55899500Y-76078846D01*
X55930261Y-76233489D01*
X55930264Y-76233501D01*
X55990602Y-76379172D01*
X55990609Y-76379185D01*
X56078210Y-76510288D01*
X56078213Y-76510292D01*
X56189707Y-76621786D01*
X56189711Y-76621789D01*
X56320814Y-76709390D01*
X56320827Y-76709397D01*
X56466498Y-76769735D01*
X56466503Y-76769737D01*
X56579326Y-76792179D01*
X56621153Y-76800499D01*
X56621156Y-76800500D01*
X56621158Y-76800500D01*
X56778844Y-76800500D01*
X56778845Y-76800499D01*
X56933497Y-76769737D01*
X57079179Y-76709394D01*
X57210289Y-76621789D01*
X57321789Y-76510289D01*
X57409394Y-76379179D01*
X57410853Y-76375658D01*
X57434020Y-76319725D01*
X57469737Y-76233497D01*
X57500500Y-76078842D01*
X57500500Y-75921158D01*
X57500500Y-75921155D01*
X57500499Y-75921153D01*
X57487912Y-75857873D01*
X57469737Y-75766503D01*
X57430956Y-75672876D01*
X57409397Y-75620827D01*
X57409390Y-75620814D01*
X57321789Y-75489711D01*
X57321786Y-75489707D01*
X57210292Y-75378213D01*
X57210288Y-75378210D01*
X57079185Y-75290609D01*
X57079172Y-75290602D01*
X56933501Y-75230264D01*
X56933489Y-75230261D01*
X56778845Y-75199500D01*
X56778842Y-75199500D01*
X56621158Y-75199500D01*
X56621155Y-75199500D01*
X56466510Y-75230261D01*
X56466498Y-75230264D01*
X56320827Y-75290602D01*
X56320814Y-75290609D01*
X56189711Y-75378210D01*
X56189707Y-75378213D01*
X56078213Y-75489707D01*
X56078210Y-75489711D01*
X55990609Y-75620814D01*
X55990602Y-75620827D01*
X55930264Y-75766498D01*
X55930261Y-75766510D01*
X55899500Y-75921153D01*
X41594749Y-75921153D01*
X41596118Y-75917482D01*
X41613182Y-75871733D01*
X41613182Y-75871732D01*
X41624090Y-75842485D01*
X41624091Y-75842483D01*
X41630500Y-75782873D01*
X41630499Y-73987128D01*
X41624091Y-73927517D01*
X41617666Y-73910292D01*
X41573797Y-73792671D01*
X41573793Y-73792664D01*
X41487547Y-73677455D01*
X41487544Y-73677452D01*
X41372335Y-73591206D01*
X41372328Y-73591202D01*
X41237482Y-73540908D01*
X41237483Y-73540908D01*
X41177883Y-73534501D01*
X41177881Y-73534500D01*
X41177873Y-73534500D01*
X41177864Y-73534500D01*
X39382129Y-73534500D01*
X39382123Y-73534501D01*
X39322516Y-73540908D01*
X39187671Y-73591202D01*
X39187664Y-73591206D01*
X39072455Y-73677452D01*
X39072452Y-73677455D01*
X38986206Y-73792664D01*
X38986202Y-73792671D01*
X38935908Y-73927517D01*
X38929501Y-73987116D01*
X38929501Y-73987123D01*
X38929500Y-73987135D01*
X38929500Y-75782870D01*
X38929501Y-75782876D01*
X38935908Y-75842483D01*
X38986202Y-75977328D01*
X38986206Y-75977335D01*
X39072452Y-76092544D01*
X39072455Y-76092547D01*
X39187664Y-76178793D01*
X39187671Y-76178797D01*
X39319082Y-76227810D01*
X39375016Y-76269681D01*
X39399433Y-76335145D01*
X39384582Y-76403418D01*
X39363431Y-76431673D01*
X39249889Y-76545215D01*
X39124951Y-76717179D01*
X39028444Y-76906585D01*
X38962753Y-77108760D01*
X38929500Y-77318713D01*
X38929500Y-77531286D01*
X38945331Y-77631243D01*
X38962754Y-77741243D01*
X39026569Y-77937645D01*
X39028444Y-77943414D01*
X39124951Y-78132820D01*
X39249890Y-78304786D01*
X39400213Y-78455109D01*
X39572182Y-78580050D01*
X39580946Y-78584516D01*
X39631742Y-78632491D01*
X39648536Y-78700312D01*
X39625998Y-78766447D01*
X39580946Y-78805484D01*
X39572182Y-78809949D01*
X39400213Y-78934890D01*
X39249890Y-79085213D01*
X39124951Y-79257179D01*
X39028444Y-79446585D01*
X39028443Y-79446587D01*
X39028443Y-79446588D01*
X39025190Y-79456600D01*
X38962753Y-79648760D01*
X38929500Y-79858713D01*
X38929500Y-80071286D01*
X38958614Y-80255109D01*
X38962754Y-80281243D01*
X39023552Y-80468360D01*
X39028444Y-80483414D01*
X39124951Y-80672820D01*
X39249890Y-80844786D01*
X39400213Y-80995109D01*
X39572182Y-81120050D01*
X39580946Y-81124516D01*
X39631742Y-81172491D01*
X39648536Y-81240312D01*
X39625998Y-81306447D01*
X39580946Y-81345484D01*
X39572182Y-81349949D01*
X39400213Y-81474890D01*
X39249890Y-81625213D01*
X39124951Y-81797179D01*
X39028444Y-81986585D01*
X38962753Y-82188760D01*
X38929500Y-82398713D01*
X38929500Y-82611286D01*
X38932211Y-82628403D01*
X38923256Y-82697697D01*
X38878260Y-82751149D01*
X38811508Y-82771788D01*
X38744195Y-82753063D01*
X38706636Y-82716692D01*
X38621789Y-82589711D01*
X38621786Y-82589707D01*
X38510292Y-82478213D01*
X38510288Y-82478210D01*
X38379185Y-82390609D01*
X38379172Y-82390602D01*
X38233501Y-82330264D01*
X38233489Y-82330261D01*
X38078845Y-82299500D01*
X38078842Y-82299500D01*
X37921158Y-82299500D01*
X37921155Y-82299500D01*
X37766510Y-82330261D01*
X37766498Y-82330264D01*
X37620827Y-82390602D01*
X37620814Y-82390609D01*
X37489711Y-82478210D01*
X37489707Y-82478213D01*
X37378213Y-82589707D01*
X37378210Y-82589711D01*
X37290609Y-82720814D01*
X37290602Y-82720827D01*
X37230264Y-82866498D01*
X37230261Y-82866510D01*
X37199500Y-83021153D01*
X37199500Y-83095565D01*
X37179815Y-83162604D01*
X37127011Y-83208359D01*
X37075500Y-83219565D01*
X36951505Y-83219565D01*
X36788574Y-83251974D01*
X36788562Y-83251977D01*
X36635084Y-83315549D01*
X36635071Y-83315556D01*
X36496942Y-83407852D01*
X36496938Y-83407855D01*
X36379468Y-83525325D01*
X36379465Y-83525329D01*
X36287169Y-83663458D01*
X36287162Y-83663471D01*
X36223590Y-83816949D01*
X36223587Y-83816961D01*
X36191178Y-83979892D01*
X36191178Y-84146037D01*
X36223587Y-84308968D01*
X36223589Y-84308975D01*
X36243622Y-84357341D01*
X36251090Y-84426810D01*
X36219814Y-84489289D01*
X36197951Y-84507894D01*
X36084630Y-84583612D01*
X36084626Y-84583615D01*
X35973132Y-84695109D01*
X35973129Y-84695113D01*
X35885528Y-84826216D01*
X35885521Y-84826229D01*
X35825183Y-84971900D01*
X35825180Y-84971912D01*
X35794419Y-85126555D01*
X34319304Y-85126555D01*
X34237639Y-85044890D01*
X34237635Y-85044887D01*
X34099506Y-84952591D01*
X34099493Y-84952584D01*
X33946015Y-84889012D01*
X33946003Y-84889009D01*
X33783072Y-84856600D01*
X33783068Y-84856600D01*
X33616932Y-84856600D01*
X33616927Y-84856600D01*
X33453996Y-84889009D01*
X33453984Y-84889012D01*
X33300506Y-84952584D01*
X33300493Y-84952591D01*
X33162364Y-85044887D01*
X33162360Y-85044890D01*
X33044890Y-85162360D01*
X33044887Y-85162364D01*
X32952591Y-85300493D01*
X32952586Y-85300502D01*
X32914561Y-85392305D01*
X32870720Y-85446708D01*
X32804426Y-85468773D01*
X32736727Y-85451494D01*
X32689116Y-85400357D01*
X32685439Y-85392305D01*
X32647413Y-85300502D01*
X32647408Y-85300493D01*
X32555112Y-85162364D01*
X32555109Y-85162360D01*
X32437639Y-85044890D01*
X32437635Y-85044887D01*
X32299506Y-84952591D01*
X32299493Y-84952584D01*
X32146015Y-84889012D01*
X32146003Y-84889009D01*
X31983072Y-84856600D01*
X31983068Y-84856600D01*
X31816932Y-84856600D01*
X31816927Y-84856600D01*
X31653996Y-84889009D01*
X31653984Y-84889012D01*
X31500506Y-84952584D01*
X31500493Y-84952591D01*
X31362364Y-85044887D01*
X31362360Y-85044890D01*
X31244890Y-85162360D01*
X31244887Y-85162364D01*
X31152591Y-85300493D01*
X31152584Y-85300506D01*
X31089012Y-85453984D01*
X31089009Y-85453996D01*
X31056600Y-85616927D01*
X20367932Y-85616927D01*
X20351618Y-85534915D01*
X20351617Y-85534908D01*
X20332669Y-85489164D01*
X20288043Y-85381425D01*
X20288036Y-85381412D01*
X20195740Y-85243283D01*
X20195737Y-85243279D01*
X20078267Y-85125809D01*
X20078263Y-85125806D01*
X19940134Y-85033510D01*
X19940121Y-85033503D01*
X19786643Y-84969931D01*
X19786631Y-84969928D01*
X19631044Y-84938980D01*
X19569133Y-84906595D01*
X19534559Y-84845880D01*
X19538298Y-84776110D01*
X19579164Y-84719438D01*
X19631042Y-84695746D01*
X19671011Y-84687796D01*
X19824500Y-84624219D01*
X19962636Y-84531919D01*
X20080112Y-84414443D01*
X20172412Y-84276307D01*
X20235989Y-84122818D01*
X20268400Y-83959875D01*
X20268400Y-83793739D01*
X20235989Y-83630796D01*
X20217853Y-83587012D01*
X20172415Y-83477313D01*
X20172408Y-83477300D01*
X20080112Y-83339171D01*
X20080109Y-83339167D01*
X19962639Y-83221697D01*
X19962635Y-83221694D01*
X19824506Y-83129398D01*
X19824493Y-83129391D01*
X19671015Y-83065819D01*
X19671003Y-83065816D01*
X19508072Y-83033407D01*
X19508068Y-83033407D01*
X19341932Y-83033407D01*
X19341927Y-83033407D01*
X19178996Y-83065816D01*
X19178984Y-83065819D01*
X19025506Y-83129391D01*
X19025493Y-83129398D01*
X18887364Y-83221694D01*
X18887360Y-83221697D01*
X18769890Y-83339167D01*
X18769887Y-83339171D01*
X18677591Y-83477300D01*
X18677584Y-83477313D01*
X18614012Y-83630791D01*
X18614009Y-83630803D01*
X18581600Y-83793734D01*
X16626790Y-83793734D01*
X16607816Y-83779949D01*
X16591160Y-83771462D01*
X16583916Y-83766357D01*
X16567476Y-83745661D01*
X16548259Y-83727512D01*
X16546084Y-83718730D01*
X16540458Y-83711648D01*
X16537817Y-83685349D01*
X16531463Y-83659692D01*
X16534380Y-83651129D01*
X16533477Y-83642128D01*
X16545473Y-83618575D01*
X16553999Y-83593556D01*
X16561550Y-83587012D01*
X16565189Y-83579869D01*
X16579308Y-83571625D01*
X16599054Y-83554515D01*
X16607816Y-83550051D01*
X16664914Y-83508567D01*
X16779786Y-83425109D01*
X16779788Y-83425106D01*
X16779792Y-83425104D01*
X16930104Y-83274792D01*
X16930106Y-83274788D01*
X16930109Y-83274786D01*
X17052301Y-83106601D01*
X17055051Y-83102816D01*
X17151557Y-82913412D01*
X17217246Y-82711243D01*
X17250500Y-82501287D01*
X17250500Y-82288713D01*
X17239800Y-82221155D01*
X17225400Y-82130238D01*
X17223292Y-82116927D01*
X20356600Y-82116927D01*
X20356600Y-82283072D01*
X20389009Y-82446003D01*
X20389012Y-82446015D01*
X20452584Y-82599493D01*
X20452591Y-82599506D01*
X20544887Y-82737635D01*
X20544890Y-82737639D01*
X20662360Y-82855109D01*
X20662364Y-82855112D01*
X20800493Y-82947408D01*
X20800506Y-82947415D01*
X20953984Y-83010987D01*
X20953989Y-83010989D01*
X21116927Y-83043399D01*
X21116931Y-83043400D01*
X21116932Y-83043400D01*
X21283069Y-83043400D01*
X21283070Y-83043399D01*
X21394912Y-83021153D01*
X31699500Y-83021153D01*
X31699500Y-83178846D01*
X31730261Y-83333489D01*
X31730264Y-83333501D01*
X31790602Y-83479172D01*
X31790609Y-83479185D01*
X31878210Y-83610288D01*
X31878213Y-83610292D01*
X31989707Y-83721786D01*
X31989711Y-83721789D01*
X32120814Y-83809390D01*
X32120827Y-83809397D01*
X32263379Y-83868443D01*
X32266503Y-83869737D01*
X32421153Y-83900499D01*
X32421156Y-83900500D01*
X32421158Y-83900500D01*
X32578844Y-83900500D01*
X32578845Y-83900499D01*
X32733497Y-83869737D01*
X32860911Y-83816961D01*
X32879172Y-83809397D01*
X32879172Y-83809396D01*
X32879179Y-83809394D01*
X33010289Y-83721789D01*
X33121789Y-83610289D01*
X33209394Y-83479179D01*
X33269737Y-83333497D01*
X33300500Y-83178842D01*
X33300500Y-83021158D01*
X33300500Y-83021155D01*
X33300499Y-83021153D01*
X33290286Y-82969808D01*
X33269737Y-82866503D01*
X33265019Y-82855112D01*
X33209397Y-82720827D01*
X33209390Y-82720814D01*
X33121789Y-82589711D01*
X33121786Y-82589707D01*
X33010292Y-82478213D01*
X33010288Y-82478210D01*
X32879185Y-82390609D01*
X32879172Y-82390602D01*
X32733501Y-82330264D01*
X32733489Y-82330261D01*
X32578845Y-82299500D01*
X32578842Y-82299500D01*
X32421158Y-82299500D01*
X32421155Y-82299500D01*
X32266510Y-82330261D01*
X32266498Y-82330264D01*
X32120827Y-82390602D01*
X32120814Y-82390609D01*
X31989711Y-82478210D01*
X31989707Y-82478213D01*
X31878213Y-82589707D01*
X31878210Y-82589711D01*
X31790609Y-82720814D01*
X31790602Y-82720827D01*
X31730264Y-82866498D01*
X31730261Y-82866510D01*
X31699500Y-83021153D01*
X21394912Y-83021153D01*
X21446011Y-83010989D01*
X21564721Y-82961817D01*
X21599493Y-82947415D01*
X21599493Y-82947414D01*
X21599500Y-82947412D01*
X21637852Y-82921786D01*
X21652552Y-82911964D01*
X21684201Y-82890815D01*
X21737636Y-82855112D01*
X21855112Y-82737636D01*
X21947412Y-82599500D01*
X22010989Y-82446011D01*
X22043400Y-82283068D01*
X22043400Y-82221153D01*
X33899500Y-82221153D01*
X33899500Y-82378846D01*
X33930261Y-82533489D01*
X33930264Y-82533501D01*
X33990602Y-82679172D01*
X33990609Y-82679185D01*
X34078210Y-82810288D01*
X34078213Y-82810292D01*
X34189707Y-82921786D01*
X34189711Y-82921789D01*
X34320814Y-83009390D01*
X34320827Y-83009397D01*
X34457044Y-83065819D01*
X34466503Y-83069737D01*
X34610661Y-83098412D01*
X34621153Y-83100499D01*
X34621156Y-83100500D01*
X34621158Y-83100500D01*
X34778844Y-83100500D01*
X34778845Y-83100499D01*
X34933497Y-83069737D01*
X35075326Y-83010990D01*
X35079172Y-83009397D01*
X35079172Y-83009396D01*
X35079179Y-83009394D01*
X35210289Y-82921789D01*
X35321789Y-82810289D01*
X35409394Y-82679179D01*
X35469737Y-82533497D01*
X35500500Y-82378842D01*
X35500500Y-82221158D01*
X35500500Y-82221155D01*
X35500499Y-82221153D01*
X35494055Y-82188757D01*
X35469737Y-82066503D01*
X35467700Y-82061585D01*
X35409397Y-81920827D01*
X35409390Y-81920814D01*
X35321789Y-81789711D01*
X35321786Y-81789707D01*
X35210292Y-81678213D01*
X35210288Y-81678210D01*
X35079185Y-81590609D01*
X35079172Y-81590602D01*
X34933501Y-81530264D01*
X34933489Y-81530261D01*
X34778845Y-81499500D01*
X34778842Y-81499500D01*
X34621158Y-81499500D01*
X34621155Y-81499500D01*
X34466510Y-81530261D01*
X34466498Y-81530264D01*
X34320827Y-81590602D01*
X34320814Y-81590609D01*
X34189711Y-81678210D01*
X34189707Y-81678213D01*
X34078213Y-81789707D01*
X34078210Y-81789711D01*
X33990609Y-81920814D01*
X33990602Y-81920827D01*
X33930264Y-82066498D01*
X33930261Y-82066510D01*
X33899500Y-82221153D01*
X22043400Y-82221153D01*
X22043400Y-82116932D01*
X22010989Y-81953989D01*
X22007686Y-81946015D01*
X21947415Y-81800506D01*
X21947408Y-81800493D01*
X21855112Y-81662364D01*
X21855109Y-81662360D01*
X21737639Y-81544890D01*
X21737635Y-81544887D01*
X21599506Y-81452591D01*
X21599493Y-81452584D01*
X21446015Y-81389012D01*
X21446003Y-81389009D01*
X21283072Y-81356600D01*
X21283068Y-81356600D01*
X21116932Y-81356600D01*
X21116927Y-81356600D01*
X20953996Y-81389009D01*
X20953984Y-81389012D01*
X20800506Y-81452584D01*
X20800493Y-81452591D01*
X20662364Y-81544887D01*
X20662360Y-81544890D01*
X20544890Y-81662360D01*
X20544887Y-81662364D01*
X20452591Y-81800493D01*
X20452584Y-81800506D01*
X20389012Y-81953984D01*
X20389009Y-81953996D01*
X20356600Y-82116927D01*
X17223292Y-82116927D01*
X17217246Y-82078760D01*
X17217246Y-82078757D01*
X17151557Y-81876588D01*
X17055051Y-81687184D01*
X17055049Y-81687181D01*
X17055048Y-81687179D01*
X16930109Y-81515213D01*
X16779786Y-81364890D01*
X16607820Y-81239951D01*
X16605082Y-81238556D01*
X16599054Y-81235485D01*
X16548259Y-81187512D01*
X16531463Y-81119692D01*
X16553999Y-81053556D01*
X16599054Y-81014515D01*
X16607816Y-81010051D01*
X16683438Y-80955109D01*
X16779786Y-80885109D01*
X16779788Y-80885106D01*
X16779792Y-80885104D01*
X16930104Y-80734792D01*
X16930106Y-80734788D01*
X16930109Y-80734786D01*
X17055048Y-80562820D01*
X17055047Y-80562820D01*
X17055051Y-80562816D01*
X17151557Y-80373412D01*
X17217246Y-80171243D01*
X17250500Y-79961287D01*
X17250500Y-79772876D01*
X27360923Y-79772876D01*
X27360923Y-79959033D01*
X27397237Y-80141593D01*
X27397239Y-80141601D01*
X27468473Y-80313577D01*
X27468478Y-80313586D01*
X27571893Y-80468356D01*
X27571896Y-80468360D01*
X27703517Y-80599981D01*
X27703521Y-80599984D01*
X27858291Y-80703399D01*
X27858297Y-80703402D01*
X27858298Y-80703403D01*
X28030277Y-80774639D01*
X28212844Y-80810954D01*
X28212847Y-80810955D01*
X28212849Y-80810955D01*
X28398999Y-80810955D01*
X28399000Y-80810954D01*
X28581569Y-80774639D01*
X28753548Y-80703403D01*
X28908325Y-80599984D01*
X29039952Y-80468357D01*
X29143371Y-80313580D01*
X29214607Y-80141601D01*
X29250923Y-79959029D01*
X29250923Y-79772881D01*
X29250923Y-79772878D01*
X29250922Y-79772876D01*
X29248830Y-79762360D01*
X29214607Y-79590309D01*
X29143371Y-79418330D01*
X29143370Y-79418329D01*
X29143367Y-79418323D01*
X29039952Y-79263553D01*
X29039949Y-79263549D01*
X28908328Y-79131928D01*
X28908324Y-79131925D01*
X28753554Y-79028510D01*
X28753545Y-79028505D01*
X28581569Y-78957271D01*
X28581561Y-78957269D01*
X28399000Y-78920955D01*
X28398997Y-78920955D01*
X28212849Y-78920955D01*
X28212846Y-78920955D01*
X28030284Y-78957269D01*
X28030276Y-78957271D01*
X27858300Y-79028505D01*
X27858291Y-79028510D01*
X27703521Y-79131925D01*
X27703517Y-79131928D01*
X27571896Y-79263549D01*
X27571893Y-79263553D01*
X27468478Y-79418323D01*
X27468473Y-79418332D01*
X27397239Y-79590308D01*
X27397237Y-79590316D01*
X27360923Y-79772876D01*
X17250500Y-79772876D01*
X17250500Y-79748713D01*
X17217246Y-79538757D01*
X17151557Y-79336588D01*
X17055051Y-79147184D01*
X17055049Y-79147181D01*
X17055048Y-79147179D01*
X16930109Y-78975213D01*
X16779786Y-78824890D01*
X16607820Y-78699951D01*
X16605082Y-78698556D01*
X16599054Y-78695485D01*
X16548259Y-78647512D01*
X16531463Y-78579692D01*
X16553999Y-78513556D01*
X16599054Y-78474515D01*
X16607816Y-78470051D01*
X16694708Y-78406921D01*
X31055000Y-78406921D01*
X31055000Y-78593078D01*
X31091314Y-78775638D01*
X31091316Y-78775646D01*
X31162550Y-78947622D01*
X31162555Y-78947631D01*
X31265970Y-79102401D01*
X31265973Y-79102405D01*
X31397594Y-79234026D01*
X31397598Y-79234029D01*
X31552368Y-79337444D01*
X31552377Y-79337449D01*
X31591336Y-79353586D01*
X31724354Y-79408684D01*
X31903201Y-79444259D01*
X31906921Y-79444999D01*
X31906924Y-79445000D01*
X31906926Y-79445000D01*
X32093076Y-79445000D01*
X32093077Y-79444999D01*
X32275646Y-79408684D01*
X32447625Y-79337448D01*
X32602402Y-79234029D01*
X32734029Y-79102402D01*
X32837448Y-78947625D01*
X32908684Y-78775646D01*
X32945000Y-78593074D01*
X32945000Y-78406926D01*
X32945000Y-78406923D01*
X32944999Y-78406921D01*
X32921545Y-78289011D01*
X32908684Y-78224354D01*
X32844639Y-78069735D01*
X32837449Y-78052377D01*
X32837444Y-78052368D01*
X32734029Y-77897598D01*
X32734026Y-77897594D01*
X32602405Y-77765973D01*
X32602401Y-77765970D01*
X32447631Y-77662555D01*
X32447622Y-77662550D01*
X32275646Y-77591316D01*
X32275638Y-77591314D01*
X32093077Y-77555000D01*
X32093074Y-77555000D01*
X31906926Y-77555000D01*
X31906923Y-77555000D01*
X31724361Y-77591314D01*
X31724353Y-77591316D01*
X31552377Y-77662550D01*
X31552368Y-77662555D01*
X31397598Y-77765970D01*
X31397594Y-77765973D01*
X31265973Y-77897594D01*
X31265970Y-77897598D01*
X31162555Y-78052368D01*
X31162550Y-78052377D01*
X31091316Y-78224353D01*
X31091314Y-78224361D01*
X31055000Y-78406921D01*
X16694708Y-78406921D01*
X16732048Y-78379792D01*
X16779786Y-78345109D01*
X16779788Y-78345106D01*
X16779792Y-78345104D01*
X16930104Y-78194792D01*
X16930106Y-78194788D01*
X16930109Y-78194786D01*
X17055048Y-78022820D01*
X17055047Y-78022820D01*
X17055051Y-78022816D01*
X17151557Y-77833412D01*
X17217246Y-77631243D01*
X17250500Y-77421287D01*
X17250500Y-77208713D01*
X17217246Y-76998757D01*
X17151557Y-76796588D01*
X17055051Y-76607184D01*
X17055049Y-76607181D01*
X17055048Y-76607179D01*
X16930109Y-76435213D01*
X16816569Y-76321673D01*
X16783084Y-76260350D01*
X16788068Y-76190658D01*
X16829940Y-76134725D01*
X16860915Y-76117810D01*
X16992331Y-76068796D01*
X17107546Y-75982546D01*
X17193796Y-75867331D01*
X17244091Y-75732483D01*
X17250500Y-75672873D01*
X17250499Y-74762135D01*
X24749500Y-74762135D01*
X24749500Y-76557870D01*
X24749501Y-76557876D01*
X24755908Y-76617483D01*
X24806202Y-76752328D01*
X24806206Y-76752335D01*
X24892452Y-76867544D01*
X24892455Y-76867547D01*
X25007664Y-76953793D01*
X25007671Y-76953797D01*
X25142517Y-77004091D01*
X25142516Y-77004091D01*
X25149444Y-77004835D01*
X25202127Y-77010500D01*
X26997872Y-77010499D01*
X27057483Y-77004091D01*
X27192331Y-76953796D01*
X27307546Y-76867546D01*
X27393796Y-76752331D01*
X27444091Y-76617483D01*
X27450500Y-76557873D01*
X27450499Y-74762128D01*
X27444091Y-74702517D01*
X27393796Y-74567669D01*
X27393795Y-74567668D01*
X27393793Y-74567664D01*
X27307547Y-74452455D01*
X27307544Y-74452452D01*
X27192335Y-74366206D01*
X27192328Y-74366202D01*
X27057482Y-74315908D01*
X27057483Y-74315908D01*
X26997883Y-74309501D01*
X26997881Y-74309500D01*
X26997873Y-74309500D01*
X26997864Y-74309500D01*
X25202129Y-74309500D01*
X25202123Y-74309501D01*
X25142516Y-74315908D01*
X25007671Y-74366202D01*
X25007664Y-74366206D01*
X24892455Y-74452452D01*
X24892452Y-74452455D01*
X24806206Y-74567664D01*
X24806202Y-74567671D01*
X24755908Y-74702517D01*
X24749501Y-74762116D01*
X24749501Y-74762123D01*
X24749500Y-74762135D01*
X17250499Y-74762135D01*
X17250499Y-73877128D01*
X17244091Y-73817517D01*
X17234823Y-73792669D01*
X17193797Y-73682671D01*
X17193793Y-73682664D01*
X17107547Y-73567455D01*
X17107544Y-73567452D01*
X16992335Y-73481206D01*
X16992328Y-73481202D01*
X16858396Y-73431249D01*
X16858395Y-73431249D01*
X16857481Y-73430908D01*
X16857483Y-73430908D01*
X16797883Y-73424501D01*
X16797881Y-73424500D01*
X16797873Y-73424500D01*
X16797864Y-73424500D01*
X15002129Y-73424500D01*
X15002123Y-73424501D01*
X14942516Y-73430908D01*
X14807671Y-73481202D01*
X14807664Y-73481206D01*
X14692455Y-73567452D01*
X14692452Y-73567455D01*
X14606206Y-73682664D01*
X14606202Y-73682671D01*
X14555908Y-73817517D01*
X14549501Y-73877116D01*
X14549501Y-73877123D01*
X14549500Y-73877135D01*
X11700500Y-73877135D01*
X11700500Y-73321153D01*
X51399500Y-73321153D01*
X51399500Y-73478846D01*
X51430261Y-73633489D01*
X51430264Y-73633501D01*
X51490602Y-73779172D01*
X51490609Y-73779185D01*
X51578210Y-73910288D01*
X51578213Y-73910292D01*
X51689707Y-74021786D01*
X51689711Y-74021789D01*
X51820814Y-74109390D01*
X51820827Y-74109397D01*
X51966498Y-74169735D01*
X51966503Y-74169737D01*
X52121153Y-74200499D01*
X52121156Y-74200500D01*
X52121158Y-74200500D01*
X52278844Y-74200500D01*
X52278845Y-74200499D01*
X52433497Y-74169737D01*
X52579179Y-74109394D01*
X52710289Y-74021789D01*
X52821789Y-73910289D01*
X52909394Y-73779179D01*
X52969737Y-73633497D01*
X53000500Y-73478842D01*
X53000500Y-73321158D01*
X53000500Y-73321155D01*
X53000499Y-73321153D01*
X52985033Y-73243400D01*
X52969737Y-73166503D01*
X52923598Y-73055112D01*
X52909397Y-73020827D01*
X52909390Y-73020814D01*
X52821789Y-72889711D01*
X52821786Y-72889707D01*
X52710292Y-72778213D01*
X52710288Y-72778210D01*
X52579185Y-72690609D01*
X52579172Y-72690602D01*
X52433501Y-72630264D01*
X52433489Y-72630261D01*
X52278845Y-72599500D01*
X52278842Y-72599500D01*
X52121158Y-72599500D01*
X52121155Y-72599500D01*
X51966510Y-72630261D01*
X51966498Y-72630264D01*
X51820827Y-72690602D01*
X51820814Y-72690609D01*
X51689711Y-72778210D01*
X51689707Y-72778213D01*
X51578213Y-72889707D01*
X51578210Y-72889711D01*
X51490609Y-73020814D01*
X51490602Y-73020827D01*
X51430264Y-73166498D01*
X51430261Y-73166510D01*
X51399500Y-73321153D01*
X11700500Y-73321153D01*
X11700500Y-72316927D01*
X79056600Y-72316927D01*
X79056600Y-72483072D01*
X79089009Y-72646003D01*
X79089012Y-72646015D01*
X79152584Y-72799493D01*
X79152591Y-72799506D01*
X79244887Y-72937635D01*
X79244890Y-72937639D01*
X79362360Y-73055109D01*
X79362364Y-73055112D01*
X79500493Y-73147408D01*
X79500506Y-73147415D01*
X79653984Y-73210987D01*
X79653989Y-73210989D01*
X79816927Y-73243399D01*
X79816931Y-73243400D01*
X79816932Y-73243400D01*
X79983069Y-73243400D01*
X79983070Y-73243399D01*
X80146011Y-73210989D01*
X80299500Y-73147412D01*
X80437636Y-73055112D01*
X80555112Y-72937636D01*
X80647412Y-72799500D01*
X80710989Y-72646011D01*
X80743400Y-72483068D01*
X80743400Y-72316932D01*
X80710989Y-72153989D01*
X80710987Y-72153984D01*
X80647415Y-72000506D01*
X80647408Y-72000493D01*
X80555112Y-71862364D01*
X80555109Y-71862360D01*
X80437639Y-71744890D01*
X80437635Y-71744887D01*
X80299506Y-71652591D01*
X80299493Y-71652584D01*
X80146015Y-71589012D01*
X80146003Y-71589009D01*
X79983072Y-71556600D01*
X79983068Y-71556600D01*
X79816932Y-71556600D01*
X79816927Y-71556600D01*
X79653996Y-71589009D01*
X79653984Y-71589012D01*
X79500506Y-71652584D01*
X79500493Y-71652591D01*
X79362364Y-71744887D01*
X79362360Y-71744890D01*
X79244890Y-71862360D01*
X79244887Y-71862364D01*
X79152591Y-72000493D01*
X79152584Y-72000506D01*
X79089012Y-72153984D01*
X79089009Y-72153996D01*
X79056600Y-72316927D01*
X11700500Y-72316927D01*
X11700500Y-68766558D01*
X41044905Y-68766558D01*
X41044905Y-68924251D01*
X41075666Y-69078894D01*
X41075669Y-69078906D01*
X41136007Y-69224577D01*
X41136014Y-69224590D01*
X41223615Y-69355693D01*
X41223618Y-69355697D01*
X41335112Y-69467191D01*
X41335116Y-69467194D01*
X41466219Y-69554795D01*
X41466232Y-69554802D01*
X41611903Y-69615140D01*
X41611908Y-69615142D01*
X41766558Y-69645904D01*
X41766561Y-69645905D01*
X41766563Y-69645905D01*
X41924249Y-69645905D01*
X41924250Y-69645904D01*
X42078902Y-69615142D01*
X42224584Y-69554799D01*
X42355694Y-69467194D01*
X42467194Y-69355694D01*
X42554799Y-69224584D01*
X42615142Y-69078902D01*
X42645905Y-68924247D01*
X42645905Y-68766563D01*
X42645905Y-68766560D01*
X42645904Y-68766558D01*
X42615143Y-68611915D01*
X42615142Y-68611908D01*
X42615140Y-68611903D01*
X42554802Y-68466232D01*
X42554795Y-68466219D01*
X42467194Y-68335116D01*
X42467191Y-68335112D01*
X42355697Y-68223618D01*
X42355693Y-68223615D01*
X42224590Y-68136014D01*
X42224577Y-68136007D01*
X42078906Y-68075669D01*
X42078894Y-68075666D01*
X41924250Y-68044905D01*
X41924247Y-68044905D01*
X41766563Y-68044905D01*
X41766560Y-68044905D01*
X41611915Y-68075666D01*
X41611903Y-68075669D01*
X41466232Y-68136007D01*
X41466219Y-68136014D01*
X41335116Y-68223615D01*
X41335112Y-68223618D01*
X41223618Y-68335112D01*
X41223615Y-68335116D01*
X41136014Y-68466219D01*
X41136007Y-68466232D01*
X41075669Y-68611903D01*
X41075666Y-68611915D01*
X41044905Y-68766558D01*
X11700500Y-68766558D01*
X11700500Y-67650000D01*
X106500000Y-67650000D01*
X117500000Y-67650000D01*
X117500000Y-39650000D01*
X106500000Y-39650000D01*
X106500000Y-67650000D01*
X11700500Y-67650000D01*
X11700500Y-53981153D01*
X97299500Y-53981153D01*
X97299500Y-54138846D01*
X97330261Y-54293489D01*
X97330264Y-54293501D01*
X97390602Y-54439172D01*
X97390609Y-54439185D01*
X97458713Y-54541109D01*
X97479591Y-54607787D01*
X97461107Y-54675167D01*
X97458713Y-54678891D01*
X97390609Y-54780814D01*
X97390602Y-54780827D01*
X97330264Y-54926498D01*
X97330261Y-54926510D01*
X97299500Y-55081153D01*
X97299500Y-55238846D01*
X97330261Y-55393489D01*
X97330264Y-55393501D01*
X97390602Y-55539172D01*
X97390609Y-55539185D01*
X97478210Y-55670288D01*
X97478213Y-55670292D01*
X97589707Y-55781786D01*
X97589711Y-55781789D01*
X97720814Y-55869390D01*
X97720818Y-55869392D01*
X97720821Y-55869394D01*
X97828782Y-55914112D01*
X97883182Y-55957951D01*
X97895888Y-55981220D01*
X97940602Y-56089172D01*
X97940609Y-56089185D01*
X98028210Y-56220288D01*
X98028213Y-56220292D01*
X98139707Y-56331786D01*
X98139711Y-56331789D01*
X98270814Y-56419390D01*
X98270827Y-56419397D01*
X98416498Y-56479735D01*
X98416503Y-56479737D01*
X98571153Y-56510499D01*
X98571156Y-56510500D01*
X98571158Y-56510500D01*
X98728844Y-56510500D01*
X98728845Y-56510499D01*
X98883497Y-56479737D01*
X99029179Y-56419394D01*
X99131111Y-56351284D01*
X99197786Y-56330408D01*
X99265166Y-56348892D01*
X99268847Y-56351257D01*
X99370821Y-56419394D01*
X99370823Y-56419395D01*
X99370827Y-56419397D01*
X99516498Y-56479735D01*
X99516503Y-56479737D01*
X99671153Y-56510499D01*
X99671156Y-56510500D01*
X99671158Y-56510500D01*
X99828844Y-56510500D01*
X99828845Y-56510499D01*
X99983497Y-56479737D01*
X100129179Y-56419394D01*
X100260289Y-56331789D01*
X100371789Y-56220289D01*
X100459394Y-56089179D01*
X100504112Y-55981217D01*
X100547951Y-55926817D01*
X100571210Y-55914115D01*
X100679179Y-55869394D01*
X100810289Y-55781789D01*
X100921789Y-55670289D01*
X101009394Y-55539179D01*
X101069737Y-55393497D01*
X101100500Y-55238842D01*
X101100500Y-55081158D01*
X101100500Y-55081155D01*
X101100499Y-55081153D01*
X101069738Y-54926510D01*
X101069737Y-54926503D01*
X101069735Y-54926498D01*
X101009397Y-54780827D01*
X101009393Y-54780820D01*
X101009389Y-54780814D01*
X100941284Y-54678888D01*
X100920408Y-54612214D01*
X100938892Y-54544834D01*
X100941257Y-54541152D01*
X101009394Y-54439179D01*
X101069737Y-54293497D01*
X101100500Y-54138842D01*
X101100500Y-53981158D01*
X101100500Y-53981155D01*
X101100499Y-53981153D01*
X101069738Y-53826510D01*
X101069737Y-53826503D01*
X101069735Y-53826498D01*
X101009397Y-53680827D01*
X101009390Y-53680814D01*
X100921789Y-53549711D01*
X100921786Y-53549707D01*
X100810292Y-53438213D01*
X100810288Y-53438210D01*
X100679185Y-53350609D01*
X100679172Y-53350602D01*
X100571220Y-53305888D01*
X100516816Y-53262048D01*
X100504115Y-53238789D01*
X100459394Y-53130821D01*
X100459392Y-53130818D01*
X100459390Y-53130814D01*
X100371789Y-52999711D01*
X100371786Y-52999707D01*
X100260292Y-52888213D01*
X100260288Y-52888210D01*
X100129185Y-52800609D01*
X100129172Y-52800602D01*
X99983501Y-52740264D01*
X99983489Y-52740261D01*
X99828845Y-52709500D01*
X99828842Y-52709500D01*
X99671158Y-52709500D01*
X99671155Y-52709500D01*
X99516510Y-52740261D01*
X99516499Y-52740264D01*
X99508105Y-52743741D01*
X99438635Y-52751207D01*
X99376157Y-52719929D01*
X99340507Y-52659839D01*
X99339040Y-52604985D01*
X99343400Y-52583067D01*
X99343400Y-52416931D01*
X99343399Y-52416927D01*
X99310990Y-52253996D01*
X99310989Y-52253989D01*
X99310987Y-52253984D01*
X99247415Y-52100506D01*
X99247408Y-52100493D01*
X99155112Y-51962364D01*
X99155109Y-51962360D01*
X99037639Y-51844890D01*
X99037635Y-51844887D01*
X98899506Y-51752591D01*
X98899493Y-51752584D01*
X98746015Y-51689012D01*
X98746003Y-51689009D01*
X98583072Y-51656600D01*
X98583068Y-51656600D01*
X98416932Y-51656600D01*
X98416927Y-51656600D01*
X98253996Y-51689009D01*
X98253984Y-51689012D01*
X98100506Y-51752584D01*
X98100493Y-51752591D01*
X97962364Y-51844887D01*
X97962360Y-51844890D01*
X97844890Y-51962360D01*
X97844887Y-51962364D01*
X97752591Y-52100493D01*
X97752584Y-52100506D01*
X97689012Y-52253984D01*
X97689009Y-52253996D01*
X97656600Y-52416927D01*
X97656600Y-52583072D01*
X97689009Y-52746003D01*
X97689012Y-52746015D01*
X97752584Y-52899493D01*
X97752591Y-52899506D01*
X97844887Y-53037635D01*
X97844890Y-53037639D01*
X97881276Y-53074024D01*
X97890856Y-53091568D01*
X97904479Y-53106200D01*
X97907258Y-53121605D01*
X97914762Y-53135346D01*
X97913336Y-53155285D01*
X97916886Y-53174960D01*
X97909999Y-53201942D01*
X97909778Y-53205038D01*
X97908158Y-53209157D01*
X97895889Y-53238778D01*
X97852048Y-53293182D01*
X97828780Y-53305888D01*
X97720823Y-53350604D01*
X97720814Y-53350609D01*
X97589711Y-53438210D01*
X97589707Y-53438213D01*
X97478213Y-53549707D01*
X97478210Y-53549711D01*
X97390609Y-53680814D01*
X97390602Y-53680827D01*
X97330264Y-53826498D01*
X97330261Y-53826510D01*
X97299500Y-53981153D01*
X11700500Y-53981153D01*
X11700500Y-48283907D01*
X11720185Y-48216868D01*
X11772989Y-48171113D01*
X11842147Y-48161169D01*
X11905703Y-48190194D01*
X11927602Y-48215016D01*
X12001697Y-48325907D01*
X12001700Y-48325911D01*
X12134088Y-48458299D01*
X12134092Y-48458302D01*
X12289762Y-48562318D01*
X12289768Y-48562321D01*
X12289769Y-48562322D01*
X12462749Y-48633973D01*
X12646379Y-48670499D01*
X12646383Y-48670500D01*
X12646384Y-48670500D01*
X13633617Y-48670500D01*
X13633618Y-48670499D01*
X13817251Y-48633973D01*
X13990231Y-48562322D01*
X14145908Y-48458302D01*
X14278302Y-48325908D01*
X14382322Y-48170231D01*
X14453973Y-47997251D01*
X14490500Y-47813616D01*
X14490500Y-47626384D01*
X14453973Y-47442749D01*
X14398554Y-47308956D01*
X14382323Y-47269771D01*
X14382318Y-47269762D01*
X14278302Y-47114092D01*
X14278299Y-47114088D01*
X14145911Y-46981700D01*
X14145907Y-46981697D01*
X13990237Y-46877681D01*
X13990228Y-46877676D01*
X13817251Y-46806027D01*
X13817243Y-46806025D01*
X13633620Y-46769500D01*
X13633616Y-46769500D01*
X12646384Y-46769500D01*
X12646379Y-46769500D01*
X12462756Y-46806025D01*
X12462748Y-46806027D01*
X12289771Y-46877676D01*
X12289762Y-46877681D01*
X12134092Y-46981697D01*
X12134088Y-46981700D01*
X12001700Y-47114088D01*
X12001697Y-47114092D01*
X11927602Y-47224983D01*
X11873990Y-47269788D01*
X11804665Y-47278495D01*
X11741637Y-47248340D01*
X11704918Y-47188897D01*
X11700500Y-47156092D01*
X11700500Y-39633907D01*
X11720185Y-39566868D01*
X11772989Y-39521113D01*
X11842147Y-39511169D01*
X11905703Y-39540194D01*
X11927602Y-39565016D01*
X12001697Y-39675907D01*
X12001700Y-39675911D01*
X12134088Y-39808299D01*
X12134092Y-39808302D01*
X12289762Y-39912318D01*
X12289768Y-39912321D01*
X12289769Y-39912322D01*
X12462749Y-39983973D01*
X12629477Y-40017137D01*
X12646379Y-40020499D01*
X12646383Y-40020500D01*
X12646384Y-40020500D01*
X13633617Y-40020500D01*
X13633618Y-40020499D01*
X13817251Y-39983973D01*
X13990231Y-39912322D01*
X14145908Y-39808302D01*
X14278302Y-39675908D01*
X14382322Y-39520231D01*
X14453973Y-39347251D01*
X14490500Y-39163616D01*
X14490500Y-38976384D01*
X14490499Y-38976379D01*
X14819500Y-38976379D01*
X14819500Y-39163620D01*
X14856025Y-39347243D01*
X14856027Y-39347251D01*
X14927676Y-39520228D01*
X14927681Y-39520237D01*
X15031697Y-39675907D01*
X15031700Y-39675911D01*
X15164088Y-39808299D01*
X15164092Y-39808302D01*
X15324834Y-39915707D01*
X15324025Y-39916916D01*
X15368694Y-39960789D01*
X15384159Y-40028926D01*
X15374961Y-40068643D01*
X15332185Y-40171913D01*
X15332182Y-40171925D01*
X15299500Y-40336228D01*
X15299500Y-40503771D01*
X15332182Y-40668074D01*
X15332185Y-40668086D01*
X15385810Y-40797548D01*
X15393279Y-40867017D01*
X15385810Y-40892452D01*
X15332185Y-41021913D01*
X15332182Y-41021925D01*
X15299500Y-41186228D01*
X15299500Y-41353771D01*
X15332182Y-41518074D01*
X15332185Y-41518086D01*
X15385810Y-41647548D01*
X15393279Y-41717017D01*
X15385810Y-41742452D01*
X15332185Y-41871913D01*
X15332182Y-41871925D01*
X15299500Y-42036228D01*
X15299500Y-42203771D01*
X15332182Y-42368074D01*
X15332185Y-42368086D01*
X15385810Y-42497548D01*
X15393279Y-42567017D01*
X15385810Y-42592452D01*
X15332185Y-42721913D01*
X15332182Y-42721925D01*
X15299500Y-42886228D01*
X15299500Y-43053771D01*
X15332182Y-43218074D01*
X15332185Y-43218086D01*
X15385810Y-43347548D01*
X15393279Y-43417017D01*
X15385810Y-43442452D01*
X15332185Y-43571913D01*
X15332182Y-43571925D01*
X15299500Y-43736228D01*
X15299500Y-43903771D01*
X15332182Y-44068074D01*
X15332185Y-44068086D01*
X15385810Y-44197548D01*
X15393279Y-44267017D01*
X15385810Y-44292452D01*
X15332185Y-44421913D01*
X15332182Y-44421925D01*
X15299500Y-44586228D01*
X15299500Y-44753771D01*
X15332182Y-44918074D01*
X15332185Y-44918086D01*
X15385810Y-45047548D01*
X15393279Y-45117017D01*
X15385810Y-45142452D01*
X15332185Y-45271913D01*
X15332182Y-45271925D01*
X15299500Y-45436228D01*
X15299500Y-45603771D01*
X15332182Y-45768074D01*
X15332185Y-45768086D01*
X15385810Y-45897548D01*
X15393279Y-45967017D01*
X15385810Y-45992452D01*
X15332185Y-46121913D01*
X15332182Y-46121925D01*
X15299500Y-46286228D01*
X15299500Y-46453771D01*
X15332182Y-46618074D01*
X15332184Y-46618082D01*
X15374961Y-46721355D01*
X15382430Y-46790825D01*
X15351155Y-46853304D01*
X15324512Y-46873812D01*
X15324834Y-46874293D01*
X15164092Y-46981697D01*
X15164088Y-46981700D01*
X15031700Y-47114088D01*
X15031697Y-47114092D01*
X14927681Y-47269762D01*
X14927676Y-47269771D01*
X14856027Y-47442748D01*
X14856025Y-47442756D01*
X14819500Y-47626379D01*
X14819500Y-47813620D01*
X14856025Y-47997243D01*
X14856027Y-47997251D01*
X14927676Y-48170228D01*
X14927681Y-48170237D01*
X15031697Y-48325907D01*
X15031700Y-48325911D01*
X15164088Y-48458299D01*
X15164092Y-48458302D01*
X15319762Y-48562318D01*
X15319768Y-48562321D01*
X15319769Y-48562322D01*
X15492749Y-48633973D01*
X15676379Y-48670499D01*
X15676383Y-48670500D01*
X15676384Y-48670500D01*
X17363617Y-48670500D01*
X17363618Y-48670499D01*
X17547251Y-48633973D01*
X17720231Y-48562322D01*
X17875908Y-48458302D01*
X18008302Y-48325908D01*
X18112322Y-48170231D01*
X18183973Y-47997251D01*
X18220500Y-47813616D01*
X18220500Y-47626384D01*
X18183973Y-47442749D01*
X18128554Y-47308956D01*
X18112323Y-47269771D01*
X18112318Y-47269762D01*
X18044970Y-47168969D01*
X18024092Y-47102291D01*
X18042576Y-47034911D01*
X18060387Y-47012400D01*
X18160626Y-46912162D01*
X18253703Y-46772863D01*
X18317816Y-46618082D01*
X18350500Y-46453767D01*
X18350500Y-46286233D01*
X18350410Y-46285783D01*
X18340316Y-46235031D01*
X18336715Y-46216927D01*
X92556600Y-46216927D01*
X92556600Y-46383072D01*
X92589009Y-46546003D01*
X92589012Y-46546015D01*
X92652584Y-46699493D01*
X92652591Y-46699506D01*
X92744887Y-46837635D01*
X92744890Y-46837639D01*
X92862360Y-46955109D01*
X92862364Y-46955112D01*
X93000493Y-47047408D01*
X93000506Y-47047415D01*
X93132990Y-47102291D01*
X93153989Y-47110989D01*
X93316927Y-47143399D01*
X93316931Y-47143400D01*
X93316932Y-47143400D01*
X93483069Y-47143400D01*
X93483070Y-47143399D01*
X93646011Y-47110989D01*
X93799500Y-47047412D01*
X93937636Y-46955112D01*
X94055112Y-46837636D01*
X94147412Y-46699500D01*
X94210989Y-46546011D01*
X94243400Y-46383068D01*
X94243400Y-46216932D01*
X94210989Y-46053989D01*
X94174964Y-45967017D01*
X94147415Y-45900506D01*
X94147408Y-45900493D01*
X94055112Y-45762364D01*
X94055109Y-45762360D01*
X93937639Y-45644890D01*
X93937635Y-45644887D01*
X93799506Y-45552591D01*
X93799493Y-45552584D01*
X93646015Y-45489012D01*
X93646003Y-45489009D01*
X93483072Y-45456600D01*
X93483068Y-45456600D01*
X93316932Y-45456600D01*
X93316927Y-45456600D01*
X93153996Y-45489009D01*
X93153984Y-45489012D01*
X93000506Y-45552584D01*
X93000493Y-45552591D01*
X92862364Y-45644887D01*
X92862360Y-45644890D01*
X92744890Y-45762360D01*
X92744887Y-45762364D01*
X92652591Y-45900493D01*
X92652584Y-45900506D01*
X92589012Y-46053984D01*
X92589009Y-46053996D01*
X92556600Y-46216927D01*
X18336715Y-46216927D01*
X18317817Y-46121925D01*
X18317816Y-46121918D01*
X18264188Y-45992451D01*
X18256720Y-45922984D01*
X18264189Y-45897547D01*
X18317816Y-45768082D01*
X18350500Y-45603767D01*
X18350500Y-45436233D01*
X18317816Y-45271918D01*
X18264188Y-45142451D01*
X18256720Y-45072984D01*
X18264189Y-45047547D01*
X18317816Y-44918082D01*
X18350500Y-44753767D01*
X18350500Y-44586233D01*
X18317816Y-44421918D01*
X18264188Y-44292451D01*
X18261390Y-44266419D01*
X18254812Y-44241077D01*
X18257382Y-44229144D01*
X18256720Y-44222984D01*
X18260938Y-44206319D01*
X18262398Y-44201869D01*
X18317816Y-44068082D01*
X18327991Y-44016927D01*
X39556600Y-44016927D01*
X39556600Y-44183072D01*
X39589009Y-44346003D01*
X39589012Y-44346015D01*
X39652584Y-44499493D01*
X39652591Y-44499506D01*
X39744887Y-44637635D01*
X39744890Y-44637639D01*
X39862360Y-44755109D01*
X39862364Y-44755112D01*
X40000493Y-44847408D01*
X40000506Y-44847415D01*
X40153984Y-44910987D01*
X40153989Y-44910989D01*
X40316927Y-44943399D01*
X40316931Y-44943400D01*
X40316932Y-44943400D01*
X40483069Y-44943400D01*
X40483070Y-44943399D01*
X40646011Y-44910989D01*
X40799500Y-44847412D01*
X40937636Y-44755112D01*
X41055112Y-44637636D01*
X41147412Y-44499500D01*
X41210989Y-44346011D01*
X41243400Y-44183068D01*
X41243400Y-44016932D01*
X41210989Y-43853989D01*
X41162211Y-43736228D01*
X41147415Y-43700506D01*
X41147408Y-43700493D01*
X41055112Y-43562364D01*
X41055109Y-43562360D01*
X40937639Y-43444890D01*
X40937635Y-43444887D01*
X40799506Y-43352591D01*
X40799493Y-43352584D01*
X40646015Y-43289012D01*
X40646003Y-43289009D01*
X40483072Y-43256600D01*
X40483068Y-43256600D01*
X40316932Y-43256600D01*
X40316927Y-43256600D01*
X40153996Y-43289009D01*
X40153984Y-43289012D01*
X40000506Y-43352584D01*
X40000493Y-43352591D01*
X39862364Y-43444887D01*
X39862360Y-43444890D01*
X39744890Y-43562360D01*
X39744887Y-43562364D01*
X39652591Y-43700493D01*
X39652584Y-43700506D01*
X39589012Y-43853984D01*
X39589009Y-43853996D01*
X39556600Y-44016927D01*
X18327991Y-44016927D01*
X18350500Y-43903767D01*
X18350500Y-43736233D01*
X18317816Y-43571918D01*
X18264188Y-43442451D01*
X18256720Y-43372984D01*
X18264189Y-43347547D01*
X18317816Y-43218082D01*
X18350500Y-43053767D01*
X18350500Y-42886233D01*
X18317816Y-42721918D01*
X18264188Y-42592451D01*
X18256720Y-42522984D01*
X18264189Y-42497547D01*
X18317816Y-42368082D01*
X18350500Y-42203767D01*
X18350500Y-42036233D01*
X18317816Y-41871918D01*
X18264188Y-41742451D01*
X18256720Y-41672984D01*
X18264189Y-41647547D01*
X18317816Y-41518082D01*
X18350500Y-41353767D01*
X18350500Y-41186233D01*
X18317816Y-41021918D01*
X18264188Y-40892451D01*
X18256720Y-40822984D01*
X18264189Y-40797547D01*
X18317816Y-40668082D01*
X18350500Y-40503767D01*
X18350500Y-40336233D01*
X18317816Y-40171918D01*
X18253703Y-40017137D01*
X18215438Y-39959870D01*
X18160626Y-39877837D01*
X18060391Y-39777602D01*
X18045178Y-39749741D01*
X18028490Y-39722726D01*
X18028551Y-39719292D01*
X18026906Y-39716279D01*
X18029170Y-39684607D01*
X18029738Y-39652868D01*
X18031740Y-39648683D01*
X18031890Y-39646587D01*
X18044970Y-39621030D01*
X18105964Y-39529747D01*
X18105964Y-39529746D01*
X18112317Y-39520239D01*
X18112318Y-39520236D01*
X18112322Y-39520231D01*
X18183973Y-39347251D01*
X18220500Y-39163616D01*
X18220500Y-38976384D01*
X18183973Y-38792749D01*
X18128554Y-38658956D01*
X18112323Y-38619771D01*
X18112318Y-38619762D01*
X18008302Y-38464092D01*
X18008299Y-38464088D01*
X17875911Y-38331700D01*
X17875907Y-38331697D01*
X17720237Y-38227681D01*
X17720228Y-38227676D01*
X17547251Y-38156027D01*
X17547243Y-38156025D01*
X17363620Y-38119500D01*
X17363616Y-38119500D01*
X15676384Y-38119500D01*
X15676379Y-38119500D01*
X15492756Y-38156025D01*
X15492748Y-38156027D01*
X15319771Y-38227676D01*
X15319762Y-38227681D01*
X15164092Y-38331697D01*
X15164088Y-38331700D01*
X15031700Y-38464088D01*
X15031697Y-38464092D01*
X14927681Y-38619762D01*
X14927676Y-38619771D01*
X14856027Y-38792748D01*
X14856025Y-38792756D01*
X14819500Y-38976379D01*
X14490499Y-38976379D01*
X14453973Y-38792749D01*
X14398554Y-38658956D01*
X14382323Y-38619771D01*
X14382318Y-38619762D01*
X14278302Y-38464092D01*
X14278299Y-38464088D01*
X14145911Y-38331700D01*
X14145907Y-38331697D01*
X13990237Y-38227681D01*
X13990228Y-38227676D01*
X13817251Y-38156027D01*
X13817243Y-38156025D01*
X13633620Y-38119500D01*
X13633616Y-38119500D01*
X12646384Y-38119500D01*
X12646379Y-38119500D01*
X12462756Y-38156025D01*
X12462748Y-38156027D01*
X12289771Y-38227676D01*
X12289762Y-38227681D01*
X12134092Y-38331697D01*
X12134088Y-38331700D01*
X12001700Y-38464088D01*
X12001697Y-38464092D01*
X11927602Y-38574983D01*
X11873990Y-38619788D01*
X11804665Y-38628495D01*
X11741637Y-38598340D01*
X11704918Y-38538897D01*
X11700500Y-38506092D01*
X11700500Y-33970525D01*
X28204500Y-33970525D01*
X28204500Y-34229474D01*
X28204501Y-34229491D01*
X28238299Y-34486217D01*
X28238300Y-34486222D01*
X28238301Y-34486228D01*
X28238302Y-34486230D01*
X28305324Y-34736364D01*
X28404423Y-34975609D01*
X28404427Y-34975619D01*
X28533906Y-35199883D01*
X28691551Y-35405331D01*
X28691557Y-35405338D01*
X28874661Y-35588442D01*
X28874668Y-35588448D01*
X29080116Y-35746093D01*
X29304380Y-35875572D01*
X29304381Y-35875572D01*
X29304384Y-35875574D01*
X29543634Y-35974675D01*
X29793772Y-36041699D01*
X30050519Y-36075500D01*
X30050526Y-36075500D01*
X30309474Y-36075500D01*
X30309481Y-36075500D01*
X30566228Y-36041699D01*
X30816366Y-35974675D01*
X31055616Y-35875574D01*
X31279884Y-35746093D01*
X31485333Y-35588447D01*
X31668447Y-35405333D01*
X31826093Y-35199884D01*
X31955574Y-34975616D01*
X32054675Y-34736366D01*
X32121699Y-34486228D01*
X32155500Y-34229481D01*
X32155500Y-33970519D01*
X32121699Y-33713772D01*
X32054675Y-33463634D01*
X31955574Y-33224384D01*
X31826093Y-33000116D01*
X31668447Y-32794667D01*
X31668442Y-32794661D01*
X31485338Y-32611557D01*
X31485331Y-32611551D01*
X31279883Y-32453906D01*
X31055619Y-32324427D01*
X31055609Y-32324423D01*
X30816364Y-32225324D01*
X30691297Y-32191813D01*
X30566228Y-32158301D01*
X30566222Y-32158300D01*
X30566217Y-32158299D01*
X30309491Y-32124501D01*
X30309486Y-32124500D01*
X30309481Y-32124500D01*
X30050519Y-32124500D01*
X30050513Y-32124500D01*
X30050508Y-32124501D01*
X29793782Y-32158299D01*
X29793775Y-32158300D01*
X29793772Y-32158301D01*
X29740908Y-32172465D01*
X29543635Y-32225324D01*
X29304390Y-32324423D01*
X29304380Y-32324427D01*
X29080116Y-32453906D01*
X28874668Y-32611551D01*
X28874661Y-32611557D01*
X28691557Y-32794661D01*
X28691551Y-32794668D01*
X28533906Y-33000116D01*
X28404427Y-33224380D01*
X28404423Y-33224390D01*
X28305324Y-33463635D01*
X28238302Y-33713769D01*
X28238299Y-33713782D01*
X28204501Y-33970508D01*
X28204500Y-33970525D01*
X11700500Y-33970525D01*
X11700500Y-17986231D01*
X20224500Y-17986231D01*
X20224500Y-18213768D01*
X20260093Y-18438490D01*
X20330400Y-18654876D01*
X20330401Y-18654879D01*
X20433697Y-18857607D01*
X20567434Y-19041680D01*
X20728320Y-19202566D01*
X20912393Y-19336303D01*
X21011825Y-19386966D01*
X21115120Y-19439598D01*
X21115123Y-19439599D01*
X21223316Y-19474752D01*
X21331511Y-19509907D01*
X21435591Y-19526391D01*
X21556232Y-19545500D01*
X21556237Y-19545500D01*
X21783768Y-19545500D01*
X21892710Y-19528244D01*
X22008489Y-19509907D01*
X22224879Y-19439598D01*
X22427607Y-19336303D01*
X22611680Y-19202566D01*
X22772566Y-19041680D01*
X22906303Y-18857607D01*
X23009598Y-18654879D01*
X23079907Y-18438489D01*
X23098244Y-18322710D01*
X23115500Y-18213768D01*
X23115500Y-17986232D01*
X23115440Y-17985854D01*
X23115440Y-17985852D01*
X23113012Y-17970525D01*
X83444500Y-17970525D01*
X83444500Y-18229474D01*
X83444501Y-18229491D01*
X83478299Y-18486217D01*
X83478300Y-18486222D01*
X83478301Y-18486228D01*
X83478302Y-18486230D01*
X83545324Y-18736364D01*
X83644423Y-18975609D01*
X83644427Y-18975619D01*
X83773906Y-19199883D01*
X83931551Y-19405331D01*
X83931557Y-19405338D01*
X84114661Y-19588442D01*
X84114668Y-19588448D01*
X84320116Y-19746093D01*
X84544380Y-19875572D01*
X84544381Y-19875572D01*
X84544384Y-19875574D01*
X84783634Y-19974675D01*
X85033772Y-20041699D01*
X85290519Y-20075500D01*
X85290526Y-20075500D01*
X85549474Y-20075500D01*
X85549481Y-20075500D01*
X85806228Y-20041699D01*
X86056366Y-19974675D01*
X86295616Y-19875574D01*
X86519884Y-19746093D01*
X86725333Y-19588447D01*
X86908447Y-19405333D01*
X87066093Y-19199884D01*
X87195574Y-18975616D01*
X87294675Y-18736366D01*
X87361699Y-18486228D01*
X87395500Y-18229481D01*
X87395500Y-17970519D01*
X87361699Y-17713772D01*
X87294675Y-17463634D01*
X87195574Y-17224384D01*
X87066093Y-17000116D01*
X87064035Y-16997434D01*
X86908448Y-16794668D01*
X86908442Y-16794661D01*
X86725338Y-16611557D01*
X86725331Y-16611551D01*
X86519883Y-16453906D01*
X86295619Y-16324427D01*
X86295609Y-16324423D01*
X86056364Y-16225324D01*
X85931297Y-16191813D01*
X85806228Y-16158301D01*
X85806222Y-16158300D01*
X85806217Y-16158299D01*
X85549491Y-16124501D01*
X85549486Y-16124500D01*
X85549481Y-16124500D01*
X85290519Y-16124500D01*
X85290513Y-16124500D01*
X85290508Y-16124501D01*
X85033782Y-16158299D01*
X85033775Y-16158300D01*
X85033772Y-16158301D01*
X84980908Y-16172465D01*
X84783635Y-16225324D01*
X84544390Y-16324423D01*
X84544380Y-16324427D01*
X84320116Y-16453906D01*
X84114668Y-16611551D01*
X84114661Y-16611557D01*
X83931557Y-16794661D01*
X83931551Y-16794668D01*
X83773906Y-17000116D01*
X83644427Y-17224380D01*
X83644423Y-17224390D01*
X83545324Y-17463635D01*
X83478302Y-17713769D01*
X83478299Y-17713782D01*
X83444501Y-17970508D01*
X83444500Y-17970525D01*
X23113012Y-17970525D01*
X23079907Y-17761509D01*
X23009599Y-17545123D01*
X23009598Y-17545120D01*
X22906302Y-17342392D01*
X22772566Y-17158320D01*
X22611680Y-16997434D01*
X22427607Y-16863697D01*
X22224879Y-16760401D01*
X22224876Y-16760400D01*
X22008490Y-16690093D01*
X21783768Y-16654500D01*
X21783763Y-16654500D01*
X21556237Y-16654500D01*
X21556232Y-16654500D01*
X21331509Y-16690093D01*
X21115123Y-16760400D01*
X21115120Y-16760401D01*
X20912392Y-16863697D01*
X20807372Y-16939998D01*
X20728320Y-16997434D01*
X20728318Y-16997436D01*
X20728317Y-16997436D01*
X20567436Y-17158317D01*
X20567436Y-17158318D01*
X20567434Y-17158320D01*
X20519439Y-17224380D01*
X20433697Y-17342392D01*
X20330401Y-17545120D01*
X20330400Y-17545123D01*
X20260093Y-17761509D01*
X20224500Y-17986231D01*
X11700500Y-17986231D01*
X11700500Y-11037000D01*
X11720185Y-10969961D01*
X11772989Y-10924206D01*
X11824500Y-10913000D01*
X119275500Y-10913000D01*
X119342539Y-10932685D01*
G37*
%TD.AperFunction*%
%TD*%
M02*
