%TF.GenerationSoftware,KiCad,Pcbnew,10.0.3*%
%TF.CreationDate,2026-06-15T23:48:49+09:00*%
%TF.ProjectId,EEG_BLE,4545475f-424c-4452-9e6b-696361645f70,rev?*%
%TF.SameCoordinates,Original*%
%TF.FileFunction,Copper,L4,Bot*%
%TF.FilePolarity,Positive*%
%FSLAX46Y46*%
G04 Gerber Fmt 4.6, Leading zero omitted, Abs format (unit mm)*
G04 Created by KiCad (PCBNEW 10.0.3) date 2026-06-15 23:48:49*
%MOMM*%
%LPD*%
G01*
G04 APERTURE LIST*
%TA.AperFunction,HeatsinkPad*%
%ADD10C,0.600000*%
%TD*%
%TA.AperFunction,ComponentPad*%
%ADD11C,0.700000*%
%TD*%
%TA.AperFunction,ComponentPad*%
%ADD12O,2.400000X0.900000*%
%TD*%
%TA.AperFunction,ComponentPad*%
%ADD13O,1.700000X0.900000*%
%TD*%
%TA.AperFunction,ComponentPad*%
%ADD14R,1.700000X1.700000*%
%TD*%
%TA.AperFunction,ComponentPad*%
%ADD15C,1.700000*%
%TD*%
%TA.AperFunction,ViaPad*%
%ADD16C,0.685800*%
%TD*%
%TA.AperFunction,ViaPad*%
%ADD17C,0.889000*%
%TD*%
%TA.AperFunction,ViaPad*%
%ADD18C,0.600000*%
%TD*%
%TA.AperFunction,Conductor*%
%ADD19C,0.254000*%
%TD*%
%TA.AperFunction,Conductor*%
%ADD20C,0.400000*%
%TD*%
%TA.AperFunction,Conductor*%
%ADD21C,1.200000*%
%TD*%
%TA.AperFunction,Conductor*%
%ADD22C,0.508000*%
%TD*%
%TA.AperFunction,Conductor*%
%ADD23C,0.800000*%
%TD*%
%TA.AperFunction,Conductor*%
%ADD24C,0.762000*%
%TD*%
%TA.AperFunction,Conductor*%
%ADD25C,1.000000*%
%TD*%
%TA.AperFunction,Conductor*%
%ADD26C,0.150000*%
%TD*%
G04 APERTURE END LIST*
D10*
%TO.P,U4,19,GND_19*%
%TO.N,DGND*%
X99750000Y-53510000D03*
X98650000Y-53510000D03*
X100300000Y-54060000D03*
X99200000Y-54060000D03*
X98100000Y-54060000D03*
X99750000Y-54610000D03*
X98650000Y-54610000D03*
X100300000Y-55160000D03*
X99200000Y-55160000D03*
X98100000Y-55160000D03*
X99750000Y-55710000D03*
X98650000Y-55710000D03*
%TD*%
D11*
%TO.P,J1,A1*%
%TO.N,N/C*%
X17500000Y-40420000D03*
%TO.P,J1,A4*%
X17500000Y-41270000D03*
%TO.P,J1,A5,CC1_A5*%
%TO.N,Net-(J1-CC1)*%
X17500000Y-42120000D03*
%TO.P,J1,A6*%
%TO.N,N/C*%
X17500000Y-42970000D03*
%TO.P,J1,A7*%
X17500000Y-43820000D03*
%TO.P,J1,A8*%
X17500000Y-44670000D03*
%TO.P,J1,A9,VBUS_A9*%
%TO.N,Net-(U_IP1-USB+)*%
X17500000Y-45520000D03*
%TO.P,J1,A12,GND_A12*%
%TO.N,Net-(U_IP1-USB_GND)*%
X17500000Y-46370000D03*
%TO.P,J1,B1*%
%TO.N,N/C*%
X16150000Y-46370000D03*
%TO.P,J1,B4*%
X16150000Y-45520000D03*
%TO.P,J1,B5,CC2_B5*%
%TO.N,Net-(J1-CC2)*%
X16150000Y-44670000D03*
%TO.P,J1,B6*%
%TO.N,N/C*%
X16150000Y-43820000D03*
%TO.P,J1,B7*%
X16150000Y-42970000D03*
%TO.P,J1,B8*%
X16150000Y-42120000D03*
%TO.P,J1,B9,VBUS_B9*%
%TO.N,Net-(U_IP1-USB+)*%
X16150000Y-41270000D03*
%TO.P,J1,B12,GND_B12*%
%TO.N,Net-(U_IP1-USB_GND)*%
X16150000Y-40420000D03*
D12*
%TO.P,J1,SH,SHIELD_SH*%
%TO.N,unconnected-(J1-SHIELD-PadSH)_3*%
X16520000Y-39070000D03*
D13*
%TO.N,unconnected-(J1-SHIELD-PadSH)_2*%
X13140000Y-39070000D03*
D12*
%TO.N,unconnected-(J1-SHIELD-PadSH)*%
X16520000Y-47720000D03*
D13*
%TO.N,unconnected-(J1-SHIELD-PadSH)_1*%
X13140000Y-47720000D03*
%TD*%
D14*
%TO.P,P3,1,P1_1*%
%TO.N,/BIAS_DRV*%
X64800000Y-74960000D03*
D15*
%TO.P,P3,2,P2_2*%
%TO.N,/SRB_REF*%
X64800000Y-77500000D03*
%TO.P,P3,3,P3_3*%
%TO.N,Net-(P3-P3)*%
X64800000Y-80040000D03*
%TO.P,P3,4,P4_4*%
%TO.N,Net-(P3-P4)*%
X64800000Y-82580000D03*
%TO.P,P3,5,P5_5*%
%TO.N,Net-(P3-P5)*%
X64800000Y-85120000D03*
%TO.P,P3,6,P6_6*%
%TO.N,Net-(P3-P6)*%
X64800000Y-87660000D03*
%TO.P,P3,7,P7_7*%
%TO.N,Net-(P3-P7)*%
X64800000Y-90200000D03*
%TO.P,P3,8,P8_8*%
%TO.N,Net-(P3-P8)*%
X64800000Y-92740000D03*
%TO.P,P3,9,P9_9*%
%TO.N,Net-(P3-P9)*%
X64800000Y-95280000D03*
%TO.P,P3,10,P10_10*%
%TO.N,Net-(P3-P10)*%
X64800000Y-97820000D03*
%TD*%
D14*
%TO.P,J_REF1,1,Pin_1_1*%
%TO.N,/EEG_REF*%
X23900000Y-97500000D03*
%TD*%
%TO.P,P1,1,P1_1*%
%TO.N,/BIAS_DRV*%
X15900000Y-74775000D03*
D15*
%TO.P,P1,2,P2_2*%
%TO.N,/SRB_REF*%
X15900000Y-77315000D03*
%TO.P,P1,3,P3_3*%
%TO.N,Net-(P1-P3)*%
X15900000Y-79855000D03*
%TO.P,P1,4,P4_4*%
%TO.N,Net-(P1-P4)*%
X15900000Y-82395000D03*
%TO.P,P1,5,P5_5*%
%TO.N,Net-(P1-P5)*%
X15900000Y-84935000D03*
%TO.P,P1,6,P6_6*%
%TO.N,Net-(P1-P6)*%
X15900000Y-87475000D03*
%TO.P,P1,7,P7_7*%
%TO.N,Net-(P1-P7)*%
X15900000Y-90015000D03*
%TO.P,P1,8,P8_8*%
%TO.N,Net-(P1-P8)*%
X15900000Y-92555000D03*
%TO.P,P1,9,P9_9*%
%TO.N,Net-(P1-P9)*%
X15900000Y-95095000D03*
%TO.P,P1,10,P10_10*%
%TO.N,Net-(P1-P10)*%
X15900000Y-97635000D03*
%TD*%
D14*
%TO.P,P2,1,P1_1*%
%TO.N,/BIAS_DRV*%
X40280000Y-74885000D03*
D15*
%TO.P,P2,2,P2_2*%
%TO.N,/SRB_REF*%
X40280000Y-77425000D03*
%TO.P,P2,3,P3_3*%
%TO.N,Net-(P2-P3)*%
X40280000Y-79965000D03*
%TO.P,P2,4,P4_4*%
%TO.N,Net-(P2-P4)*%
X40280000Y-82505000D03*
%TO.P,P2,5,P5_5*%
%TO.N,Net-(P2-P5)*%
X40280000Y-85045000D03*
%TO.P,P2,6,P6_6*%
%TO.N,Net-(P2-P6)*%
X40280000Y-87585000D03*
%TO.P,P2,7,P7_7*%
%TO.N,Net-(P2-P7)*%
X40280000Y-90125000D03*
%TO.P,P2,8,P8_8*%
%TO.N,Net-(P2-P8)*%
X40280000Y-92665000D03*
%TO.P,P2,9,P9_9*%
%TO.N,Net-(P2-P9)*%
X40280000Y-95205000D03*
%TO.P,P2,10,P10_10*%
%TO.N,Net-(P2-P10)*%
X40280000Y-97745000D03*
%TD*%
D14*
%TO.P,J_BIAS1,1,Pin_1_1*%
%TO.N,/BIAS_DRV*%
X26100000Y-75660000D03*
%TD*%
D16*
%TO.N,AGND*%
X45800000Y-92700000D03*
X45820584Y-94035800D03*
X45897375Y-91391500D03*
X19425000Y-83876807D03*
X54700000Y-83300000D03*
X40400000Y-44100000D03*
X29100000Y-99780100D03*
X21200000Y-82200000D03*
X19287380Y-88795335D03*
X82074684Y-78592757D03*
X45860111Y-85880100D03*
X45826179Y-88719900D03*
X79400000Y-80200000D03*
X58400000Y-80300000D03*
X46100000Y-83200000D03*
X70500000Y-89400000D03*
X70342688Y-84163680D03*
X70242900Y-85519857D03*
X83133737Y-79527327D03*
X71400000Y-93500000D03*
X45829568Y-84485643D03*
X70400000Y-91300000D03*
X21200000Y-93600000D03*
X45950105Y-90055700D03*
X19535226Y-90551960D03*
D17*
X33685909Y-89990779D03*
X28305923Y-79865955D03*
X32000000Y-78500000D03*
D16*
X78800000Y-79100000D03*
X70500000Y-82300000D03*
X59594643Y-91273692D03*
X54700000Y-79600000D03*
X19540628Y-85780919D03*
X45900000Y-87308177D03*
X70472543Y-86824401D03*
X70425781Y-88164201D03*
X19274642Y-92175258D03*
D18*
%TO.N,AVDD*%
X32500000Y-41800000D03*
X56700000Y-83400000D03*
X30000000Y-41800000D03*
X39100000Y-40400000D03*
X55800000Y-83300000D03*
D17*
X28363929Y-82523655D03*
D18*
X78456696Y-82496798D03*
X53700000Y-83300000D03*
X53490616Y-94746886D03*
X52290664Y-94646903D03*
X76869037Y-93805218D03*
D17*
X29889802Y-82506526D03*
D18*
X80277000Y-82500000D03*
X21900000Y-41300000D03*
X26735500Y-91174497D03*
X78465043Y-91465138D03*
X78953864Y-93836134D03*
X54393550Y-94571925D03*
X81122467Y-82479891D03*
X28167789Y-91188702D03*
X29900000Y-97800000D03*
X77972510Y-93755101D03*
D16*
%TO.N,AVSS*%
X76100000Y-96100000D03*
X51700000Y-96600000D03*
X59600000Y-100200000D03*
X37100000Y-100000000D03*
D18*
%TO.N,DVDD*%
X41845405Y-68845405D03*
X86009456Y-83027757D03*
X59500000Y-77300000D03*
X32500000Y-83100000D03*
X34700000Y-82300000D03*
X87506909Y-89421771D03*
X52200000Y-73400000D03*
X91800000Y-82100000D03*
X60013992Y-83210751D03*
X84570916Y-79786243D03*
%TO.N,/RESET*%
X62003702Y-92085832D03*
X84096990Y-89707567D03*
X58599738Y-90000262D03*
X90614187Y-88751180D03*
X37125553Y-89608000D03*
X88263737Y-89034841D03*
%TO.N,/SPI_MISO*%
X36594919Y-85205402D03*
X38000000Y-83100000D03*
%TO.N,/CS*%
X59863020Y-88497603D03*
X62946424Y-88290137D03*
X36966337Y-87815104D03*
X82576727Y-87640030D03*
D16*
%TO.N,DGND*%
X93400000Y-46300000D03*
X33700000Y-85700000D03*
X57400000Y-86980100D03*
X37034578Y-84062965D03*
X58900000Y-86400000D03*
X60800000Y-81700000D03*
X62000000Y-80500000D03*
X57600000Y-83300000D03*
X31900000Y-85700000D03*
X79900000Y-72400000D03*
X98500000Y-52500000D03*
D18*
%TO.N,/START*%
X89810243Y-87530498D03*
X88008620Y-88151196D03*
X83902955Y-88353567D03*
X63121874Y-89148436D03*
%TO.N,/SCLK*%
X63080205Y-87497724D03*
X91000000Y-90300000D03*
X59400000Y-87700000D03*
X37040550Y-86915000D03*
X83900000Y-86951890D03*
%TO.N,/BIAS_DRV*%
X56700000Y-76000000D03*
%TO.N,/SRB_REF*%
X37515217Y-98613290D03*
%TO.N,/EEG_REF*%
X25887234Y-91287393D03*
X52100000Y-92000000D03*
X76400000Y-91300000D03*
%TO.N,/MASTER_CLK*%
X37828520Y-88867768D03*
X62428088Y-89550072D03*
X83420594Y-89053448D03*
X59644363Y-89319000D03*
%TO.N,/DAISY_U3*%
X84260519Y-85547890D03*
X62343269Y-86618173D03*
%TO.N,/DAISY_U2*%
X59818839Y-86258901D03*
X36682526Y-86160050D03*
%TD*%
%TO.N,/RESET*%
D19*
X83117290Y-89707567D02*
X84096990Y-89707567D01*
X73019900Y-92780100D02*
X76330327Y-89469673D01*
X76330327Y-89469673D02*
X82879396Y-89469673D01*
X71101807Y-92780100D02*
X73019900Y-92780100D01*
X62900000Y-93800000D02*
X62900000Y-97584530D01*
X66800000Y-99000000D02*
X70680100Y-95119900D01*
X62003702Y-92085832D02*
X62003702Y-92903702D01*
X70680100Y-93201807D02*
X71101807Y-92780100D01*
X70680100Y-95119900D02*
X70680100Y-93201807D01*
X64315470Y-99000000D02*
X66800000Y-99000000D01*
X62003702Y-92903702D02*
X62900000Y-93800000D01*
X62900000Y-97584530D02*
X64315470Y-99000000D01*
X82879396Y-89469673D02*
X83117290Y-89707567D01*
%TO.N,AVSS*%
X68142053Y-100200000D02*
X67988053Y-100354000D01*
X67988053Y-100354000D02*
X64411947Y-100354000D01*
X72000000Y-100200000D02*
X68142053Y-100200000D01*
X76100000Y-96100000D02*
X72000000Y-100200000D01*
X64411947Y-100354000D02*
X64257948Y-100200000D01*
X51700000Y-96600000D02*
X48300000Y-100000000D01*
X48300000Y-100000000D02*
X37100000Y-100000000D01*
X64257948Y-100200000D02*
X59600000Y-100200000D01*
%TO.N,DVDD*%
D20*
X86800000Y-83818301D02*
X86009456Y-83027757D01*
D21*
X52200000Y-73400000D02*
X47800000Y-69000000D01*
D22*
X55600000Y-75200000D02*
X57800000Y-73000000D01*
D19*
X60100000Y-83124743D02*
X60013992Y-83210751D01*
D22*
X84570916Y-79370916D02*
X78200000Y-73000000D01*
D20*
X87506909Y-89421771D02*
X86800000Y-88714862D01*
D22*
X59500000Y-77300000D02*
X56933682Y-77300000D01*
D19*
X60100000Y-78400000D02*
X60100000Y-83124743D01*
D21*
X47800000Y-69000000D02*
X42000000Y-69000000D01*
D19*
X60100000Y-77600000D02*
X60100000Y-78400000D01*
D21*
X42000000Y-69000000D02*
X41845405Y-68845405D01*
D22*
X84570916Y-79786243D02*
X84570916Y-79370916D01*
D20*
X86030658Y-83048959D02*
X86009456Y-83027757D01*
D23*
X33900000Y-83100000D02*
X34700000Y-82300000D01*
D20*
X90348959Y-83048959D02*
X86030658Y-83048959D01*
D23*
X91800000Y-82100000D02*
X90600000Y-83300000D01*
D19*
X59500000Y-77300000D02*
X59800000Y-77600000D01*
X59800000Y-77600000D02*
X60100000Y-77600000D01*
D22*
X55600000Y-75966318D02*
X55600000Y-75200000D01*
D23*
X32500000Y-83100000D02*
X33900000Y-83100000D01*
D20*
X86800000Y-88714862D02*
X86800000Y-83818301D01*
D22*
X57800000Y-73000000D02*
X78200000Y-73000000D01*
X56933682Y-77300000D02*
X55600000Y-75966318D01*
%TO.N,/RESET*%
D20*
X88263737Y-89034841D02*
X90330526Y-89034841D01*
X90330526Y-89034841D02*
X90614187Y-88751180D01*
%TO.N,/SPI_MISO*%
D24*
X36775356Y-85024965D02*
X37433051Y-85024965D01*
X37433051Y-85024965D02*
X38062000Y-84396016D01*
X38062000Y-83162000D02*
X38000000Y-83100000D01*
X38062000Y-84396016D02*
X38062000Y-83162000D01*
X36594919Y-85205402D02*
X36775356Y-85024965D01*
%TO.N,/CS*%
D19*
X42337607Y-87978077D02*
X41553684Y-88762000D01*
X70148299Y-87494301D02*
X71255333Y-87494301D01*
X59906511Y-88586593D02*
X59906511Y-88524635D01*
X59906608Y-88524538D02*
X59906511Y-88524635D01*
X38526292Y-87495822D02*
X37285619Y-87495822D01*
X59906608Y-88524538D02*
X59906608Y-88485161D01*
X71255333Y-87494301D02*
X71361032Y-87600000D01*
X71361032Y-87600000D02*
X82536697Y-87600000D01*
X59977169Y-88414600D02*
X59906608Y-88485161D01*
X63068935Y-88140277D02*
X63798874Y-88870216D01*
X59886124Y-88631691D02*
X59886124Y-88566206D01*
X59861287Y-88499336D02*
X59863020Y-88497603D01*
X56314776Y-88154000D02*
X56138852Y-87978077D01*
X59861287Y-88606854D02*
X59861287Y-88499336D01*
X64312470Y-91377000D02*
X66265600Y-91377000D01*
X63798874Y-89428859D02*
X63600000Y-89627733D01*
X59906511Y-88586593D02*
X59886124Y-88566206D01*
X59906511Y-88586593D02*
X59886124Y-88566206D01*
X58754000Y-88154000D02*
X56314776Y-88154000D01*
X59906608Y-88524538D02*
X59906511Y-88524635D01*
X63600000Y-90664530D02*
X64312470Y-91377000D01*
X63798874Y-88870216D02*
X63798874Y-89428859D01*
X59886124Y-88631691D02*
X59861287Y-88606854D01*
X59861287Y-88606854D02*
X59861287Y-88499336D01*
X59200000Y-88600000D02*
X58754000Y-88154000D01*
X59791769Y-88600000D02*
X59200000Y-88600000D01*
X66265600Y-91377000D02*
X70148299Y-87494301D01*
X63600000Y-89627733D02*
X63600000Y-90664530D01*
X59906608Y-88485161D02*
X59791769Y-88600000D01*
X59886124Y-88631691D02*
X59886124Y-88566206D01*
X59906511Y-88586593D02*
X59906511Y-88524635D01*
X59906608Y-88524538D02*
X59906608Y-88485161D01*
X37285619Y-87495822D02*
X36966337Y-87815104D01*
X56138852Y-87978077D02*
X42337607Y-87978077D01*
X59861287Y-88499336D02*
X59863020Y-88497603D01*
X39792470Y-88762000D02*
X38526292Y-87495822D01*
X41553684Y-88762000D02*
X39792470Y-88762000D01*
X59977169Y-88412456D02*
X59977169Y-88414600D01*
X82536697Y-87600000D02*
X82576727Y-87640030D01*
X59886124Y-88631691D02*
X59861287Y-88606854D01*
%TO.N,DGND*%
D20*
X60800000Y-81700000D02*
X62000000Y-80500000D01*
D19*
X58900000Y-86400000D02*
X58200000Y-87100000D01*
D24*
X37034578Y-81186682D02*
X39526260Y-78695000D01*
D25*
X93400000Y-47400000D02*
X88700000Y-47400000D01*
D19*
X52500000Y-82200000D02*
X48650000Y-78350000D01*
D25*
X88700000Y-47400000D02*
X81700000Y-54400000D01*
D19*
X57600000Y-83300000D02*
X56500000Y-82200000D01*
D24*
X93400000Y-47400000D02*
X98500000Y-52500000D01*
D19*
X56500000Y-82200000D02*
X52500000Y-82200000D01*
D25*
X81700000Y-54400000D02*
X81700000Y-70600000D01*
D24*
X37034578Y-84062965D02*
X37034578Y-81186682D01*
D20*
X39526260Y-78695000D02*
X48305000Y-78695000D01*
D25*
X93400000Y-47400000D02*
X93400000Y-46300000D01*
X81700000Y-70600000D02*
X79900000Y-72400000D01*
D19*
X58200000Y-87100000D02*
X57519900Y-87100000D01*
D20*
X48305000Y-78695000D02*
X48650000Y-78350000D01*
D19*
X57519900Y-87100000D02*
X57400000Y-86980100D01*
X31900000Y-85700000D02*
X33700000Y-85700000D01*
%TO.N,/START*%
D20*
X88629318Y-87530498D02*
X88008620Y-88151196D01*
D19*
X71894256Y-88953126D02*
X71894256Y-88205744D01*
X82332841Y-88353567D02*
X83902955Y-88353567D01*
X82185018Y-88205744D02*
X82332841Y-88353567D01*
X89810243Y-87550072D02*
X89810243Y-87530498D01*
X63121874Y-89148436D02*
X63100000Y-89170310D01*
X70200000Y-90100000D02*
X70747382Y-90100000D01*
X66383000Y-93917000D02*
X70200000Y-90100000D01*
X63100000Y-92704530D02*
X64312470Y-93917000D01*
X64312470Y-93917000D02*
X66383000Y-93917000D01*
D20*
X89810243Y-87530498D02*
X88629318Y-87530498D01*
D19*
X63100000Y-89170310D02*
X63100000Y-92704530D01*
X71894256Y-88205744D02*
X82185018Y-88205744D01*
X70747382Y-90100000D02*
X71894256Y-88953126D01*
%TO.N,/SCLK*%
X55402828Y-86600000D02*
X41800000Y-86600000D01*
X83900000Y-86951890D02*
X75951890Y-86951890D01*
X75900000Y-86900000D02*
X74700000Y-86900000D01*
X74700000Y-86900000D02*
X74200000Y-86400000D01*
X41400000Y-86200000D02*
X41378000Y-86222000D01*
D26*
X63080205Y-86922793D02*
X63510767Y-86492231D01*
X65373234Y-86137757D02*
X73937757Y-86137757D01*
D22*
X83900000Y-86951890D02*
X87000000Y-90051890D01*
D19*
X37825451Y-86222000D02*
X37132451Y-86915000D01*
X37132451Y-86915000D02*
X37040550Y-86915000D01*
D22*
X87000000Y-90051890D02*
X87000000Y-90700000D01*
D26*
X65018760Y-86492231D02*
X65373234Y-86137757D01*
D22*
X90600000Y-90700000D02*
X91000000Y-90300000D01*
D19*
X59400000Y-87700000D02*
X56502828Y-87700000D01*
X56502828Y-87700000D02*
X55402828Y-86600000D01*
X41378000Y-86222000D02*
X37825451Y-86222000D01*
D26*
X73937757Y-86137757D02*
X74200000Y-86400000D01*
X63510767Y-86492231D02*
X65018760Y-86492231D01*
D19*
X75951890Y-86951890D02*
X75900000Y-86900000D01*
D22*
X87000000Y-90700000D02*
X90600000Y-90700000D01*
D19*
X41800000Y-86600000D02*
X41400000Y-86200000D01*
D26*
X63080205Y-87497724D02*
X63080205Y-86922793D01*
%TO.N,/BIAS_DRV*%
D19*
X64800000Y-74960000D02*
X57740000Y-74960000D01*
D24*
X26100000Y-75660000D02*
X39505000Y-75660000D01*
D19*
X57740000Y-74960000D02*
X56700000Y-76000000D01*
D24*
X39505000Y-75660000D02*
X40280000Y-74885000D01*
%TO.N,/SRB_REF*%
D19*
X37413290Y-98613290D02*
X37515217Y-98613290D01*
X40280000Y-77425000D02*
X39077919Y-77425000D01*
X39077919Y-77425000D02*
X35800000Y-80702919D01*
X35800000Y-97000000D02*
X37413290Y-98613290D01*
X35800000Y-80702919D02*
X35800000Y-97000000D01*
%TO.N,/EEG_REF*%
X52100000Y-92000000D02*
X56700000Y-92000000D01*
X36801807Y-99280100D02*
X35581907Y-100500000D01*
X62446000Y-98388052D02*
X63511948Y-99454000D01*
X64154000Y-99454000D02*
X64600000Y-99900000D01*
X63511948Y-99454000D02*
X64154000Y-99454000D01*
X25931404Y-91418058D02*
X25931404Y-91297114D01*
X44819900Y-99280100D02*
X36801807Y-99280100D01*
X35581907Y-100500000D02*
X21800000Y-100500000D01*
X21800000Y-95549462D02*
X25931404Y-91418058D01*
X52100000Y-92000000D02*
X44819900Y-99280100D01*
X67800000Y-99900000D02*
X76400000Y-91300000D01*
X64600000Y-99900000D02*
X67800000Y-99900000D01*
X62446000Y-97746000D02*
X62446000Y-98388052D01*
X25921683Y-91287393D02*
X25887234Y-91287393D01*
X25931404Y-91297114D02*
X25921683Y-91287393D01*
X21800000Y-100500000D02*
X21800000Y-95549462D01*
X56700000Y-92000000D02*
X62446000Y-97746000D01*
%TO.N,/MASTER_CLK*%
X62428088Y-89550072D02*
X62395146Y-89583014D01*
X70801277Y-92226193D02*
X72500000Y-90527470D01*
X62395146Y-91198295D02*
X62646000Y-91449149D01*
X72500000Y-88900000D02*
X83267146Y-88900000D01*
X70246313Y-92226193D02*
X70801277Y-92226193D01*
X62646000Y-91449149D02*
X62646000Y-92892583D01*
X65972506Y-96500000D02*
X70246313Y-92226193D01*
X83267146Y-88900000D02*
X83420594Y-89053448D01*
X62646000Y-92892583D02*
X63623000Y-93869582D01*
X63623000Y-95767530D02*
X64355470Y-96500000D01*
X63623000Y-93869582D02*
X63623000Y-95767530D01*
X64355470Y-96500000D02*
X65972506Y-96500000D01*
X72500000Y-90527470D02*
X72500000Y-88900000D01*
X62395146Y-89583014D02*
X62395146Y-91198295D01*
%TO.N,/DAISY_U3*%
X62273216Y-86548120D02*
X62343269Y-86618173D01*
X66163000Y-85607530D02*
X65977000Y-85607530D01*
X83449957Y-84849957D02*
X66920573Y-84849957D01*
X66920573Y-84849957D02*
X66163000Y-85607530D01*
X84260519Y-85547890D02*
X84147890Y-85547890D01*
X65977000Y-84632470D02*
X65287530Y-83943000D01*
X62273216Y-85982254D02*
X62273216Y-86548120D01*
X84147890Y-85547890D02*
X83449957Y-84849957D01*
X65287530Y-83943000D02*
X64312470Y-83943000D01*
X64312470Y-83943000D02*
X62273216Y-85982254D01*
X65977000Y-85607530D02*
X65977000Y-84632470D01*
%TO.N,/DAISY_U2*%
X58812415Y-85252477D02*
X46250581Y-85252477D01*
X37109611Y-85732965D02*
X36682526Y-86160050D01*
X45469641Y-85252477D02*
X42152007Y-85252477D01*
X46158304Y-85160200D02*
X45561918Y-85160200D01*
X59818839Y-86258901D02*
X58812415Y-85252477D01*
X46250581Y-85252477D02*
X46158304Y-85160200D01*
X39591279Y-83868000D02*
X37726314Y-85732965D01*
X45561918Y-85160200D02*
X45469641Y-85252477D01*
X37726314Y-85732965D02*
X37109611Y-85732965D01*
X42152007Y-85252477D02*
X40767530Y-83868000D01*
X40767530Y-83868000D02*
X39591279Y-83868000D01*
%TO.N,/MASTER_CLK*%
X46118777Y-94755700D02*
X45522391Y-94755700D01*
%TO.N,/RESET*%
X58599738Y-90000262D02*
X58400000Y-90200000D01*
X42152235Y-93847765D02*
X39798235Y-93847765D01*
%TO.N,/MASTER_CLK*%
X37948316Y-88867768D02*
X37828520Y-88867768D01*
%TO.N,/RESET*%
X45334339Y-95209700D02*
X44648539Y-94523900D01*
%TO.N,/MASTER_CLK*%
X39978470Y-91488000D02*
X39103000Y-90612530D01*
%TO.N,/RESET*%
X42828370Y-94523900D02*
X42152235Y-93847765D01*
X48176100Y-94523900D02*
X46992630Y-94523900D01*
%TO.N,/MASTER_CLK*%
X39103000Y-90612530D02*
X39103000Y-90022452D01*
X43535430Y-94069900D02*
X40953530Y-91488000D01*
%TO.N,/RESET*%
X52500000Y-90200000D02*
X48176100Y-94523900D01*
%TO.N,/MASTER_CLK*%
X45522391Y-94755700D02*
X44836591Y-94069900D01*
X59644363Y-89319000D02*
X59625363Y-89300000D01*
%TO.N,/RESET*%
X58400000Y-90200000D02*
X52500000Y-90200000D01*
%TO.N,/MASTER_CLK*%
X59625363Y-89300000D02*
X51147382Y-89300000D01*
X44836591Y-94069900D02*
X43535430Y-94069900D01*
X51147382Y-89300000D02*
X46540484Y-93906898D01*
%TO.N,/RESET*%
X46992630Y-94523900D02*
X46306829Y-95209700D01*
X44648539Y-94523900D02*
X42828370Y-94523900D01*
%TO.N,/MASTER_CLK*%
X46540484Y-93906898D02*
X46540484Y-94333993D01*
X40953530Y-91488000D02*
X39978470Y-91488000D01*
%TO.N,/RESET*%
X37200000Y-91249530D02*
X37200000Y-89682447D01*
%TO.N,/MASTER_CLK*%
X39103000Y-90022452D02*
X37948316Y-88867768D01*
%TO.N,/RESET*%
X46306829Y-95209700D02*
X45334339Y-95209700D01*
%TO.N,/MASTER_CLK*%
X46540484Y-94333993D02*
X46118777Y-94755700D01*
%TO.N,/RESET*%
X39798235Y-93847765D02*
X37200000Y-91249530D01*
X37200000Y-89682447D02*
X37125553Y-89608000D01*
%TD*%
M02*
