M48
; DRILL file KiCad 10.0.3 date 2026-06-15T23:52:09
; FORMAT={-:-/ absolute / metric / decimal}
; #@! TF.CreationDate,2026-06-15T23:52:09+09:00
; #@! TF.GenerationSoftware,Kicad,Pcbnew,10.0.3
; #@! TF.FileFunction,Plated,1,4,PTH
FMAT,2
METRIC
; #@! TA.AperFunction,Plated,PTH,ComponentDrill
T1C0.200
; #@! TA.AperFunction,Plated,PTH,ViaDrill
T2C0.300
; #@! TA.AperFunction,Plated,PTH,ViaDrill
T3C0.330
; #@! TA.AperFunction,Plated,PTH,ViaDrill
T4C0.381
; #@! TA.AperFunction,Plated,PTH,ComponentDrill
T5C0.400
; #@! TA.AperFunction,Plated,PTH,ComponentDrill
T6C0.600
; #@! TA.AperFunction,Plated,PTH,ComponentDrill
T7C1.000
%
G90
G05
T1
X98.1Y-54.06
X98.1Y-55.16
X98.65Y-53.51
X98.65Y-54.61
X98.65Y-55.71
X99.2Y-54.06
X99.2Y-55.16
X99.75Y-53.51
X99.75Y-54.61
X99.75Y-55.71
X100.3Y-54.06
X100.3Y-55.16
T2
X21.9Y-41.3
X25.887Y-91.287
X26.735Y-91.174
X28.168Y-91.189
X29.9Y-97.8
X30.0Y-41.8
X32.5Y-41.8
X32.5Y-83.1
X34.7Y-82.3
X36.595Y-85.205
X36.683Y-86.16
X36.966Y-87.815
X37.041Y-86.915
X37.126Y-89.608
X37.515Y-98.613
X37.829Y-88.868
X38.0Y-83.1
X39.1Y-40.4
X41.845Y-68.845
X52.1Y-92.0
X52.2Y-73.4
X52.291Y-94.647
X53.491Y-94.747
X53.7Y-83.3
X54.394Y-94.572
X55.8Y-83.3
X56.7Y-76.0
X56.7Y-83.4
X58.6Y-90.0
X59.4Y-87.7
X59.5Y-77.3
X59.644Y-89.319
X59.819Y-86.259
X59.863Y-88.498
X60.014Y-83.211
X62.004Y-92.086
X62.343Y-86.618
X62.428Y-89.55
X62.946Y-88.29
X63.08Y-87.498
X63.122Y-89.148
X76.4Y-91.3
X76.869Y-93.805
X77.973Y-93.755
X78.457Y-82.497
X78.465Y-91.465
X78.954Y-93.836
X80.277Y-82.5
X81.122Y-82.48
X82.577Y-87.64
X83.421Y-89.053
X83.9Y-86.952
X83.903Y-88.354
X84.097Y-89.708
X84.261Y-85.548
X84.571Y-79.786
X86.009Y-83.028
X87.507Y-89.422
X88.009Y-88.151
X88.264Y-89.035
X89.81Y-87.53
X90.614Y-88.751
X91.0Y-90.3
X91.8Y-82.1
T3
X19.275Y-92.175
X19.287Y-88.795
X19.425Y-83.877
X19.535Y-90.552
X19.541Y-85.781
X21.2Y-82.2
X21.2Y-93.6
X29.1Y-99.78
X31.9Y-85.7
X33.7Y-85.7
X37.035Y-84.063
X37.1Y-100.0
X40.4Y-44.1
X45.8Y-92.7
X45.821Y-94.036
X45.826Y-88.72
X45.83Y-84.486
X45.86Y-85.88
X45.897Y-91.391
X45.9Y-87.308
X45.95Y-90.056
X46.1Y-83.2
X51.7Y-96.6
X54.7Y-79.6
X54.7Y-83.3
X57.4Y-86.98
X57.6Y-83.3
X58.4Y-80.3
X58.9Y-86.4
X59.595Y-91.274
X59.6Y-100.2
X60.8Y-81.7
X62.0Y-80.5
X70.243Y-85.52
X70.343Y-84.164
X70.4Y-91.3
X70.426Y-88.164
X70.473Y-86.824
X70.5Y-82.3
X70.5Y-89.4
X71.4Y-93.5
X76.1Y-96.1
X78.8Y-79.1
X79.4Y-80.2
X79.9Y-72.4
X82.075Y-78.593
X83.134Y-79.527
X93.4Y-46.3
X98.5Y-52.5
T4
X28.306Y-79.866
X28.364Y-82.524
X29.89Y-82.507
X32.0Y-78.5
X33.686Y-89.991
T5
X16.15Y-40.42
X16.15Y-41.27
X16.15Y-42.12
X16.15Y-42.97
X16.15Y-43.82
X16.15Y-44.67
X16.15Y-45.52
X16.15Y-46.37
X17.5Y-40.42
X17.5Y-41.27
X17.5Y-42.12
X17.5Y-42.97
X17.5Y-43.82
X17.5Y-44.67
X17.5Y-45.52
X17.5Y-46.37
T7
X15.9Y-74.775
X15.9Y-77.315
X15.9Y-79.855
X15.9Y-82.395
X15.9Y-84.935
X15.9Y-87.475
X15.9Y-90.015
X15.9Y-92.555
X15.9Y-95.095
X15.9Y-97.635
X23.9Y-97.5
X26.1Y-75.66
X40.28Y-74.885
X40.28Y-77.425
X40.28Y-79.965
X40.28Y-82.505
X40.28Y-85.045
X40.28Y-87.585
X40.28Y-90.125
X40.28Y-92.665
X40.28Y-95.205
X40.28Y-97.745
X64.8Y-74.96
X64.8Y-77.5
X64.8Y-80.04
X64.8Y-82.58
X64.8Y-85.12
X64.8Y-87.66
X64.8Y-90.2
X64.8Y-92.74
X64.8Y-95.28
X64.8Y-97.82
T6
G00X13.54Y-39.07
M15
G01X12.74Y-39.07
M16
G05
G00X13.54Y-47.72
M15
G01X12.74Y-47.72
M16
G05
G00X17.27Y-39.07
M15
G01X15.77Y-39.07
M16
G05
G00X17.27Y-47.72
M15
G01X15.77Y-47.72
M16
G05
M30
