%TF.GenerationSoftware,KiCad,Pcbnew,10.0.3*%
%TF.CreationDate,2026-06-15T23:48:49+09:00*%
%TF.ProjectId,EEG_BLE,4545475f-424c-4452-9e6b-696361645f70,rev?*%
%TF.SameCoordinates,Original*%
%TF.FileFunction,Paste,Top*%
%TF.FilePolarity,Positive*%
%FSLAX46Y46*%
G04 Gerber Fmt 4.6, Leading zero omitted, Abs format (unit mm)*
G04 Created by KiCad (PCBNEW 10.0.3) date 2026-06-15 23:48:49*
%MOMM*%
%LPD*%
G01*
G04 APERTURE LIST*
G04 Aperture macros list*
%AMRoundRect*
0 Rectangle with rounded corners*
0 $1 Rounding radius*
0 $2 $3 $4 $5 $6 $7 $8 $9 X,Y pos of 4 corners*
0 Add a 4 corners polygon primitive as box body*
4,1,4,$2,$3,$4,$5,$6,$7,$8,$9,$2,$3,0*
0 Add four circle primitives for the rounded corners*
1,1,$1+$1,$2,$3*
1,1,$1+$1,$4,$5*
1,1,$1+$1,$6,$7*
1,1,$1+$1,$8,$9*
0 Add four rect primitives between the rounded corners*
20,1,$1+$1,$2,$3,$4,$5,0*
20,1,$1+$1,$4,$5,$6,$7,0*
20,1,$1+$1,$6,$7,$8,$9,0*
20,1,$1+$1,$8,$9,$2,$3,0*%
G04 Aperture macros list end*
%ADD10RoundRect,0.140000X0.140000X0.170000X-0.140000X0.170000X-0.140000X-0.170000X0.140000X-0.170000X0*%
%ADD11RoundRect,0.140000X-0.170000X0.140000X-0.170000X-0.140000X0.170000X-0.140000X0.170000X0.140000X0*%
%ADD12R,0.700000X0.700000*%
%ADD13R,0.900000X1.500000*%
%ADD14RoundRect,0.200000X0.200000X0.275000X-0.200000X0.275000X-0.200000X-0.275000X0.200000X-0.275000X0*%
%ADD15RoundRect,0.140000X-0.140000X-0.170000X0.140000X-0.170000X0.140000X0.170000X-0.140000X0.170000X0*%
%ADD16RoundRect,0.225000X0.225000X0.250000X-0.225000X0.250000X-0.225000X-0.250000X0.225000X-0.250000X0*%
%ADD17RoundRect,0.075000X-0.662500X-0.075000X0.662500X-0.075000X0.662500X0.075000X-0.662500X0.075000X0*%
%ADD18RoundRect,0.075000X-0.075000X-0.662500X0.075000X-0.662500X0.075000X0.662500X-0.075000X0.662500X0*%
%ADD19RoundRect,0.250000X-0.475000X0.250000X-0.475000X-0.250000X0.475000X-0.250000X0.475000X0.250000X0*%
%ADD20RoundRect,0.200000X-0.275000X0.200000X-0.275000X-0.200000X0.275000X-0.200000X0.275000X0.200000X0*%
%ADD21RoundRect,0.200000X-0.200000X-0.275000X0.200000X-0.275000X0.200000X0.275000X-0.200000X0.275000X0*%
%ADD22RoundRect,0.250003X-3.499997X-2.999997X3.499997X-2.999997X3.499997X2.999997X-3.499997X2.999997X0*%
%ADD23RoundRect,0.150000X-0.825000X-0.150000X0.825000X-0.150000X0.825000X0.150000X-0.825000X0.150000X0*%
%ADD24RoundRect,0.375000X-0.625000X-0.375000X0.625000X-0.375000X0.625000X0.375000X-0.625000X0.375000X0*%
%ADD25RoundRect,0.500000X-0.500000X-1.400000X0.500000X-1.400000X0.500000X1.400000X-0.500000X1.400000X0*%
G04 APERTURE END LIST*
D10*
%TO.C,C23*%
X57537500Y-80350000D03*
X56577500Y-80350000D03*
%TD*%
D11*
%TO.C,C36*%
X54837500Y-94970000D03*
X54837500Y-95930000D03*
%TD*%
D12*
%TO.C,U4*%
X100300000Y-53510000D03*
X99200000Y-53510000D03*
X98100000Y-53510000D03*
X100300000Y-54610000D03*
X99200000Y-54610000D03*
X98100000Y-54610000D03*
X100300000Y-55710000D03*
X99200000Y-55710000D03*
X98100000Y-55710000D03*
D13*
X105400000Y-44900000D03*
X103900000Y-44900000D03*
X102400000Y-44900000D03*
X100900000Y-44900000D03*
X99400000Y-44900000D03*
X97900000Y-44900000D03*
X96400000Y-44900000D03*
X94900000Y-44900000D03*
X93400000Y-44900000D03*
X93400000Y-62400000D03*
X94900000Y-62400000D03*
X96400000Y-62400000D03*
X97900000Y-62400000D03*
X99400000Y-62400000D03*
X100900000Y-62400000D03*
X102400000Y-62400000D03*
X103900000Y-62400000D03*
X105400000Y-62400000D03*
%TD*%
D14*
%TO.C,R22*%
X69300000Y-85300000D03*
X67650000Y-85300000D03*
%TD*%
D11*
%TO.C,C59*%
X83750000Y-94177500D03*
X83750000Y-95137500D03*
%TD*%
D15*
%TO.C,C25*%
X46937500Y-84950000D03*
X47897500Y-84950000D03*
%TD*%
D14*
%TO.C,R27*%
X69225000Y-93500000D03*
X67575000Y-93500000D03*
%TD*%
D16*
%TO.C,C61*%
X82025000Y-96537500D03*
X80475000Y-96537500D03*
%TD*%
D11*
%TO.C,C33*%
X51737500Y-94950000D03*
X51737500Y-95910000D03*
%TD*%
D15*
%TO.C,C64*%
X30940000Y-98800000D03*
X31900000Y-98800000D03*
%TD*%
D11*
%TO.C,C54*%
X77350000Y-94340000D03*
X77350000Y-95300000D03*
%TD*%
%TO.C,C34*%
X52837500Y-95540000D03*
X52837500Y-96500000D03*
%TD*%
D14*
%TO.C,R12*%
X44705000Y-82900000D03*
X43055000Y-82900000D03*
%TD*%
D17*
%TO.C,U2*%
X49737500Y-83950000D03*
X49737500Y-84450000D03*
X49737500Y-84950000D03*
X49737500Y-85450000D03*
X49737500Y-85950000D03*
X49737500Y-86450000D03*
X49737500Y-86950000D03*
X49737500Y-87450000D03*
X49737500Y-87950000D03*
X49737500Y-88450000D03*
X49737500Y-88950000D03*
X49737500Y-89450000D03*
X49737500Y-89950000D03*
X49737500Y-90450000D03*
X49737500Y-90950000D03*
X49737500Y-91450000D03*
D18*
X51650000Y-93362500D03*
X52150000Y-93362500D03*
X52650000Y-93362500D03*
X53150000Y-93362500D03*
X53650000Y-93362500D03*
X54150000Y-93362500D03*
X54650000Y-93362500D03*
X55150000Y-93362500D03*
X55650000Y-93362500D03*
X56150000Y-93362500D03*
X56650000Y-93362500D03*
X57150000Y-93362500D03*
X57650000Y-93362500D03*
X58150000Y-93362500D03*
X58650000Y-93362500D03*
X59150000Y-93362500D03*
D17*
X61062500Y-91450000D03*
X61062500Y-90950000D03*
X61062500Y-90450000D03*
X61062500Y-89950000D03*
X61062500Y-89450000D03*
X61062500Y-88950000D03*
X61062500Y-88450000D03*
X61062500Y-87950000D03*
X61062500Y-87450000D03*
X61062500Y-86950000D03*
X61062500Y-86450000D03*
X61062500Y-85950000D03*
X61062500Y-85450000D03*
X61062500Y-84950000D03*
X61062500Y-84450000D03*
X61062500Y-83950000D03*
D18*
X59150000Y-82037500D03*
X58650000Y-82037500D03*
X58150000Y-82037500D03*
X57650000Y-82037500D03*
X57150000Y-82037500D03*
X56650000Y-82037500D03*
X56150000Y-82037500D03*
X55650000Y-82037500D03*
X55150000Y-82037500D03*
X54650000Y-82037500D03*
X54150000Y-82037500D03*
X53650000Y-82037500D03*
X53150000Y-82037500D03*
X52650000Y-82037500D03*
X52150000Y-82037500D03*
X51650000Y-82037500D03*
%TD*%
D15*
%TO.C,C44*%
X71160000Y-83200000D03*
X72120000Y-83200000D03*
%TD*%
D14*
%TO.C,R26*%
X69225000Y-91900000D03*
X67575000Y-91900000D03*
%TD*%
D19*
%TO.C,C58*%
X84350000Y-96437500D03*
X84350000Y-98337500D03*
%TD*%
D17*
%TO.C,U1*%
X24000000Y-83160000D03*
X24000000Y-83660000D03*
X24000000Y-84160000D03*
X24000000Y-84660000D03*
X24000000Y-85160000D03*
X24000000Y-85660000D03*
X24000000Y-86160000D03*
X24000000Y-86660000D03*
X24000000Y-87160000D03*
X24000000Y-87660000D03*
X24000000Y-88160000D03*
X24000000Y-88660000D03*
X24000000Y-89160000D03*
X24000000Y-89660000D03*
X24000000Y-90160000D03*
X24000000Y-90660000D03*
D18*
X25912500Y-92572500D03*
X26412500Y-92572500D03*
X26912500Y-92572500D03*
X27412500Y-92572500D03*
X27912500Y-92572500D03*
X28412500Y-92572500D03*
X28912500Y-92572500D03*
X29412500Y-92572500D03*
X29912500Y-92572500D03*
X30412500Y-92572500D03*
X30912500Y-92572500D03*
X31412500Y-92572500D03*
X31912500Y-92572500D03*
X32412500Y-92572500D03*
X32912500Y-92572500D03*
X33412500Y-92572500D03*
D17*
X35325000Y-90660000D03*
X35325000Y-90160000D03*
X35325000Y-89660000D03*
X35325000Y-89160000D03*
X35325000Y-88660000D03*
X35325000Y-88160000D03*
X35325000Y-87660000D03*
X35325000Y-87160000D03*
X35325000Y-86660000D03*
X35325000Y-86160000D03*
X35325000Y-85660000D03*
X35325000Y-85160000D03*
X35325000Y-84660000D03*
X35325000Y-84160000D03*
X35325000Y-83660000D03*
X35325000Y-83160000D03*
D18*
X33412500Y-81247500D03*
X32912500Y-81247500D03*
X32412500Y-81247500D03*
X31912500Y-81247500D03*
X31412500Y-81247500D03*
X30912500Y-81247500D03*
X30412500Y-81247500D03*
X29912500Y-81247500D03*
X29412500Y-81247500D03*
X28912500Y-81247500D03*
X28412500Y-81247500D03*
X27912500Y-81247500D03*
X27412500Y-81247500D03*
X26912500Y-81247500D03*
X26412500Y-81247500D03*
X25912500Y-81247500D03*
%TD*%
D10*
%TO.C,C49*%
X72260000Y-89200000D03*
X71300000Y-89200000D03*
%TD*%
%TO.C,C50*%
X72252500Y-90400000D03*
X71292500Y-90400000D03*
%TD*%
D14*
%TO.C,R13*%
X44700000Y-84500000D03*
X43050000Y-84500000D03*
%TD*%
%TO.C,R25*%
X69325000Y-90200000D03*
X67675000Y-90200000D03*
%TD*%
%TO.C,R14*%
X44700000Y-86100000D03*
X43050000Y-86100000D03*
%TD*%
D11*
%TO.C,C14*%
X27100000Y-94140000D03*
X27100000Y-95100000D03*
%TD*%
D14*
%TO.C,R9*%
X20300000Y-93060000D03*
X18650000Y-93060000D03*
%TD*%
D20*
%TO.C,R10*%
X24500000Y-92960000D03*
X24500000Y-94610000D03*
%TD*%
D14*
%TO.C,R7*%
X20050000Y-89600000D03*
X18400000Y-89600000D03*
%TD*%
D10*
%TO.C,C11*%
X22700000Y-92000000D03*
X21740000Y-92000000D03*
%TD*%
D14*
%TO.C,R6*%
X20100000Y-88100000D03*
X18450000Y-88100000D03*
%TD*%
D15*
%TO.C,C3*%
X26440000Y-79660000D03*
X27400000Y-79660000D03*
%TD*%
D14*
%TO.C,R20*%
X69300000Y-82100000D03*
X67650000Y-82100000D03*
%TD*%
D15*
%TO.C,C6*%
X21540000Y-85600000D03*
X22500000Y-85600000D03*
%TD*%
D11*
%TO.C,C56*%
X79550000Y-94157500D03*
X79550000Y-95117500D03*
%TD*%
D15*
%TO.C,C12*%
X21820000Y-93000000D03*
X22780000Y-93000000D03*
%TD*%
D14*
%TO.C,R4*%
X20250000Y-84960000D03*
X18600000Y-84960000D03*
%TD*%
D21*
%TO.C,R_CC2*%
X19575000Y-45900000D03*
X21225000Y-45900000D03*
%TD*%
D15*
%TO.C,C45*%
X71160000Y-84400000D03*
X72120000Y-84400000D03*
%TD*%
D11*
%TO.C,C17*%
X32000000Y-94100000D03*
X32000000Y-95060000D03*
%TD*%
D16*
%TO.C,C41*%
X57637500Y-97150000D03*
X56087500Y-97150000D03*
%TD*%
D15*
%TO.C,C32*%
X47075000Y-93200000D03*
X48035000Y-93200000D03*
%TD*%
D14*
%TO.C,R15*%
X44700000Y-87700000D03*
X43050000Y-87700000D03*
%TD*%
D15*
%TO.C,C24*%
X46937500Y-83750000D03*
X47897500Y-83750000D03*
%TD*%
%TO.C,C46*%
X71120000Y-85600000D03*
X72080000Y-85600000D03*
%TD*%
%TO.C,C28*%
X47040000Y-88600000D03*
X48000000Y-88600000D03*
%TD*%
D16*
%TO.C,C21*%
X31875000Y-96300000D03*
X30325000Y-96300000D03*
%TD*%
D14*
%TO.C,R23*%
X69325000Y-86900000D03*
X67675000Y-86900000D03*
%TD*%
D19*
%TO.C,C18*%
X33700000Y-96300000D03*
X33700000Y-98200000D03*
%TD*%
D15*
%TO.C,C48*%
X71240000Y-88000000D03*
X72200000Y-88000000D03*
%TD*%
D21*
%TO.C,R_GND2*%
X30150000Y-100100000D03*
X31800000Y-100100000D03*
%TD*%
D11*
%TO.C,C55*%
X78450000Y-94340000D03*
X78450000Y-95300000D03*
%TD*%
D15*
%TO.C,C1*%
X29140000Y-79600000D03*
X30100000Y-79600000D03*
%TD*%
D11*
%TO.C,C57*%
X82650000Y-94340000D03*
X82650000Y-95300000D03*
%TD*%
D14*
%TO.C,R18*%
X44700000Y-92700000D03*
X43050000Y-92700000D03*
%TD*%
D11*
%TO.C,C39*%
X59200000Y-94890000D03*
X59200000Y-95850000D03*
%TD*%
D15*
%TO.C,C62*%
X38620000Y-41300000D03*
X39580000Y-41300000D03*
%TD*%
%TO.C,C65*%
X30940000Y-97700000D03*
X31900000Y-97700000D03*
%TD*%
D14*
%TO.C,R16*%
X44700000Y-89400000D03*
X43050000Y-89400000D03*
%TD*%
D20*
%TO.C,R28*%
X74850000Y-93112500D03*
X74850000Y-94762500D03*
%TD*%
D14*
%TO.C,R5*%
X20300000Y-86560000D03*
X18650000Y-86560000D03*
%TD*%
D11*
%TO.C,C15*%
X28100000Y-94000000D03*
X28100000Y-94960000D03*
%TD*%
D14*
%TO.C,R8*%
X20125000Y-91460000D03*
X18475000Y-91460000D03*
%TD*%
D11*
%TO.C,C37*%
X57800000Y-94950000D03*
X57800000Y-95910000D03*
%TD*%
D15*
%TO.C,C5*%
X21540000Y-84300000D03*
X22500000Y-84300000D03*
%TD*%
D10*
%TO.C,C29*%
X48000000Y-89800000D03*
X47040000Y-89800000D03*
%TD*%
D11*
%TO.C,C35*%
X53837500Y-95400000D03*
X53837500Y-96360000D03*
%TD*%
D10*
%TO.C,C20*%
X31000000Y-94100000D03*
X30040000Y-94100000D03*
%TD*%
D11*
%TO.C,C19*%
X33300000Y-94040000D03*
X33300000Y-95000000D03*
%TD*%
D15*
%TO.C,C4*%
X21540000Y-83000000D03*
X22500000Y-83000000D03*
%TD*%
D19*
%TO.C,C38*%
X59537500Y-97250000D03*
X59537500Y-99150000D03*
%TD*%
D11*
%TO.C,C13*%
X26100000Y-94300000D03*
X26100000Y-95260000D03*
%TD*%
D14*
%TO.C,R24*%
X69325000Y-88500000D03*
X67675000Y-88500000D03*
%TD*%
D15*
%TO.C,C52*%
X71372500Y-92700000D03*
X72332500Y-92700000D03*
%TD*%
%TO.C,C8*%
X21540000Y-88100000D03*
X22500000Y-88100000D03*
%TD*%
D14*
%TO.C,R2*%
X20300000Y-81660000D03*
X18650000Y-81660000D03*
%TD*%
%TO.C,R17*%
X44700000Y-91000000D03*
X43050000Y-91000000D03*
%TD*%
D10*
%TO.C,C10*%
X22500000Y-90700000D03*
X21540000Y-90700000D03*
%TD*%
D15*
%TO.C,C26*%
X46997500Y-86150000D03*
X47957500Y-86150000D03*
%TD*%
D22*
%TO.C,J_BAT1*%
X18110000Y-26100000D03*
X97490000Y-26100000D03*
%TD*%
D14*
%TO.C,R_GND1*%
X40325000Y-42900000D03*
X38675000Y-42900000D03*
%TD*%
%TO.C,R11*%
X44680000Y-81300000D03*
X43030000Y-81300000D03*
%TD*%
D11*
%TO.C,C16*%
X29100000Y-94040000D03*
X29100000Y-95000000D03*
%TD*%
D23*
%TO.C,U_IP1*%
X20225000Y-38695000D03*
X20225000Y-39965000D03*
X20225000Y-41235000D03*
X20225000Y-42505000D03*
X25175000Y-42505000D03*
X25175000Y-41235000D03*
X25175000Y-39965000D03*
X25175000Y-38695000D03*
%TD*%
D20*
%TO.C,R19*%
X50400000Y-93775000D03*
X50400000Y-95425000D03*
%TD*%
D10*
%TO.C,C51*%
X72480000Y-91400000D03*
X71520000Y-91400000D03*
%TD*%
D14*
%TO.C,R3*%
X20250000Y-83200000D03*
X18600000Y-83200000D03*
%TD*%
D17*
%TO.C,U3*%
X74187500Y-83187500D03*
X74187500Y-83687500D03*
X74187500Y-84187500D03*
X74187500Y-84687500D03*
X74187500Y-85187500D03*
X74187500Y-85687500D03*
X74187500Y-86187500D03*
X74187500Y-86687500D03*
X74187500Y-87187500D03*
X74187500Y-87687500D03*
X74187500Y-88187500D03*
X74187500Y-88687500D03*
X74187500Y-89187500D03*
X74187500Y-89687500D03*
X74187500Y-90187500D03*
X74187500Y-90687500D03*
D18*
X76100000Y-92600000D03*
X76600000Y-92600000D03*
X77100000Y-92600000D03*
X77600000Y-92600000D03*
X78100000Y-92600000D03*
X78600000Y-92600000D03*
X79100000Y-92600000D03*
X79600000Y-92600000D03*
X80100000Y-92600000D03*
X80600000Y-92600000D03*
X81100000Y-92600000D03*
X81600000Y-92600000D03*
X82100000Y-92600000D03*
X82600000Y-92600000D03*
X83100000Y-92600000D03*
X83600000Y-92600000D03*
D17*
X85512500Y-90687500D03*
X85512500Y-90187500D03*
X85512500Y-89687500D03*
X85512500Y-89187500D03*
X85512500Y-88687500D03*
X85512500Y-88187500D03*
X85512500Y-87687500D03*
X85512500Y-87187500D03*
X85512500Y-86687500D03*
X85512500Y-86187500D03*
X85512500Y-85687500D03*
X85512500Y-85187500D03*
X85512500Y-84687500D03*
X85512500Y-84187500D03*
X85512500Y-83687500D03*
X85512500Y-83187500D03*
D18*
X83600000Y-81275000D03*
X83100000Y-81275000D03*
X82600000Y-81275000D03*
X82100000Y-81275000D03*
X81600000Y-81275000D03*
X81100000Y-81275000D03*
X80600000Y-81275000D03*
X80100000Y-81275000D03*
X79600000Y-81275000D03*
X79100000Y-81275000D03*
X78600000Y-81275000D03*
X78100000Y-81275000D03*
X77600000Y-81275000D03*
X77100000Y-81275000D03*
X76600000Y-81275000D03*
X76100000Y-81275000D03*
%TD*%
D10*
%TO.C,C63*%
X37600000Y-41300000D03*
X36640000Y-41300000D03*
%TD*%
%TO.C,C40*%
X56800000Y-95000000D03*
X55840000Y-95000000D03*
%TD*%
%TO.C,C9*%
X22400000Y-89400000D03*
X21440000Y-89400000D03*
%TD*%
%TO.C,C31*%
X48015000Y-92000000D03*
X47055000Y-92000000D03*
%TD*%
%TO.C,C2*%
X31960000Y-79400000D03*
X31000000Y-79400000D03*
%TD*%
D15*
%TO.C,C7*%
X21620000Y-86800000D03*
X22580000Y-86800000D03*
%TD*%
D10*
%TO.C,C43*%
X82530000Y-79400000D03*
X81570000Y-79400000D03*
%TD*%
D24*
%TO.C,U5*%
X28250000Y-39400000D03*
X28250000Y-41700000D03*
D25*
X34550000Y-41700000D03*
D24*
X28250000Y-44000000D03*
%TD*%
D10*
%TO.C,C30*%
X48057500Y-91000000D03*
X47097500Y-91000000D03*
%TD*%
D15*
%TO.C,C42*%
X79590000Y-79000000D03*
X80550000Y-79000000D03*
%TD*%
%TO.C,C27*%
X47037500Y-87350000D03*
X47997500Y-87350000D03*
%TD*%
D10*
%TO.C,C60*%
X81550000Y-94400000D03*
X80590000Y-94400000D03*
%TD*%
D11*
%TO.C,C53*%
X76100000Y-94320000D03*
X76100000Y-95280000D03*
%TD*%
D15*
%TO.C,C22*%
X54657500Y-80350000D03*
X55617500Y-80350000D03*
%TD*%
%TO.C,C47*%
X71240000Y-86800000D03*
X72200000Y-86800000D03*
%TD*%
D21*
%TO.C,R1*%
X26050000Y-78360000D03*
X27700000Y-78360000D03*
%TD*%
%TO.C,R_CC1*%
X19550000Y-44200000D03*
X21200000Y-44200000D03*
%TD*%
D14*
%TO.C,R21*%
X69300000Y-83680000D03*
X67650000Y-83680000D03*
%TD*%
M02*
